<?xml version="1.0" encoding="utf-8"?>
<!-- Generator: Adobe Illustrator 28.0.0, SVG Export Plug-In . SVG Version: 6.00 Build 0)  -->
<svg version="1.1" xmlns="http://www.w3.org/2000/svg" xmlns:xlink="http://www.w3.org/1999/xlink" x="0px" y="0px"
	 viewBox="0 0 2000 2000" style="enable-background:new 0 0 2000 2000;" xml:space="preserve">
<style type="text/css">
	.st0{fill:#FFFFFF;}
	.st1{fill:#BEBEBE;}
	.st2{fill:#6F6F6F;}
	.st3{fill:#3F3F3F;}
</style>
<g id="Background">
	<rect y="0" class="st0" width="2000" height="2000"/>
</g>
<g id="Art">
	<g id="Anterior_Body">
		<path class="st1" d="M1930.22,1021.96c-2.44-2.56-15.49-10.97-18.66-14.27c-3.17-3.29-3.17-5.85-11.95-20.97
			c-8.78-15.12-41.52-28.53-45.18-29.26c-3.66-0.73-10.79-9.69-12.62-14.63c-7.54-20.36-25.24-89.99-32.92-152.17
			c-7.68-62.19-36.58-97.3-52.31-118.89c0.73-59.63-12.94-72.05-20.49-91.08c0.73-15,5.94-47.59,2.42-90.43
			c-2.79-33.94-45.22-74.42-71.56-78.08c-17.06-2.37-26.46,1.71-48.53,0c-22.07-1.71-63.41-38.78-65.6-43.16
			c-2.19-4.39-6.83-40.97-3.41-45.6c3.41-4.63,3.9-0.24,7.32-9.75c3.41-9.51,1.57-26.61,1.57-26.61s0.91-3.65,1.54-1.13
			c0.37,1.46,1.1,2.99,2.74,3.84c2.55,1.32,5.73-4.84,9.08-10.67c8.91-15.51,17.26-45.11,4.94-48.83c-2.24-0.68-5.49,5.12-5.49,5.12
			c0-2.93,2.93-30-1.46-46.82c-3.52-13.48-16.68-26.95-27.07-35.12c-12.69-9.97-38.58-10.68-45.03-10.73v0c-0.13,0-0.37,0-0.57,0
			c-0.2,0-0.44,0-0.57,0v0c-6.45,0.05-32.33,0.75-45.03,10.73c-10.39,8.16-23.55,21.64-27.07,35.12
			c-4.39,16.83-1.46,43.9-1.46,46.82c0,0-3.24-5.8-5.49-5.12c-12.32,3.72-3.97,33.32,4.94,48.83c3.35,5.83,6.53,11.99,9.08,10.67
			c1.65-0.85,2.38-2.38,2.74-3.84c0.63-2.52,1.54,1.13,1.54,1.13s-1.84,17.1,1.57,26.61c3.41,9.51,3.9,5.12,7.32,9.75
			c3.41,4.63-1.22,41.21-3.41,45.6c-2.19,4.39-43.53,41.46-65.6,43.16c-22.07,1.71-31.47-2.37-48.53,0
			c-26.34,3.66-68.77,44.14-71.56,78.08c-3.52,42.85,1.69,75.44,2.42,90.43c-7.54,19.04-21.22,31.46-20.48,91.08
			c-15.73,21.58-44.63,56.7-52.31,118.89c-7.68,62.19-25.38,131.81-32.92,152.17c-1.83,4.94-8.96,13.9-12.62,14.63
			c-3.66,0.73-36.4,14.14-45.18,29.26c-8.78,15.12-8.78,17.68-11.95,20.97c-3.17,3.29-16.22,11.71-18.66,14.27
			c-2.44,2.56-4.15,12.19,2.68,13.78c6.83,1.59,25.09-2.38,31.03-15.73c7.13-4.66,8.87-4.76,8.87-4.76s2.41,7.32,2.04,13.17
			c-0.37,5.85-12.38,23.78-17.13,34.39c-4.76,10.61-19.02,30.18-15.18,35.67c3.84,5.49,9.33,4.57,11.71,2.74
			c2.38-1.83,15.91-24.78,18.56-28.81c3.02-3.93,14.36-18.56,16.37-20.76c-3.23,13.35-8.47,29.08-10.55,35.3
			c-2.07,6.22-11.74,24.94-11.83,31.34c-0.12,8.9,6.02,10.87,10.12,8.17c11.46-7.56,17.9-26.93,20.73-32.56
			c4.79-9.53,10-26.46,14.88-34.26c-1.22,9.51-4.2,22.62-5.79,33.71c-0.81,5.61-5.73,34.5,0.55,36.4
			c9.69,2.93,10.97-8.23,14.81-21.4c3.84-13.17,8.6-45.73,11.52-50.66c4.39,0.91,3.73,4.02,4.57,12.8
			c1.11,11.54,0.18,40.24,8.6,40.24c8.41,0,9.02-28.9,10.12-46.46c1.1-17.56,6.83-26.83,9.75-41.21
			c2.93-14.39,9.74-34.38,9.27-51.21c-0.22-7.82-3.54-14.75,3.17-39.75c4.11-15.34,55.85-116.57,61.66-126.08
			c6.3-10.3,18.08-40.97,21.01-64.38c2.93-23.41,2.44-24.39,3.9-35.6c1.46-11.22,6-16.16,11.71-22.92
			c6.58-7.8,16.1-30.97,23.41-62.55c3.41-0.12,4.46-2.94,6.1-1.83c0,0,4.39,49.99,13.41,63.89c9.02,13.9,6.34,19.02,8.29,24.14
			c1.95,5.12,0.98,38.53-0.49,57.06c-1.46,18.53-5.73,83.16-9.75,98.52c-4.02,15.36-9.02,21.95-12.92,41.46
			c-3.9,19.51-10.12,45.05-11.46,69.01c0,0-8.2,56.88-7.44,78.28c0.81,22.93-5.12,178.88,27.8,216.92
			c-1.59,7.44-0.12,20.36,0.12,24.26c0.24,3.9-9.27,44.38-5.61,71.45c3.66,27.07,2.19,17.68,1.46,24.45
			c-0.73,6.77-30,97.49,13.9,264.54c2.62,9.98,3.66,30.12,3.66,40.73c0,10.61-3.66,31.46-3.66,41.34c0,9.88-0.37,14.63,1.83,20.85
			c2.19,6.22,1.83,16.46,0.37,24.14c-1.46,7.68-31.09,28.53-33.65,39.87c-2.56,11.34-5.85,17.92-1.1,21.22c4.76,3.29,6.95,0,6.95,0
			s-1.83,5.49,1.1,8.41c2.93,2.93,11.71,2.56,11.71,2.56s2.93,0.73,4.76,3.66c1.83,2.93,9.51,4.39,11.34,2.56
			c1.83-1.83,2.93-1.68,4.39,0.81c0.79,1.34,4.04,2.92,6.86,4.09c2.71,1.12,5.79,0.88,8.29-0.66l5.7-3.51c0,0,4.76,5.49,5.85,5.85
			c1.1,0.37,12.44,4.39,15.36,0c2.93-4.39,16.83-15,16.1-27.44c-0.73-12.44-1.83-19.39-1.46-23.78c0.37-4.39,1.46-10.97,3.29-17.56
			c1.83-6.58,4.02-9.51,2.56-21.95s-0.37-13.17-0.37-15.36c0-2.19,1.83-8.05,2.19-14.63c0.37-6.58-4.76-20.12-4.76-20.12
			s-2.19-13.17-3.29-31.09c-1.1-17.92,2.56-88.52,9.88-111.94c7.32-23.41,11.61-30.74,12.44-36.58
			c8.78-61.82-5.48-128.38-8.05-151.93c-1.46-13.41,4.39-14.88,8.05-28.41c3.66-13.53,6.58-47.19,2.56-62.19
			c-2.95-11,10.24-51.21,12.07-63.65c1.83-12.44,26.95-108.64,28.29-125.84c1.34-17.19,3.05-70.52-1.46-78.57
			c2.15,0,8.3,4.27,10.93,5.02c0.11,0.1,0.3,0.12,0.53,0.1c0.23,0.02,0.42,0,0.53-0.1c2.62-0.74,8.78-5.02,10.93-5.02
			c-4.51,8.05-2.8,61.37-1.46,78.57c1.34,17.19,26.46,113.4,28.29,125.84c1.83,12.44,15.02,52.65,12.07,63.65
			c-4.02,15-1.1,48.65,2.56,62.19c3.66,13.53,9.51,15,8.05,28.41c-2.57,23.55-16.83,90.11-8.05,151.93
			c0.83,5.84,5.12,13.17,12.44,36.58c7.32,23.41,10.97,94.01,9.88,111.94c-1.1,17.92-3.29,31.09-3.29,31.09s-5.12,13.53-4.76,20.12
			c0.37,6.58,2.2,12.44,2.2,14.63c0,2.19,1.1,2.93-0.37,15.36c-1.46,12.44,0.73,15.36,2.56,21.95c1.83,6.58,2.93,13.17,3.29,17.56
			c0.37,4.39-0.73,11.34-1.46,23.78c-0.73,12.44,13.17,23.05,16.1,27.44c2.93,4.39,14.27,0.37,15.36,0c1.1-0.37,5.85-5.85,5.85-5.85
			l5.7,3.51c2.5,1.54,5.58,1.78,8.29,0.66c2.82-1.17,6.07-2.75,6.86-4.09c1.46-2.49,2.56-2.64,4.39-0.81
			c1.83,1.83,9.51,0.37,11.34-2.56c1.83-2.93,4.76-3.66,4.76-3.66s8.78,0.37,11.71-2.56c2.93-2.93,1.1-8.41,1.1-8.41
			s2.19,3.29,6.95,0s1.46-9.88-1.1-21.22c-2.56-11.34-32.19-32.19-33.65-39.87c-1.46-7.68-1.83-17.92,0.37-24.14
			c2.19-6.22,1.83-10.97,1.83-20.85c0-9.88-3.66-30.73-3.66-41.34c0-10.61,1.04-30.74,3.66-40.73
			c43.9-167.05,14.63-257.77,13.9-264.54c-0.73-6.77-2.19,2.62,1.46-24.45c3.66-27.07-5.85-67.55-5.61-71.45
			c0.24-3.9,1.71-16.83,0.12-24.26c32.92-38.04,26.99-193.99,27.8-216.92c0.76-21.4-7.44-78.28-7.44-78.28
			c-1.34-23.97-7.56-49.51-11.46-69.01c-3.9-19.51-8.9-26.09-12.93-41.46c-4.02-15.36-8.29-79.99-9.75-98.52
			c-1.46-18.53-2.44-51.94-0.49-57.06c1.95-5.12-0.73-10.24,8.29-24.14c9.02-13.9,13.41-63.89,13.41-63.89
			c1.64-1.11,2.68,1.71,6.1,1.83c7.32,31.58,16.83,54.75,23.41,62.55c5.71,6.76,10.24,11.71,11.71,22.92
			c1.46,11.22,0.98,12.19,3.9,35.6c2.93,23.41,14.71,54.08,21.01,64.38c5.82,9.51,57.55,110.74,61.66,126.08
			c6.71,25,3.39,31.93,3.17,39.75c-0.48,16.84,6.34,36.82,9.27,51.21c2.93,14.39,8.66,23.66,9.75,41.21
			c1.1,17.56,1.71,46.46,10.12,46.46c8.41,0,7.49-28.7,8.6-40.24c0.84-8.79,0.18-11.89,4.57-12.8c2.93,4.94,7.68,37.49,11.52,50.66
			c3.84,13.17,5.12,24.33,14.82,21.4c6.28-1.89,1.36-30.79,0.55-36.4c-1.6-11.1-4.57-24.2-5.79-33.71
			c4.88,7.8,10.08,24.74,14.88,34.26c2.83,5.63,9.27,25,20.73,32.56c4.1,2.7,10.24,0.73,10.12-8.17
			c-0.09-6.4-9.75-25.12-11.83-31.34c-2.07-6.22-7.32-21.95-10.55-35.3c2.01,2.19,13.35,16.83,16.37,20.76
			c2.65,4.02,16.19,26.98,18.56,28.81c2.38,1.83,7.86,2.74,11.71-2.74c3.84-5.49-10.43-25.06-15.18-35.67
			c-4.76-10.61-16.77-28.53-17.13-34.39c-0.37-5.85,2.04-13.17,2.04-13.17s1.74,0.09,8.87,4.76c5.94,13.35,24.2,17.31,31.03,15.73
			C1934.37,1034.16,1932.66,1024.53,1930.22,1021.96z"/>
		<path class="st2" d="M1545.45,142.7c-15.58-5.6-30.24-10.67-48.61-9.09c-0.1,0.01-0.19,0.13-0.28,0.24
			c-0.09-0.11-0.18-0.23-0.28-0.24c-18.37-1.58-33.02,3.49-48.61,9.09c-24.21,8.7-31.43,41.17-30.93,64.6
			c0,9.67,2.51,19.29,4.65,28.65c2.19,9.6,6.45,9.54,8.1,10.09c25.42,8.41,27.03,41.61,38.23,42.07c7.99,0.32,17.07-0.05,25.14-0.02
			c0.27,0.07,0.53,0.16,0.83,0.14c0.92-0.04,1.89-0.07,2.87-0.09c0.97,0.02,1.94,0.05,2.87,0.09c0.3,0.01,0.56-0.07,0.83-0.14
			c8.07-0.03,17.16,0.35,25.14,0.02c11.2-0.45,12.8-33.65,38.23-42.07c1.66-0.55,5.92-0.49,8.1-10.09
			c2.14-9.37,4.65-18.98,4.65-28.65C1576.89,183.87,1569.66,151.4,1545.45,142.7z"/>
		<g>
			<path class="st3" d="M1333.36,1828.37c7.32,0,76.09-1.46,78.53,4.39c2.44,5.85,10.44,20-4.29,20s-55.21-6.83-62.53-9.75
				c-7.32-2.93-16.1-10.24-16.1-10.24L1333.36,1828.37z"/>
			<path class="st3" d="M1404.86,898.99c-26.57,15.85-41.54,27.07-50.53,41.7c-8.99,14.63-7.32,40.97,4.88,67.31
				c12.19,26.34,37.56,55.85,50.72,55.85s34.75,16.72,57.07,8.16c19.37-7.43,11.87-20.81,13.85-38.33
				c2.77-24.42,8.83-23,12.12-80.92c0.79-13.94-2.38-37.19-6.28-44.99c-3.9-7.8-11.89-17.8-15.3-22.19
				c-3.41-4.39-5.61-14.03-34.14-1.46C1425.43,889.32,1421.86,888.85,1404.86,898.99z"/>
			<path class="st3" d="M1384.33,417.6c13.17,13.9,28.08,68.54,36.58,97.3c9.8,33.15,16.87,53.58,42.43,95.11
				c17.19,27.93,16.1,46.09,19.75,43.16c5.12-56.33,16.83-209.97-2.93-226.07s-26.34-13.17-48.29-16.1S1384.33,417.6,1384.33,417.6z
				"/>
			<path class="st3" d="M1335.44,469.05c15.41-8.51,31.43-15.99,47.83-22.37c1.76-0.68,3.6-1.37,5.48-1.19
				c8.62,0.79,12.39,27.57,13.95,33.76c4.97,19.8,9.82,39.61,16.01,59.07c7.54,23.7-27.49,3.66-34.39,0
				c-11.22-5.96-22.02-10.42-31.31-19.56c-11.16-10.97-16.7-25.49-23.06-39.45c-2.15-4.71-3.05-5.41,1.66-8.11
				C1332.89,470.47,1334.16,469.76,1335.44,469.05z"/>
			<path class="st3" d="M1350.77,438.56c-4.87-3.12-11.61-6.84-12.6-7.18c-7.36-2.51-15.44-2.97-23.09-1.66
				c-12.53,2.14-25.35,12.59-34.71,20.81c-6.07,5.33-11.76,14.81-14.73,22.32c-4.59,11.61-2.84,21.37-2.82,33.55
				c0.03,14.4,0.06,28.8,0.08,43.2c0,0.11,15.08-6.05,16.48-6.84c7.84-4.38,14.76-10.11,21.38-16.14
				c5.79-5.28,13.58-12.47,13.58-20.98c0-12.83,3.01-25.78,9.96-36.67c7.81-12.25,20.7-17.17,31.5-26.17
				C1356.31,442.36,1353.94,440.59,1350.77,438.56z"/>
			<path class="st3" d="M1334.86,508.91c0.36,0.77,0.68,1.4,0.96,1.8c4.67,6.88,10.66,12.81,17.22,17.88
				c11.84,9.16,26.25,18.51,41.16,20.94c8.6,1.4,11.61,2.41,13.9,3.69c2.29,1.28-2.01,5.12-2.01,5.58c0,0.46-13.23,7.56-27.38,9.27
				c-21.02,2.54-42.41-6.7-52.01-26.12c-3.63-7.35-5.46-15.49-5.87-23.65c-0.34-6.75-1.72-14.37,2.87-20.11
				C1328.23,492.53,1332.45,503.82,1334.86,508.91z"/>
			<path class="st3" d="M1311.9,526.61c-49.49,35.12-48.77,57.55-44.38,86.33c4,26.19,15.8-2.14,23.72-7.96
				c5.76-4.24,11.61-8.31,17.28-12.69c1.86-1.44,12.86-8.19,12.48-11.05C1320.68,578.8,1311.9,526.61,1311.9,526.61z"/>
			<path class="st3" d="M1319.22,591.72c-9.94,8.32-19.72,16.92-28.98,26c-9.29,9.11-11.23,15.68-11.4,28.95
				c-0.23,19.14-5.97,37.6-8.83,56.4c-1.45,9.55-2.21,19.28-0.97,28.89c1.46,11.33,3.65,5.85,8.7,0.35
				c2.56-2.79,5.07-5.61,7.42-8.58c7.25-9.14,7.36-17.05,8.82-28.49c1.6-12.53,11.21-17.1,16.83-28.53
				c3.51-7.14,5.45-22.54,8.96-29.68c7.3-14.84,9.28-31.8,4.21-47.51C1323.97,589.53,1319.22,591.72,1319.22,591.72z"/>
			<path class="st3" d="M1426.52,553.92c7.8,14.42,24.39,54.42,30.24,65.63c5.85,11.22,14.63,15.61,12.68,27.31
				c-1.95,11.71-17.66,54.35-24.39,68.49s-16.58,42.92-21.95,55.88c-5.72,13.82-10.73,28.78-13.17,36.09
				c-1.97,5.92-20.9-21.09-28.03-31.59c-1.78-2.61-2.99-5.55-3.56-8.66c-1.95-10.6-6.85-37.61-10.85-62.67
				c-2.32-14.52-6.83-20.48-10.73-52.68c-3.9-32.19-1.95-26.83-11.71-43.41c-9.75-16.58-12.19-38.04-10.24-38.53
				c13.17,9.75,27.19,9.53,36.85,11.22c2.62,0.46,10.82,1.63,20.7-1.69c16.4-5.51,18.92-8.29,22.33-14.63
				C1418.13,558.36,1426.52,553.92,1426.52,553.92z"/>
			<path class="st3" d="M1378.68,785.04c1.35,0.4,2.57,1.32,3.83,2.72c5.16,5.76,9.95,11.86,14.33,18.25
				c4.11,6,9.66,13.07,11.27,20.31c1.29,5.82-16.17,13.65-19.78,15.97c-8.81,5.66-16.34,12.45-21.69,21.57
				c-3.18,5.43-4.29,2.3-4.99-2.18c-2.09-13.43-3.71-27.61-2.57-41.43c0.97-11.65,2.66-29.87,14.92-34.77
				C1375.8,784.77,1377.31,784.63,1378.68,785.04z"/>
			<path class="st3" d="M1434.93,1086.77c8.78,7.8,33.31,50.99,25.51,92.93c-7.8,41.95,12.11-26.85,16.56-53.79
				c3.52-21.3,5.71-37.56,1.71-41.09C1472.42,1079.27,1434.93,1086.77,1434.93,1086.77z"/>
			<path class="st3" d="M1329.46,1037.27c-2.93,19.02,3.9,162.9,15.12,206.31c11.22,43.41,8.67,17.07,6.29-4.39
				c-2.38-21.46,4.44-76.57,5.42-96.08c0.98-19.51-2.93-67.8-11.22-88.77s-6.83-21.95-11.71-29.26
				C1328.48,1017.76,1329.46,1037.27,1329.46,1037.27z"/>
			<path class="st3" d="M1359.36,1305.03c-5.06,24.84-7.95,68.77-10.39,70.72c20.97-22.44,44.27-105.03,49.75-132.66
				c5.41-27.29,5.49-117.12,7.93-131.75c2.44-14.63-0.19-13.55-2.46-21.4c-3.29-11.4-16.7-29.93-23.6-36.82
				C1354.25,1026.78,1374.82,1229.18,1359.36,1305.03z"/>
			<path class="st3" d="M1453.34,1180.17c0,25.85-23.41,93.16-21.95,123.4c1.46,30.24-4.65,82.92-5.63,87.3
				c10.24-23.9,15.11-75.6,15.6-100.96c0.49-25.36,17.34-69.26,15.39-83.89C1454.81,1191.39,1453.34,1180.17,1453.34,1180.17z"/>
			<path class="st3" d="M1368.97,1365.76c-39.51,46.09-29.63,159-23.05,189c6.58,30,7.44,35.26,21.26,35.07
				c5.42-0.07,17.64-7.75,15.45-32.63c-2.19-24.87,0.49-93.82,0.49-121.45c0-16.1,4.39-94.52,4.39-94.52L1368.97,1365.76z"/>
			<path class="st3" d="M1394.66,1398.19c5.47,57.07,1.14,128.23,0,149.73c-1.08,20.48-2.11,39.95,7.64,41.9
				c9.75,1.95,33.25-29.1,37.64-57.63c3.49-22.68-2.62-71.08-6.58-92.55c-5.62-30.42-12.62-41.46-20.21-57.07
				s-14.78-33.17-16.06-40.48C1395.79,1334.79,1394.66,1398.19,1394.66,1398.19z"/>
			<path class="st3" d="M1372.15,1756.56c5.37,23.9,4.1,34.69,14.39,36.82c18.78,3.9,22.44-11.22,23.41-22.92
				c0.98-11.71,6.34-16.58,6.34-16.58s-0.18,43.41-2.44,54.14c-1.95,9.27-1.86,14.86-11.86,14.86c-14.07,0-24.12,2.33-31.06,0.02
				c-7.85-2.62-4.77-35.27-5.85-50.48c-1.25-17.56-2.07-21.09-1.09-25.48C1364.96,1742.54,1372.15,1756.56,1372.15,1756.56z"/>
			<path class="st3" d="M1369.36,1604.27c6.63,0.17,12.14,5.21,12.96,11.79c4.72,37.85,8.49,131.56,7.62,137.69
				c-0.98,6.83-4.29,38.96-7.32,24.27c-8.9-43.17-14.2-105.78-19.51-131.69c-5.12-25-14.14-31.09-4.39-38.9
				C1363.7,1603.45,1362.82,1604.1,1369.36,1604.27z"/>
			<path class="st3" d="M1398.21,1609.38c-8.14,9.27,0.52,172.45,1.97,172.56c1.46,0.1,5.37-52.57,12.68-82.81
				s7.59-79.86,7.56-79.99C1417.48,1607.44,1404.33,1605.19,1398.21,1609.38z"/>
			<path class="st3" d="M1416.82,1108.07c-4.61,19.92-23.01,235-4.61,258.91c7.8-13.17,13.53-128.27,31.34-174.61
				c9.25-24.06-0.73-55.36-5.08-71.94c-1.41-5.38-15.36-28.04-15.36-28.04L1416.82,1108.07z"/>
			<path class="st3" d="M1255.2,606.35c-6.34,17.52-17.92,75.36-12.56,100.24c1.26,5.83,5.82,18.42,9.93,6.56
				c6.46-18.64,14.6-37.37,19.17-56.59C1274.75,643.91,1262.88,622.08,1255.2,606.35z"/>
			<path class="st3" d="M1233.72,722.64c0.59,6.44,1.68,12.83,1.8,19.38c0.23,12.56-4.01,38.75,7.91,47.7
				c10.56-10,14.81-27.62,14-41.68c-0.47-8.06-8.07-13.41-13.03-19.24c-3.76-4.41-7.44-8.9-11.05-13.44
				C1233.35,717.8,1233.5,720.23,1233.72,722.64z"/>
			<path class="st3" d="M1213.38,736.82c-3.9,32.68-22.44,180.22-34.63,211.92c-0.98,15.12,45.91-77.73,51.4-108.64
				c4.35-24.51-3.11-72.06-8.47-83.77C1216.31,744.63,1213.38,736.82,1213.38,736.82z"/>
			<path class="st3" d="M1264.35,768.53c-4.63,3.66-7.25,9.67-7.47,10.25c-21.97,57.32-30.92,101.62-57.16,152.41
				c-1.75,3.39-5.15,12.9-9.27,14.13c14.63-4.39,37.31-67.42,66.12-117.67c6.26-10.92,23.87-54.73,25.33-60.58
				C1283.01,762.63,1268.22,765.47,1264.35,768.53z"/>
			<path class="st3" d="M1196.43,768.28c-7.32,30.24-16.96,124.49-38.42,180.46c17.56-11.71,28.3-53.41,31.23-70.48
				c6.2-36.17,11.16-76.01,13.62-112.57c0.24-3.61,0.34-10.14-3.97-11.26C1196.81,758.53,1197.11,763.77,1196.43,768.28z"/>
			<path class="st3" d="M1444.08,865.1c-7.8-4.39-44.78-15.61-59.5-7.32c-13.41,7.56-32.68,51.1-31.7,66.09
				c15.95-9.75,46.94-35.25,61.09-40.97c14.14-5.72,35.97-11.46,35.97-11.46L1444.08,865.1z"/>
			<path class="st3" d="M1476.27,673.42c-1.9-3.92-4.88,6.83-10.73,17.07c-5.85,10.24-26.34,59.02-30.24,69.75
				c-1.89,5.2-30.48,74.01-22.07,79.5c24.42,15.93,66.94,43.16,66.94,43.16C1492.85,833.39,1484.56,690.49,1476.27,673.42z"/>
			<path class="st3" d="M1462.43,306.53c-1.47,2.77-1,6.65-0.79,10.23c0.47,8.02-1.57,17.82-2.69,25.85
				c-1.45,10.42-6.3,24.13-11.34,33.29c-4.55,8.28-9.73,8.32-17.8,13.46c-4.86,3.09-7.02,3.21-11.91,6.24
				c-1.07,0.66-6.46,3.77-5.92,5.28c0.49,1.37,8.29,1.58,9.74,1.74c14.34,1.59,28.8,1.08,43.19,0.56c4.34-0.15,8.67-0.31,13.01-0.46
				c1.89-0.07,3.89-0.17,5.47-1.22c2.73-1.83,3.06-5.65,3.12-8.94c0.48-28.09,0.96-52.12,1.44-80.21c0.04-2.41,0-5.07-1.6-6.88
				c-1.04-1.18-2.56-1.79-4.07-2.22c-5.05-1.47-10.53-1.46-15.58,0.03C1464.51,303.91,1463.2,305.07,1462.43,306.53z"/>
			<path class="st3" d="M1158.57,957.04c2.02-0.35,4.05-0.44,6.09-0.2c11.62,1.38,31.87,3.72,36.48,16.86
				c0.54,1.53,0.58,3.17,0.59,4.79c0.16,17.13-1.93,34.31-6.34,50.87c-0.83,3.11-1.8,6.25-3.64,8.89
				c-10.4,14.89-38.44,4.77-50.17-2.66c-10.6-6.71-26.53-17.09-27.26-30.73c-0.65-12.12,6.6-25.12,16.35-32.04
				C1138.67,967.15,1148.41,958.8,1158.57,957.04z"/>
			<path class="st3" d="M1175.52,1051.66c-0.14,7.75-0.25,15.5-0.2,23.25c0.05,4.98,0.19,9.97,0.69,14.94
				c0.42,4.13,0.52,11.78,3.12,15.03c1.55,1.93,5.92-9.97,6.06-10.7c0.68-3.38,0.56-45.37,2.39-45.58
				C1183.51,1049.07,1179.39,1050.31,1175.52,1051.66z"/>
			<path class="st3" d="M1151.23,1051.03c-3.22,13.53-4.35,27.69-6.65,41.41c-0.75,4.49-1.51,8.98-2.21,13.48
				c-0.92,5.95-1.94,10.86-1.27,16.98c0.06,0.57,0.15,1.17,0.51,1.61c1.69,2.02,5.72-0.04,6.96-1.57c1.37-1.7,1.92-3.9,2.27-6.05
				c0.97-5.98,2.39-11.89,3.6-17.83c1.83-9.01,3.56-18.05,5.38-27.06c1.12-5.54,2.24-11.08,3.36-16.62c0.14-0.67,0.27-1.4-0.03-2.02
				C1162.55,1052.08,1151.27,1050.89,1151.23,1051.03z"/>
			<path class="st3" d="M1129.8,1045.02c-1.94,2.01-3.24,9.4-3.86,11.24c-1.68,5.04-3.47,10.04-5.31,15.02
				c-3.62,9.78-7.46,19.48-11.16,29.23c-2.47,6.5-5.71,12.78-5.62,19.91c0.05,3.81,4.76,1.93,6.76,0.99
				c6.39-3.02,7.2-8.04,9.6-13.96c1.86-4.58,3.76-9.14,5.67-13.69c5.94-14.12,11.96-28.18,18.73-41.92
				c0.25-0.51,0.51-1.04,0.57-1.61c0.52-5.06-11.37-5.59-14.35-5.71C1130.46,1044.5,1130.12,1044.69,1129.8,1045.02z"/>
			<path class="st3" d="M1112.93,1029.38c-3.44,2.89-10.71,19.33-11.99,21.68c-3.65,6.75-7.29,13.5-10.93,20.25
				c-2.94,5.45-8.7,12.6-9.38,18.88c-0.21,1.54-1.63,10.07,2.16,8.34c0.57-0.26,1-0.74,1.41-1.21c10-11.34,17.77-23.92,26.36-36.29
				c2.52-3.63,4.91-7.34,7.58-10.86c2.3-3.03,6.23-5.86,8.05-9.1c0.79-1.41,0.69-3.13,0.57-4.74c-0.04-0.58-0.09-1.18-0.4-1.67
				c-0.28-0.45-0.75-0.76-1.2-1.04c-3.47-2.12-7.27-3.7-11.22-4.66C1113.67,1028.89,1113.32,1029.05,1112.93,1029.38z"/>
			<path class="st3" d="M1110.14,978.74c-6.1,5.85-16.1,17.28-20.24,25.95c-4.15,8.68-21.95,12.09-22.19,17.46
				c-0.24,5.37-1.46,8.78,0.98,9.02c2.44,0.24,11.71,0.73,17.31-4.39s9.75-8.05,13.41-13.17c3.66-5.12,6.83-11.22,8.54-19.27
				c1.71-8.05,6.58-19.27,6.58-19.27L1110.14,978.74z"/>
			<path class="st3" d="M1661.5,1828.37c-7.32,0-76.09-1.46-78.53,4.39c-2.44,5.85-10.44,20,4.29,20c14.73,0,55.21-6.83,62.53-9.75
				s16.1-10.24,16.1-10.24L1661.5,1828.37z"/>
			<path class="st3" d="M1588.28,898.99c26.57,15.85,41.54,27.07,50.53,41.7s7.32,40.97-4.88,67.31
				c-12.19,26.34-37.56,55.85-50.72,55.85c-13.17,0-34.75,16.72-57.07,8.16c-19.37-7.43-11.87-20.81-13.85-38.33
				c-2.77-24.42-8.83-23-12.12-80.92c-0.79-13.94,2.38-37.19,6.28-44.99c3.9-7.8,11.89-17.8,15.3-22.19
				c3.41-4.39,5.61-14.03,34.14-1.46C1567.71,889.32,1571.28,888.85,1588.28,898.99z"/>
			<path class="st3" d="M1608.81,417.6c-13.17,13.9-28.08,68.54-36.58,97.3c-9.8,33.15-16.87,53.58-42.43,95.11
				c-17.19,27.93-16.1,46.09-19.75,43.16c-5.12-56.33-16.83-209.97,2.93-226.07s26.34-13.17,48.29-16.1S1608.81,417.6,1608.81,417.6
				z"/>
			<path class="st3" d="M1657.7,469.05c-15.41-8.51-31.43-15.99-47.83-22.37c-1.76-0.68-3.6-1.37-5.48-1.19
				c-8.62,0.79-12.39,27.57-13.95,33.76c-4.97,19.8-9.82,39.61-16.01,59.07c-7.54,23.7,27.49,3.66,34.39,0
				c11.22-5.96,22.02-10.42,31.31-19.56c11.16-10.97,16.7-25.49,23.06-39.45c2.15-4.71,3.05-5.41-1.66-8.11
				C1660.25,470.47,1658.98,469.76,1657.7,469.05z"/>
			<path class="st3" d="M1642.37,438.56c4.87-3.12,11.61-6.84,12.6-7.18c7.36-2.51,15.44-2.97,23.09-1.66
				c12.53,2.14,25.35,12.59,34.71,20.81c6.06,5.33,11.76,14.81,14.73,22.32c4.59,11.61,2.84,21.37,2.82,33.55
				c-0.03,14.4-0.06,28.8-0.08,43.2c0,0.11-15.08-6.05-16.48-6.84c-7.84-4.38-14.76-10.11-21.38-16.14
				c-5.79-5.28-13.58-12.47-13.58-20.98c0-12.83-3.01-25.78-9.96-36.67c-7.81-12.25-20.7-17.17-31.5-26.17
				C1636.83,442.36,1639.2,440.59,1642.37,438.56z"/>
			<path class="st3" d="M1658.28,508.91c-0.36,0.77-0.69,1.4-0.96,1.8c-4.67,6.88-10.66,12.81-17.22,17.88
				c-11.84,9.16-26.25,18.51-41.16,20.94c-8.6,1.4-11.61,2.41-13.9,3.69c-2.29,1.28,2.01,5.12,2.01,5.58
				c0,0.46,13.23,7.56,27.38,9.27c21.02,2.54,42.41-6.7,52.01-26.12c3.63-7.35,5.46-15.49,5.87-23.65
				c0.34-6.75,1.72-14.37-2.87-20.11C1664.91,492.53,1660.69,503.82,1658.28,508.91z"/>
			<path class="st3" d="M1681.24,526.61c49.49,35.12,48.77,57.55,44.38,86.33c-4,26.19-15.8-2.14-23.72-7.96
				c-5.76-4.24-11.61-8.31-17.28-12.69c-1.86-1.44-12.86-8.19-12.48-11.05C1672.46,578.8,1681.24,526.61,1681.24,526.61z"/>
			<path class="st3" d="M1673.93,591.72c9.94,8.32,19.72,16.92,28.98,26c9.29,9.11,11.23,15.68,11.4,28.95
				c0.23,19.14,5.97,37.6,8.83,56.4c1.45,9.55,2.21,19.28,0.97,28.89c-1.46,11.33-3.65,5.85-8.7,0.35
				c-2.56-2.79-5.07-5.61-7.42-8.58c-7.25-9.14-7.36-17.05-8.82-28.49c-1.6-12.53-11.21-17.1-16.83-28.53
				c-3.51-7.14-5.45-22.54-8.96-29.68c-7.3-14.84-9.28-31.8-4.21-47.51C1669.17,589.53,1673.92,591.72,1673.93,591.72z"/>
			<path class="st3" d="M1566.62,553.92c-7.8,14.42-24.39,54.42-30.24,65.63s-14.63,15.61-12.68,27.31s17.66,54.35,24.39,68.49
				c6.72,14.14,16.58,42.92,21.95,55.88c5.72,13.82,10.73,28.78,13.17,36.09c1.97,5.92,20.9-21.09,28.03-31.59
				c1.78-2.61,2.98-5.55,3.56-8.66c1.95-10.6,6.85-37.61,10.85-62.67c2.32-14.52,6.83-20.48,10.73-52.68
				c3.9-32.19,1.95-26.83,11.71-43.41c9.75-16.58,12.19-38.04,10.24-38.53c-13.17,9.75-27.19,9.53-36.85,11.22
				c-2.62,0.46-10.82,1.63-20.7-1.69c-16.4-5.51-18.92-8.29-22.33-14.63C1575.02,558.36,1566.62,553.92,1566.62,553.92z"/>
			<path class="st3" d="M1614.46,785.04c-1.35,0.4-2.57,1.32-3.83,2.72c-5.16,5.76-9.95,11.86-14.33,18.25
				c-4.11,6-9.66,13.07-11.27,20.31c-1.29,5.82,16.17,13.65,19.78,15.97c8.81,5.66,16.34,12.45,21.69,21.57
				c3.18,5.43,4.29,2.3,4.99-2.18c2.09-13.43,3.71-27.61,2.57-41.43c-0.97-11.65-2.66-29.87-14.92-34.77
				C1617.34,784.77,1615.83,784.63,1614.46,785.04z"/>
			<path class="st3" d="M1558.21,1086.77c-8.78,7.8-33.31,50.99-25.51,92.93c7.8,41.95-12.11-26.85-16.56-53.79
				c-3.52-21.3-5.71-37.56-1.71-41.09C1520.72,1079.27,1558.21,1086.77,1558.21,1086.77z"/>
			<path class="st3" d="M1663.68,1037.27c2.93,19.02-3.9,162.9-15.12,206.31c-11.22,43.41-8.67,17.07-6.29-4.39
				c2.38-21.46-4.44-76.57-5.42-96.08c-0.98-19.51,2.93-67.8,11.22-88.77s6.83-21.95,11.71-29.26
				C1664.66,1017.76,1663.68,1037.27,1663.68,1037.27z"/>
			<path class="st3" d="M1633.78,1305.03c5.06,24.84,7.95,68.77,10.39,70.72c-20.97-22.44-44.28-105.03-49.75-132.66
				c-5.41-27.29-5.49-117.12-7.93-131.75c-2.44-14.63,0.19-13.55,2.46-21.4c3.29-11.4,16.7-29.93,23.6-36.82
				C1638.89,1026.78,1618.32,1229.18,1633.78,1305.03z"/>
			<path class="st3" d="M1539.8,1180.17c0,25.85,23.41,93.16,21.95,123.4c-1.46,30.24,4.65,82.92,5.63,87.3
				c-10.24-23.9-15.11-75.6-15.6-100.96s-17.34-69.26-15.39-83.89C1538.33,1191.39,1539.8,1180.17,1539.8,1180.17z"/>
			<path class="st3" d="M1624.17,1365.76c39.51,46.09,29.63,159,23.05,189c-6.58,30-7.44,35.26-21.26,35.07
				c-5.42-0.07-17.64-7.75-15.45-32.63c2.19-24.87-0.49-93.82-0.49-121.45c0-16.1-4.39-94.52-4.39-94.52L1624.17,1365.76z"/>
			<path class="st3" d="M1598.48,1398.19c-5.47,57.07-1.14,128.23,0,149.73c1.08,20.48,2.11,39.95-7.64,41.9
				s-33.25-29.1-37.64-57.63c-3.49-22.68,2.62-71.08,6.58-92.55c5.62-30.42,12.62-41.46,20.21-57.07
				c7.59-15.61,14.78-33.17,16.06-40.48C1597.35,1334.79,1598.48,1398.19,1598.48,1398.19z"/>
			<path class="st3" d="M1620.99,1756.56c-5.36,23.9-4.1,34.69-14.39,36.82c-18.78,3.9-22.44-11.22-23.41-22.92
				c-0.98-11.71-6.34-16.58-6.34-16.58s0.18,43.41,2.44,54.14c1.95,9.27,1.86,14.86,11.86,14.86c14.07,0,24.12,2.33,31.06,0.02
				c7.85-2.62,4.77-35.27,5.85-50.48c1.25-17.56,2.07-21.09,1.09-25.48C1628.18,1742.54,1620.99,1756.56,1620.99,1756.56z"/>
			<path class="st3" d="M1623.78,1604.27c-6.63,0.17-12.14,5.21-12.96,11.79c-4.72,37.85-8.49,131.56-7.62,137.69
				c0.98,6.83,4.29,38.96,7.32,24.27c8.9-43.17,14.2-105.78,19.51-131.69c5.12-25,14.14-31.09,4.39-38.9
				C1629.44,1603.45,1630.32,1604.1,1623.78,1604.27z"/>
			<path class="st3" d="M1594.93,1609.38c8.14,9.27-0.52,172.45-1.97,172.56c-1.46,0.1-5.37-52.57-12.68-82.81
				c-7.32-30.24-7.59-79.86-7.56-79.99C1575.66,1607.44,1588.81,1605.19,1594.93,1609.38z"/>
			<path class="st3" d="M1576.32,1108.07c4.61,19.92,23.01,235,4.61,258.91c-7.8-13.17-13.53-128.27-31.34-174.61
				c-9.25-24.06,0.73-55.36,5.08-71.94c1.41-5.38,15.36-28.04,15.36-28.04L1576.32,1108.07z"/>
			<path class="st3" d="M1737.94,606.35c6.34,17.52,17.92,75.36,12.56,100.24c-1.26,5.83-5.82,18.42-9.93,6.56
				c-6.46-18.64-14.6-37.37-19.17-56.59C1718.39,643.91,1730.26,622.08,1737.94,606.35z"/>
			<path class="st3" d="M1759.42,722.64c-0.59,6.44-1.68,12.83-1.8,19.38c-0.23,12.56,4.01,38.75-7.91,47.7
				c-10.56-10-14.81-27.62-14-41.68c0.47-8.06,8.07-13.41,13.03-19.24c3.76-4.41,7.44-8.9,11.05-13.44
				C1759.79,717.8,1759.64,720.23,1759.42,722.64z"/>
			<path class="st3" d="M1779.76,736.82c3.9,32.68,22.44,180.22,34.63,211.92c0.98,15.12-45.91-77.73-51.4-108.64
				c-4.35-24.51,3.11-72.06,8.47-83.77C1776.84,744.63,1779.76,736.82,1779.76,736.82z"/>
			<path class="st3" d="M1728.79,768.53c4.63,3.66,7.25,9.67,7.47,10.25c21.97,57.32,30.92,101.62,57.16,152.41
				c1.75,3.39,5.15,12.9,9.27,14.13c-14.63-4.39-37.31-67.42-66.12-117.67c-6.26-10.92-23.87-54.73-25.33-60.58
				C1710.13,762.63,1724.92,765.47,1728.79,768.53z"/>
			<path class="st3" d="M1796.71,768.28c7.32,30.24,16.96,124.49,38.42,180.46c-17.56-11.71-28.3-53.41-31.23-70.48
				c-6.2-36.17-11.16-76.01-13.62-112.57c-0.24-3.61-0.34-10.14,3.97-11.26C1796.33,758.53,1796.03,763.77,1796.71,768.28z"/>
			<path class="st3" d="M1549.06,865.1c7.8-4.39,44.78-15.61,59.5-7.32c13.41,7.56,32.68,51.1,31.7,66.09
				c-15.95-9.75-46.94-35.25-61.09-40.97c-14.14-5.72-35.97-11.46-35.97-11.46L1549.06,865.1z"/>
			<path class="st3" d="M1516.87,673.42c1.9-3.92,4.88,6.83,10.73,17.07c5.85,10.24,26.34,59.02,30.24,69.75
				c1.89,5.2,30.48,74.01,22.07,79.5c-24.42,15.93-66.94,43.16-66.94,43.16C1500.29,833.39,1508.58,690.49,1516.87,673.42z"/>
			<path class="st3" d="M1530.71,306.53c1.47,2.77,1,6.65,0.79,10.23c-0.47,8.02,1.57,17.82,2.69,25.85
				c1.45,10.42,6.3,24.13,11.34,33.29c4.55,8.28,9.73,8.32,17.8,13.46c4.86,3.09,7.02,3.21,11.91,6.24
				c1.07,0.66,6.46,3.77,5.92,5.28c-0.49,1.37-8.29,1.58-9.74,1.74c-14.34,1.59-28.8,1.08-43.19,0.56
				c-4.34-0.15-8.67-0.31-13.01-0.46c-1.89-0.07-3.89-0.17-5.47-1.22c-2.73-1.83-3.06-5.65-3.12-8.94
				c-0.48-28.09-0.96-52.12-1.44-80.21c-0.04-2.41,0-5.07,1.6-6.88c1.04-1.18,2.56-1.79,4.07-2.22c5.05-1.47,10.53-1.46,15.58,0.03
				C1528.63,303.91,1529.94,305.07,1530.71,306.53z"/>
			<path class="st3" d="M1834.57,957.04c-2.02-0.35-4.05-0.44-6.09-0.2c-11.62,1.38-31.87,3.72-36.48,16.86
				c-0.54,1.53-0.58,3.17-0.59,4.79c-0.16,17.13,1.93,34.31,6.34,50.87c0.83,3.11,1.8,6.25,3.64,8.89
				c10.4,14.89,38.44,4.77,50.17-2.66c10.6-6.71,26.53-17.09,27.26-30.73c0.65-12.12-6.6-25.12-16.35-32.04
				C1854.47,967.15,1844.73,958.8,1834.57,957.04z"/>
			<path class="st3" d="M1817.62,1051.66c0.14,7.75,0.25,15.5,0.2,23.25c-0.05,4.98-0.19,9.97-0.69,14.94
				c-0.42,4.13-0.52,11.78-3.12,15.03c-1.55,1.93-5.92-9.97-6.06-10.7c-0.68-3.38-0.56-45.37-2.39-45.58
				C1809.63,1049.07,1813.75,1050.31,1817.62,1051.66z"/>
			<path class="st3" d="M1841.91,1051.03c3.22,13.53,4.35,27.69,6.65,41.41c0.75,4.49,1.51,8.98,2.21,13.48
				c0.92,5.95,1.94,10.86,1.27,16.98c-0.06,0.57-0.15,1.17-0.51,1.61c-1.69,2.02-5.72-0.04-6.96-1.57c-1.37-1.7-1.92-3.9-2.27-6.05
				c-0.97-5.98-2.39-11.89-3.6-17.83c-1.83-9.01-3.56-18.05-5.38-27.06c-1.12-5.54-2.24-11.08-3.36-16.62
				c-0.14-0.67-0.27-1.4,0.03-2.02C1830.59,1052.08,1841.88,1050.89,1841.91,1051.03z"/>
			<path class="st3" d="M1863.34,1045.02c1.94,2.01,3.24,9.4,3.86,11.24c1.68,5.04,3.47,10.04,5.31,15.02
				c3.62,9.78,7.46,19.48,11.16,29.23c2.47,6.5,5.71,12.78,5.62,19.91c-0.05,3.81-4.76,1.93-6.76,0.99
				c-6.39-3.02-7.2-8.04-9.6-13.96c-1.86-4.58-3.76-9.14-5.67-13.69c-5.94-14.12-11.96-28.18-18.73-41.92
				c-0.25-0.51-0.51-1.04-0.57-1.61c-0.52-5.06,11.37-5.59,14.35-5.71C1862.68,1044.5,1863.02,1044.69,1863.34,1045.02z"/>
			<path class="st3" d="M1880.22,1029.38c3.44,2.89,10.72,19.33,11.99,21.68c3.65,6.75,7.29,13.5,10.93,20.25
				c2.94,5.45,8.7,12.6,9.38,18.88c0.21,1.54,1.63,10.07-2.16,8.34c-0.57-0.26-1-0.74-1.41-1.21c-10-11.34-17.77-23.92-26.36-36.29
				c-2.52-3.63-4.91-7.34-7.58-10.86c-2.3-3.03-6.23-5.86-8.05-9.1c-0.79-1.41-0.69-3.13-0.57-4.74c0.04-0.58,0.09-1.18,0.4-1.67
				c0.28-0.45,0.75-0.76,1.2-1.04c3.47-2.12,7.27-3.7,11.22-4.66C1879.47,1028.89,1879.82,1029.05,1880.22,1029.38z"/>
			<path class="st3" d="M1883,978.74c6.1,5.85,16.1,17.28,20.24,25.95c4.15,8.68,21.95,12.09,22.19,17.46
				c0.24,5.37,1.46,8.78-0.98,9.02c-2.44,0.24-11.71,0.73-17.31-4.39s-9.75-8.05-13.41-13.17c-3.66-5.12-6.83-11.22-8.54-19.27
				c-1.71-8.05-6.58-19.27-6.58-19.27L1883,978.74z"/>
		</g>
	</g>
	<g id="Posterior_Body">
		<path class="st1" d="M936.23,1021.96c-2.44-2.56-15.49-10.97-18.66-14.27c-3.17-3.29-3.17-5.85-11.95-20.97
			c-8.78-15.12-41.52-28.53-45.18-29.26c-3.66-0.73-10.79-9.69-12.62-14.63c-7.54-20.36-25.24-89.99-32.92-152.17
			c-7.68-62.19-36.58-97.3-52.31-118.89c0.73-59.63-12.94-72.05-20.49-91.08c0.73-15,5.94-47.59,2.42-90.43
			c-2.79-33.94-45.22-74.42-71.56-78.08c-17.06-2.37-26.46,1.71-48.53,0c-22.07-1.71-63.41-38.78-65.6-43.16
			c-2.19-4.39-6.83-40.97-3.41-45.6c3.41-4.63,3.9-0.24,7.32-9.75c3.41-9.51,1.57-26.61,1.57-26.61s0.91-3.65,1.54-1.13
			c0.37,1.46,1.1,2.99,2.74,3.84c2.55,1.32,5.73-4.84,9.08-10.67c8.91-15.51,17.26-45.11,4.94-48.83c-2.24-0.68-5.49,5.12-5.49,5.12
			c0-2.93,2.93-30-1.46-46.82c-3.52-13.48-16.68-26.95-27.07-35.12c-12.69-9.97-38.58-10.68-45.03-10.73v0c-0.13,0-0.37,0-0.57,0
			c-0.2,0-0.44,0-0.57,0v0c-6.45,0.05-32.33,0.75-45.03,10.73c-10.39,8.16-23.55,21.64-27.07,35.12
			c-4.39,16.83-1.46,43.9-1.46,46.82c0,0-3.24-5.8-5.49-5.12c-12.32,3.72-3.97,33.32,4.94,48.83c3.35,5.83,6.53,11.99,9.08,10.67
			c1.65-0.85,2.38-2.38,2.74-3.84c0.63-2.52,1.54,1.13,1.54,1.13s-1.84,17.1,1.57,26.61c3.41,9.51,3.9,5.12,7.32,9.75
			c3.41,4.63-1.22,41.21-3.41,45.6c-2.19,4.39-43.53,41.46-65.6,43.16c-22.07,1.71-31.47-2.37-48.53,0
			c-26.34,3.66-68.77,44.14-71.56,78.08c-3.52,42.85,1.69,75.44,2.42,90.43c-7.54,19.04-21.22,31.46-20.49,91.08
			c-15.73,21.58-44.63,56.7-52.31,118.89c-7.68,62.19-25.38,131.81-32.92,152.17c-1.83,4.94-8.96,13.9-12.62,14.63
			c-3.66,0.73-36.4,14.14-45.18,29.26c-8.78,15.12-8.78,17.68-11.95,20.97c-3.17,3.29-16.22,11.71-18.66,14.27
			c-2.44,2.56-4.15,12.19,2.68,13.78c6.83,1.59,25.09-2.38,31.03-15.73c7.13-4.66,8.87-4.76,8.87-4.76s2.41,7.32,2.04,13.17
			c-0.37,5.85-12.38,23.78-17.13,34.39c-4.76,10.61-19.02,30.18-15.18,35.67c3.84,5.49,9.33,4.57,11.71,2.74
			c2.38-1.83,15.91-24.78,18.56-28.81c3.02-3.93,14.36-18.56,16.37-20.76c-3.23,13.35-8.47,29.08-10.55,35.3
			c-2.07,6.22-11.74,24.94-11.83,31.34c-0.12,8.9,6.02,10.87,10.12,8.17c11.46-7.56,17.9-26.93,20.73-32.56
			c4.79-9.53,10-26.46,14.88-34.26c-1.22,9.51-4.2,22.62-5.79,33.71c-0.81,5.61-5.73,34.5,0.55,36.4
			c9.69,2.93,10.97-8.23,14.81-21.4c3.84-13.17,8.6-45.73,11.52-50.66c4.39,0.91,3.73,4.02,4.57,12.8
			c1.11,11.54,0.18,40.24,8.6,40.24s9.02-28.9,10.12-46.46c1.1-17.56,6.83-26.83,9.75-41.21c2.93-14.39,9.74-34.38,9.27-51.21
			c-0.22-7.82-3.54-14.75,3.17-39.75c4.11-15.34,55.85-116.57,61.66-126.08c6.3-10.3,18.08-40.97,21.01-64.38
			c2.93-23.41,2.44-24.39,3.9-35.6c1.46-11.22,6-16.16,11.71-22.92c6.58-7.8,16.1-30.97,23.41-62.55c3.41-0.12,4.46-2.94,6.1-1.83
			c0,0,4.39,49.99,13.41,63.89c9.02,13.9,6.34,19.02,8.29,24.14c1.95,5.12,0.98,38.53-0.49,57.06c-1.46,18.53-5.73,83.16-9.75,98.52
			c-4.02,15.36-9.02,21.95-12.93,41.46c-3.9,19.51-10.12,45.05-11.46,69.01c0,0-8.2,56.88-7.44,78.28
			c0.81,22.93-5.12,178.88,27.8,216.92c-1.59,7.44-0.12,20.36,0.12,24.26c0.24,3.9-9.27,44.38-5.61,71.45
			c3.66,27.07,2.19,17.68,1.46,24.45c-0.73,6.77-30,97.49,13.9,264.54c2.62,9.98,3.66,30.12,3.66,40.73
			c0,10.61-3.66,31.46-3.66,41.34c0,9.88-0.37,14.63,1.83,20.85c2.19,6.22,1.83,16.46,0.37,24.14
			c-1.46,7.68-31.09,28.53-33.65,39.87c-2.56,11.34-5.85,17.92-1.1,21.22c4.76,3.29,6.95,0,6.95,0s-1.83,5.49,1.1,8.41
			c2.93,2.93,11.71,2.56,11.71,2.56s2.93,0.73,4.76,3.66c1.83,2.93,9.51,4.39,11.34,2.56c1.83-1.83,2.93-1.68,4.39,0.81
			c0.79,1.34,4.04,2.92,6.86,4.09c2.71,1.12,5.79,0.88,8.29-0.66l5.7-3.51c0,0,4.76,5.49,5.85,5.85c1.1,0.37,12.44,4.39,15.36,0
			c2.93-4.39,16.83-15,16.1-27.44c-0.73-12.44-1.83-19.39-1.46-23.78c0.37-4.39,1.46-10.97,3.29-17.56
			c1.83-6.58,4.02-9.51,2.56-21.95c-1.46-12.44-0.37-13.17-0.37-15.36c0-2.19,1.83-8.05,2.19-14.63c0.37-6.58-4.76-20.12-4.76-20.12
			s-2.2-13.17-3.29-31.09c-1.1-17.92,2.56-88.52,9.88-111.94c7.32-23.41,11.61-30.74,12.44-36.58
			c8.78-61.82-5.48-128.38-8.05-151.93c-1.46-13.41,4.39-14.88,8.05-28.41c3.66-13.53,6.58-47.19,2.56-62.19
			c-2.95-11,10.24-51.21,12.07-63.65c1.83-12.44,26.95-108.64,28.29-125.84c1.34-17.19,3.05-70.52-1.46-78.57
			c2.15,0,8.3,4.27,10.93,5.02c0.11,0.1,0.3,0.12,0.53,0.1c0.23,0.02,0.42,0,0.53-0.1c2.62-0.74,8.78-5.02,10.93-5.02
			c-4.51,8.05-2.8,61.37-1.46,78.57c1.34,17.19,26.46,113.4,28.29,125.84c1.83,12.44,15.02,52.65,12.07,63.65
			c-4.02,15-1.1,48.65,2.56,62.19c3.66,13.53,9.51,15,8.05,28.41c-2.57,23.55-16.83,90.11-8.05,151.93
			c0.83,5.84,5.12,13.17,12.44,36.58c7.32,23.41,10.97,94.01,9.88,111.94c-1.1,17.92-3.29,31.09-3.29,31.09s-5.12,13.53-4.76,20.12
			c0.37,6.58,2.2,12.44,2.2,14.63c0,2.19,1.1,2.93-0.37,15.36c-1.46,12.44,0.73,15.36,2.56,21.95c1.83,6.58,2.93,13.17,3.29,17.56
			c0.37,4.39-0.73,11.34-1.46,23.78c-0.73,12.44,13.17,23.05,16.1,27.44c2.93,4.39,14.27,0.37,15.36,0c1.1-0.37,5.85-5.85,5.85-5.85
			l5.7,3.51c2.5,1.54,5.58,1.78,8.29,0.66c2.82-1.17,6.07-2.75,6.86-4.09c1.46-2.49,2.56-2.64,4.39-0.81
			c1.83,1.83,9.51,0.37,11.34-2.56c1.83-2.93,4.76-3.66,4.76-3.66s8.78,0.37,11.71-2.56c2.93-2.93,1.1-8.41,1.1-8.41
			s2.19,3.29,6.95,0c4.76-3.29,1.46-9.88-1.1-21.22c-2.56-11.34-32.19-32.19-33.65-39.87c-1.46-7.68-1.83-17.92,0.37-24.14
			c2.19-6.22,1.83-10.97,1.83-20.85c0-9.88-3.66-30.73-3.66-41.34c0-10.61,1.03-30.74,3.66-40.73
			c43.9-167.05,14.63-257.77,13.9-264.54c-0.73-6.77-2.2,2.62,1.46-24.45c3.66-27.07-5.85-67.55-5.61-71.45
			c0.24-3.9,1.71-16.83,0.12-24.26c32.92-38.04,26.99-193.99,27.8-216.92c0.76-21.4-7.44-78.28-7.44-78.28
			c-1.34-23.97-7.56-49.51-11.46-69.01c-3.9-19.51-8.9-26.09-12.93-41.46c-4.02-15.36-8.29-79.99-9.75-98.52
			c-1.46-18.53-2.44-51.94-0.49-57.06c1.95-5.12-0.73-10.24,8.29-24.14c9.02-13.9,13.41-63.89,13.41-63.89
			c1.64-1.11,2.68,1.71,6.1,1.83c7.32,31.58,16.83,54.75,23.41,62.55c5.71,6.76,10.24,11.71,11.71,22.92
			c1.46,11.22,0.98,12.19,3.9,35.6c2.93,23.41,14.71,54.08,21.01,64.38c5.82,9.51,57.55,110.74,61.66,126.08
			c6.71,25,3.39,31.93,3.17,39.75c-0.47,16.84,6.34,36.82,9.27,51.21c2.93,14.39,8.66,23.66,9.75,41.21
			c1.1,17.56,1.71,46.46,10.12,46.46c8.41,0,7.49-28.7,8.6-40.24c0.84-8.79,0.18-11.89,4.57-12.8c2.93,4.94,7.68,37.49,11.52,50.66
			c3.84,13.17,5.12,24.33,14.82,21.4c6.28-1.89,1.36-30.79,0.55-36.4c-1.6-11.1-4.57-24.2-5.79-33.71
			c4.88,7.8,10.08,24.74,14.88,34.26c2.83,5.63,9.27,25,20.73,32.56c4.1,2.7,10.24,0.73,10.12-8.17
			c-0.09-6.4-9.75-25.12-11.83-31.34c-2.07-6.22-7.32-21.95-10.55-35.3c2.01,2.19,13.35,16.83,16.37,20.76
			c2.65,4.02,16.19,26.98,18.56,28.81c2.38,1.83,7.86,2.74,11.71-2.74c3.84-5.49-10.43-25.06-15.18-35.67
			c-4.76-10.61-16.77-28.53-17.13-34.39c-0.37-5.85,2.04-13.17,2.04-13.17s1.74,0.09,8.87,4.76c5.94,13.35,24.2,17.31,31.03,15.73
			C940.38,1034.16,938.67,1024.53,936.23,1021.96z"/>
		<path class="st2" d="M551.47,142.7c-15.56-5.59-30.2-10.65-48.53-9.1c-18.33-1.56-32.97,3.5-48.53,9.1
			c-24.2,8.7-31.43,41.17-30.93,64.6c0,9.67,2.51,19.29,4.65,28.65c2.19,9.6,3.4,19.01,4.47,28.8c0.08,0.73,0.2,1.54,0.79,1.98
			c1.39,1.05,2.99-1.1,3.29-2.82c1.38-7.81,1.68-15.46,1.68-23.52c-0.04-35.19,10.94-17.15,12.78-50.26
			c0.47-8.49,4.45-14.31,13.84-13.86c12.95,0.62,25.3-0.72,37.98-3.05c12.68,2.33,25.03,3.67,37.97,3.05
			c9.39-0.45,13.37,5.37,13.84,13.86c1.84,33.11,12.81,15.07,12.78,50.26c-0.01,8.06,0.3,15.71,1.68,23.52
			c0.3,1.72,1.9,3.87,3.29,2.82c0.58-0.44,0.71-1.25,0.79-1.98c1.07-9.79,2.28-19.2,4.47-28.8c2.14-9.37,4.65-18.98,4.65-28.65
			C582.9,183.87,575.67,151.4,551.47,142.7z"/>
		<g>
			<path class="st3" d="M352.96,505.01c-2.35,31.47,5.9,69.53,31.23,84.64c9.3,5.55,20.1,7.97,30.71,10.11
				c33.33,6.72,73.63-9.88,76.89-40.34c3.49-32.59,8.45-71.6-6.18-100.13c-9.73-18.98-19.14-19.02-29.75-20.12
				c-10.61-1.1-43.41-2.19-56.22,3.66c-16.64,7.61-36.25,18.66-42.1,37.07C355.23,487.23,353.64,495.84,352.96,505.01z"/>
			<path class="st3" d="M363.19,577.82c10.24,12.07,25.49,20.52,34.26,25.01c4.43,2.27,4.88,10.84,1.22,11.93
				c-3.66,1.1-33.65-9.6-37.31-16.32c-3.66-6.72-4.76-16.6-4.02-20.62C358.07,573.8,363.19,577.82,363.19,577.82z"/>
			<path class="st3" d="M352.98,606.15c-0.14,0.81-0.12,1.63,0.09,2.42c3.4,12.63,15.42,33.77,20.24,36.18
				c2.93,1.46,16.46-13.17,18.29-14.27c1.83-1.1,5.85-6.58,5.85-6.58s-29.07-10.51-34.6-15.55c-1.96-1.78-8.29-11.64-8.29-11.64
				L352.98,606.15z"/>
			<path class="st3" d="M355.02,629.4c0,0-2.56,19.39,4.39,34.02c6.95,14.63,9.88,16.46,9.88,16.46s8.78-23.41,5.12-27.07
				C370.75,649.15,355.02,629.4,355.02,629.4z"/>
			<path class="st3" d="M374.87,723.96c4.63,7.07,35.33,30.18,38.5,34.08c3.17,3.9-0.03,27.74,1.04,37.07
				c-12.19-2.93-38.09-24.26-39.8-32.56C372.9,754.26,374.87,723.96,374.87,723.96z"/>
			<path class="st3" d="M373.31,685.77c1.71,1.83,28.72,24.51,40,29.82c4.83,2.28,1.09,37.49,1.09,37.49s-33.37-26.9-38.4-34.95
				c-5.04-8.05-3.11-13.22-3.6-16.64S373.31,685.77,373.31,685.77z"/>
			<path class="st3" d="M430.01,617.69c-6.53,4.43-6.58,17.19-7.68,22.31c-1.1,5.12,2.56,28.17,2.56,28.17s3.66,18.29,5.12,20.49
				c1.83,2.74,49.91-28.36,54.53-31.23c3.9-2.41,8.94-2.36,10.76-7.45c3-8.37,1.43-18.59,1.06-27.39
				c-0.32-7.74,0.14-24.23-7.26-29.08c-6.63-4.35-15.58,3.13-21.5,5.74c-10.21,4.51-20.44,9.06-30.33,14.26
				C434.81,614.8,432.33,616.12,430.01,617.69z"/>
			<path class="st3" d="M489.71,666.92c-4.91,1.18-5.78,2.83-10.5,5.1c-5.83,2.81-11.58,5.81-17.24,8.95
				c-8.79,4.86-19.61,9.91-26.55,17.39c-0.27,0.29-0.53,0.58-0.77,0.9c-5.61,7.56-5.85,33.17-5.37,34.87
				c0.49,1.71,63.79,6.71,66.94-2.32c2.66-7.63,0.62-15.72,0.91-23.67c0.42-11.48,1.05-25.16-0.18-35.41
				C496.85,671.9,492.02,666.37,489.71,666.92z"/>
			<path class="st3" d="M429.11,749.99c-3.98,11.71-1.78,41.46,3.09,45.6c4.88,4.15,56.09,3.96,61.45,3.71
				c5.36-0.24,5.03-25.91,5.12-34.2c0.09-8.29,0.65-22.39-2.52-23.61c-3.17-1.22-26.25-1.02-33.33,1.66
				C455.86,745.85,429.11,749.99,429.11,749.99z"/>
			<path class="st3" d="M429.11,809.01c1.14,18.05,12.42,165.73,56.66,176.14c4.15,0.98,8.57,5.44,9.82,3
				c3.29-7.8,3.29-164.5,3.29-171.33c0-6.83-10.46-7.53-15.83-8.99c-5.36-1.46-48.72-2.71-51.33-0.76
				C429.11,809.01,429.11,809.01,429.11,809.01z"/>
			<path class="st3" d="M374.43,773.85c0.28-0.68,1.18-0.79,1.69-0.26c20.6,21.53,35.02,28.05,39.02,31.28
				c3.78,3.05,4.88,69.99,9.27,86.57c1.98,7.46,5.77,14.89,2.46,16.5c-4.39,2.13-15.96-3.21-19.26-6.8l-39.29-42.86
				C368.31,858.27,369.19,786.7,374.43,773.85z"/>
			<path class="st3" d="M408.07,624.64c-16.58,14.14-23.95,20.89-25.73,24.02c-1.98,3.48,22.56,23.29,29.14,25.48
				c6.58,2.19,2.93-18.05,2.93-23.66c0-5.61,0.49-27.56,0-29.02C413.92,620.01,408.07,624.64,408.07,624.64z"/>
			<path class="st3" d="M380.18,661.98c0.44-1.39,2.17-1.87,3.23-0.87c7.58,7.16,28.49,17.87,29.68,21.69
				c0.92,2.97,2.9,24.6,0.22,25.33c-2.68,0.73-39.36-24.69-38.9-27C375.02,678.07,378.46,667.44,380.18,661.98z"/>
			<path class="st3" d="M455.98,330.9c16.46,13.29,16.78,27.82,24.02,42.31c20.85,41.7,13.26,66.86,8.42,61.68
				c-14.1-15.1-28.78-63.39-30.98-67.41C455.25,363.46,455.98,330.9,455.98,330.9z"/>
			<path class="st3" d="M453.45,391.38c-1.95,15.12-0.75,20.12,2.42,28.17c3.17,8.05,20.97,16.46,22.67,17.68
				c-9.63-23.05-18.53-38.9-22.67-53.29C452.45,384.68,453.45,391.38,453.45,391.38z"/>
			<path class="st3" d="M441.23,388.58c-8.29,10-39.75,30.67-48.53,33.41c-1.46,5.67,44.63,10.85,50.48,6.22
				c5.85-4.63,5.85-34.51,4.88-39.63C447.08,383.46,441.23,388.58,441.23,388.58z"/>
			<path class="st3" d="M384.79,442.47c-4.4,2.87-10.44,4.19-15.21,6.39c-14.07,6.48-27.13,13.52-26.99,30.78
				c0.1,13.43,1.71,27.98-5.56,39.27c-4.63,7.19-10.74,13.22-16.16,19.79c-5.36,6.49-8.52,12.38-17.65,7.61
				c-21.42-11.2-36.22-33.2-34.33-57.85c1.05-13.63,7.23-26.79,16.93-36.4c10.77-10.67,21.24-21.16,35.15-27.91
				c19.07-9.25,40.29-5.85,57.48,6C384.65,434.43,384.79,442.47,384.79,442.47z"/>
			<path class="st3" d="M321.12,587.8c-8.96,33.34-43.46,107.59-44.03,109.34c-1.37,4.27,1.32,9.91,4.82,12.46
				c5.48,3.99,11.25-4.45,14.21-8.1c20-24.67,37.66-71.08,40.48-82.46c3.38-13.64,14.14-32.92,9.75-55.85
				c-4.39-22.92-8.29-33.65-10.24-31.21c-2.57,3.22-3.13,9.96-4.13,13.81c-2.7,10.4-4.13,21.16-7.08,31.41
				C323.88,580.79,322.1,584.15,321.12,587.8z"/>
			<path class="st3" d="M288.08,562.13c-11.35,5.85-30.59,39.29-33.29,55.97c-5,30.94-3.48,47.8-3.78,56.94
				c-0.3,9.14,16.1,7.32,29.75-5.12c8.51-7.75,31.39-59.75,26.83-85.44C304.26,565.73,298.32,557.74,288.08,562.13z"/>
			<path class="st3" d="M245.89,688.74c12.24-6.09,6.29,74.05-2.19,95.15c-9.02,22.44-20.8,52.33-32.19,79.74
				c-6.81,16.39-26.09,75.84-34.39,79.74c-8.29,3.9-0.49-35.36,3.41-50.97c3.9-15.61,15.12-80.51,18.53-92.69
				c3.41-12.18,0.98-46.12,9.75-58.66C217.6,728.53,227.85,697.73,245.89,688.74z"/>
			<path class="st3" d="M279.18,729.02c6.34,23.9-3.6,46.64-8.47,60.78c-4.88,14.14-14.45,27.98-23.23,41.64
				c-8.78,13.66-32.96,70.49-38.65,85.6c-13.65,36.21-20.24,25.85-14.88,12.19c5.37-13.66,15.49-44.63,21.83-59.26
				c6.34-14.63,8.17-23.3,15.73-39.87c7.44-16.3,15.97-33.78,21.34-48.41c5.37-14.63,7.8-50.24,16.58-52.68
				C278.21,726.58,279.18,729.02,279.18,729.02z"/>
			<path class="st3" d="M256.99,829.67c-10.77,13.66-19.1,31.59-24.51,44.2c-4.99,11.65-9.79,23.4-14.43,35.19
				c-4.3,10.93-8.69,21.93-12.06,33.2c-0.56,1.88-2.23,4.64-1.44,6.61c2.02-1.64,3.01-4.16,4.28-6.34c1.34-2.3,2.61-4.64,3.83-7
				c2.9-5.58,5.58-11.27,8.19-16.99c5.92-12.98,11.45-26.13,17.14-39.22c4.89-11.24,9.73-22.6,15.64-33.36
				c0.29-0.53,0.59-1.07,0.89-1.6c14.14-24.87,18.53-31.7,24.39-46.33c5.85-14.63,18.53-38.53,16.58-42.92
				c-1.36-3.06-6.26-7.95-8.4-9.51c-0.75-0.54-1.39,4.2-1.46,5.12C283.33,781.2,266.74,817.31,256.99,829.67z"/>
			<path class="st3" d="M389.04,1315.64c7.68,0,33.3,1.83,36.22,4.76c2.92,2.93,8.41,43.53-7.69,65.48
				c-16.1,21.95-30,10.61-34.39-2.19c-4.39-12.8-17.92-48.65-12.8-59.63C375.51,1313.08,389.04,1315.64,389.04,1315.64z"/>
			<path class="st3" d="M437.69,1340.52c-5.49,25.24-9.12,36.21-26.34,70.23c-14.11,27.89-19.04,53.77-12.45,53.04
				c6.59-0.73,30.37-55.65,34.03-65.85c3.66-10.21,14.67-41.47,15.55-47.91c1.24-9.09-1.65-15-3.84-17.56
				C442.45,1329.91,437.69,1340.52,437.69,1340.52z"/>
			<path class="st3" d="M435.62,1415.26c-6.34,19.51-28.78,49.75-30.24,68.77c-1.46,19.02,13.32,140.71,11.71,155.83
				c5.94-10.32,13.4-58.05,23.9-83.16c6.47-15.46,11.4-36.05,0-105.35C437.66,1431.14,435.62,1415.26,435.62,1415.26z"/>
			<path class="st3" d="M369.25,1359.9c8.09,54.87,35.16,185.83,38.09,244.36c2.93,58.53,0.73,50.85-1.83,55.6
				c-2.56,4.76-25.97-60.24-33.29-96.82s-16.1-125.84-12.68-159.98c3.41-34.14,1.95-60.48,5.37-59.02
				C368.31,1345.52,369.25,1359.9,369.25,1359.9z"/>
			<path class="st3" d="M348.32,1423.55c-3.41,39.99-1.95,114.62,3.41,145.83c5.37,31.22,21.95,94.13,23.41,104.86
				s-3.41,22.92,0,26.83c3.41,3.9,15.12-20.48,13.17-40.97c-1.95-20.49-16.74-72.68-20.81-93.16
				c-4.07-20.48-14.31-72.18-13.82-90.23c0.49-18.05,0.49-40.97,1.46-59.02c0.98-18.05,3.41-25.36,0-25.36
				C351.73,1392.34,348.32,1423.55,348.32,1423.55z"/>
			<path class="st3" d="M373.58,1746.92c9.11,16.7,40.97,23.9,45.36,39.99c6.83-6.34,12.19-32.19,8.78-46.82
				c-3.41-14.63-6.34-25.36-9.75-30.24c-3.41-4.88-4.41-7.32-7.8-12.19c-3.04-4.36-13.41-15.3-21.22-6.52
				c-7.8,8.78-6.44,12.86-8.22,24.57S370.66,1741.56,373.58,1746.92z"/>
			<path class="st3" d="M401.11,1672.66c17.92,16.22,22.68,39.51,22.68,33.65s1.1-22.31-5.49-29.63s-10.17-8.41-14.41-8.41
				S401.11,1672.66,401.11,1672.66z"/>
			<path class="st3" d="M379.17,1773.26c-5.49,14.27-36.21,48.9-39.87,55.85c-3.66,6.95,20.97,14.14,26.09,14.14
				c5.12,0,20.97,3.05,24.63,4.88s4.51-11.58,4.88-15.97c0.37-4.39,13.97-26.34,9-36.95c-4.97-10.61,7.34-7.32-3.02-13.9
				C390.51,1774.72,379.17,1773.26,379.17,1773.26z"/>
			<path class="st3" d="M407.82,1805.08c0,8.41-0.29,18.66-5.27,31.09c-4.97,12.44,1.1,16.1,2.63,15.36
				c1.54-0.73,12.14-2.93,12.14-2.93s4.02-6.58,2.93-10.61c-1.1-4.02,9.75-15.63,3.9-25.24c-5.85-9.61-7.34-20.61-8.78-23.9
				C413.94,1785.58,407.82,1805.08,407.82,1805.08z"/>
			<path class="st3" d="M164.59,957.04c2.02-0.35,4.05-0.44,6.09-0.2c11.62,1.38,31.87,3.72,36.48,16.86
				c0.54,1.53,0.58,3.17,0.59,4.79c0.16,17.13-1.93,34.31-6.34,50.87c-0.83,3.11-1.79,6.25-3.64,8.89
				c-10.4,14.89-38.44,4.77-50.17-2.66c-10.6-6.71-26.53-17.09-27.26-30.73c-0.65-12.12,6.6-25.12,16.35-32.04
				C144.68,967.15,154.42,958.8,164.59,957.04z"/>
			<path class="st3" d="M181.54,1051.66c-0.14,7.75-0.25,15.5-0.2,23.25c0.05,4.98,0.19,9.97,0.69,14.94
				c0.42,4.13,0.52,11.78,3.12,15.03c1.55,1.93,5.91-9.97,6.06-10.7c0.68-3.38,0.56-45.37,2.39-45.58
				C189.52,1049.07,185.4,1050.31,181.54,1051.66z"/>
			<path class="st3" d="M157.25,1051.03c-3.22,13.53-4.35,27.69-6.65,41.41c-0.75,4.49-1.51,8.98-2.21,13.48
				c-0.92,5.95-1.94,10.86-1.27,16.98c0.06,0.57,0.15,1.17,0.51,1.61c1.69,2.02,5.72-0.04,6.96-1.57c1.37-1.7,1.92-3.9,2.27-6.05
				c0.97-5.98,2.39-11.89,3.6-17.83c1.83-9.01,3.56-18.05,5.38-27.06c1.12-5.54,2.24-11.08,3.36-16.62c0.14-0.67,0.27-1.4-0.03-2.02
				C168.56,1052.08,157.28,1050.89,157.25,1051.03z"/>
			<path class="st3" d="M135.81,1045.02c-1.94,2.01-3.24,9.4-3.86,11.24c-1.68,5.04-3.47,10.04-5.31,15.02
				c-3.62,9.78-7.46,19.48-11.16,29.23c-2.47,6.5-5.71,12.78-5.62,19.91c0.05,3.81,4.76,1.93,6.76,0.99
				c6.39-3.02,7.2-8.04,9.6-13.96c1.86-4.58,3.76-9.14,5.67-13.69c5.94-14.12,11.96-28.18,18.73-41.92
				c0.25-0.51,0.51-1.04,0.57-1.61c0.52-5.06-11.37-5.59-14.35-5.71C136.47,1044.5,136.13,1044.69,135.81,1045.02z"/>
			<path class="st3" d="M118.94,1029.38c-3.44,2.89-10.71,19.33-11.99,21.68c-3.65,6.75-7.29,13.5-10.93,20.25
				c-2.94,5.45-8.7,12.6-9.38,18.88c-0.21,1.54-1.63,10.07,2.16,8.34c0.57-0.26,1-0.74,1.41-1.21c10-11.34,17.77-23.92,26.36-36.29
				c2.52-3.63,4.91-7.34,7.58-10.86c2.3-3.03,6.23-5.86,8.05-9.1c0.79-1.41,0.69-3.13,0.57-4.74c-0.04-0.58-0.09-1.18-0.4-1.67
				c-0.28-0.45-0.75-0.76-1.2-1.04c-3.47-2.12-7.27-3.7-11.22-4.66C119.68,1028.89,119.34,1029.05,118.94,1029.38z"/>
			<path class="st3" d="M116.16,978.74c-6.1,5.85-16.1,17.28-20.24,25.95c-4.15,8.68-21.95,12.09-22.19,17.46
				c-0.24,5.37-1.46,8.78,0.98,9.02c2.44,0.24,11.71,0.73,17.31-4.39c5.61-5.12,9.75-8.05,13.41-13.17
				c3.66-5.12,6.83-11.22,8.54-19.27c1.71-8.05,6.58-19.27,6.58-19.27L116.16,978.74z"/>
			<path class="st3" d="M502.75,342.98c0.41,19.02,2.78,50.97,0.26,58.04c-2.52,7.07-8.54-18.05-16.75-35.36
				c-8.2-17.31-5.11-10.81-7.31-18.62c-2.19-7.8-15.04-7.07-6.26-7.8S502.75,342.98,502.75,342.98z"/>
			<path class="st3" d="M400.62,906.97c15.01,11.22,61.83,70.72,77.09,145.35c0,0-7.99,26.72-18.7,24.39
				c-2.38-0.52-36.79-110.11-64.23-160.95c-7.86-14.58-8.41-22.31-8.41-22.31L400.62,906.97z"/>
			<path class="st3" d="M378.07,907.41c18.64,62.06,80.68,297.68,79.56,334.34c18.64-53.35,3.35-123.52-19.57-190.95
				C418.89,994.41,378.07,907.41,378.07,907.41z"/>
			<path class="st3" d="M368.31,920.7c11.71,54.59,51.72,142.56,56.79,218.75c4.89,73.42-3.75,147.8-17.41,153.65
				c-13.66,5.85-36.87-90.8-40.85-107.07c-10.09-41.27-32.29-116.65-29.85-155.59c2.11-33.61,7.77-51.23,12.29-66.82
				C355.37,942.67,368.31,920.7,368.31,920.7z"/>
			<path class="st3" d="M342.22,1109.21c2.44,21.95,17.19,93.77,35.85,140.22c8.69,21.64,11.22,44.87,4.39,52.19
				c-6.83,7.32-14.63-33.17-25.36-50.24c-10.73-17.07-19.69-72.17-20.28-94.38c-0.77-28.98-5.57-51.7-3.13-59.5
				C336.12,1089.7,342.22,1109.21,342.22,1109.21z"/>
			<path class="st3" d="M430.53,1156.27c7.53,84.01-13.38,124.86-2.23,142.42c11.15,17.56,19.91,9.94,18.53,0.24
				c-2.44-17.21,10.61-45.2,0-94.86C441.23,1177.81,430.53,1156.27,430.53,1156.27z"/>
			<path class="st3" d="M481.71,1063.12c-9.02,13.41-21.22,25.89-20.97,30.14c0.24,4.25,12.68,68.63,11.95,75.94
				c7.56-7.32,14.63-95.11,14.14-103.16C486.35,1058,481.71,1063.12,481.71,1063.12z"/>
			<path class="st3" d="M652.91,505.01c2.35,31.47-5.9,69.53-31.23,84.64c-9.3,5.55-20.1,7.97-30.71,10.11
				c-33.33,6.72-73.63-9.88-76.89-40.34c-3.49-32.59-8.45-71.6,6.18-100.13c9.73-18.98,19.14-19.02,29.75-20.12
				c10.61-1.1,43.41-2.19,56.22,3.66c16.64,7.61,36.25,18.66,42.1,37.07C650.64,487.23,652.22,495.84,652.91,505.01z"/>
			<path class="st3" d="M642.68,577.82c-10.24,12.07-25.49,20.52-34.26,25.01c-4.43,2.27-4.88,10.84-1.22,11.93
				c3.66,1.1,33.65-9.6,37.31-16.32c3.66-6.72,4.76-16.6,4.02-20.62C647.8,573.8,642.68,577.82,642.68,577.82z"/>
			<path class="st3" d="M652.89,606.15c0.14,0.81,0.12,1.63-0.09,2.42c-3.4,12.63-15.42,33.77-20.24,36.18
				c-2.93,1.46-16.46-13.17-18.29-14.27c-1.83-1.1-5.85-6.58-5.85-6.58s29.07-10.51,34.6-15.55c1.96-1.78,8.29-11.64,8.29-11.64
				L652.89,606.15z"/>
			<path class="st3" d="M650.84,629.4c0,0,2.56,19.39-4.39,34.02c-6.95,14.63-9.88,16.46-9.88,16.46s-8.78-23.41-5.12-27.07
				C635.12,649.15,650.84,629.4,650.84,629.4z"/>
			<path class="st3" d="M631,723.96c-4.63,7.07-35.33,30.18-38.5,34.08c-3.17,3.9,0.03,27.74-1.04,37.07
				c12.19-2.93,38.09-24.26,39.8-32.56C632.97,754.26,631,723.96,631,723.96z"/>
			<path class="st3" d="M632.55,685.77c-1.71,1.83-28.72,24.51-40,29.82c-4.83,2.28-1.09,37.49-1.09,37.49s33.37-26.9,38.4-34.95
				c5.04-8.05,3.11-13.22,3.6-16.64C633.96,698.08,632.55,685.77,632.55,685.77z"/>
			<path class="st3" d="M575.86,617.69c6.53,4.43,6.58,17.19,7.68,22.31c1.1,5.12-2.56,28.17-2.56,28.17s-3.66,18.29-5.12,20.49
				c-1.83,2.74-49.91-28.36-54.53-31.23c-3.9-2.41-8.94-2.36-10.76-7.45c-3-8.37-1.43-18.59-1.06-27.39
				c0.32-7.74-0.14-24.23,7.26-29.08c6.63-4.35,15.58,3.13,21.5,5.74c10.21,4.51,20.44,9.06,30.33,14.26
				C571.05,614.8,573.54,616.12,575.86,617.69z"/>
			<path class="st3" d="M516.16,666.92c4.91,1.18,5.78,2.83,10.5,5.1c5.83,2.81,11.58,5.81,17.24,8.95
				c8.79,4.86,19.61,9.91,26.55,17.39c0.27,0.29,0.53,0.58,0.77,0.9c5.61,7.56,5.85,33.17,5.36,34.87
				c-0.49,1.71-63.79,6.71-66.94-2.32c-2.66-7.63-0.62-15.72-0.91-23.67c-0.42-11.48-1.05-25.16,0.18-35.41
				C509.02,671.9,513.85,666.37,516.16,666.92z"/>
			<path class="st3" d="M576.75,749.99c3.98,11.71,1.78,41.46-3.09,45.6c-4.88,4.15-56.09,3.96-61.45,3.71
				c-5.37-0.24-5.03-25.91-5.12-34.2c-0.09-8.29-0.65-22.39,2.52-23.61c3.17-1.22,26.25-1.02,33.33,1.66
				C550.01,745.85,576.75,749.99,576.75,749.99z"/>
			<path class="st3" d="M576.75,809.01c-1.14,18.05-12.42,165.73-56.66,176.14c-4.15,0.98-8.57,5.44-9.82,3
				c-3.29-7.8-3.29-164.5-3.29-171.33c0-6.83,10.46-7.53,15.83-8.99s48.72-2.71,51.33-0.76
				C576.75,809.01,576.75,809.01,576.75,809.01z"/>
			<path class="st3" d="M631.44,773.85c-0.28-0.68-1.18-0.79-1.69-0.26c-20.6,21.53-35.02,28.05-39.02,31.28
				c-3.78,3.05-4.88,69.99-9.27,86.57c-1.98,7.46-5.77,14.89-2.46,16.5c4.39,2.13,15.96-3.21,19.26-6.8l39.29-42.86
				C637.55,858.27,636.68,786.7,631.44,773.85z"/>
			<path class="st3" d="M597.8,624.64c16.58,14.14,23.95,20.89,25.73,24.02c1.98,3.48-22.56,23.29-29.14,25.48
				c-6.58,2.19-2.93-18.05-2.93-23.66c0-5.61-0.49-27.56,0-29.02S597.8,624.64,597.8,624.64z"/>
			<path class="st3" d="M625.69,661.98c-0.44-1.39-2.17-1.87-3.23-0.87c-7.58,7.16-28.49,17.87-29.68,21.69
				c-0.92,2.97-2.9,24.6-0.22,25.33c2.68,0.73,39.36-24.69,38.9-27C630.85,678.07,627.41,667.44,625.69,661.98z"/>
			<path class="st3" d="M549.88,330.9c-16.46,13.29-16.78,27.82-24.02,42.31c-20.85,41.7-13.26,66.86-8.42,61.68
				c14.1-15.1,28.78-63.39,30.98-67.41C550.62,363.46,549.88,330.9,549.88,330.9z"/>
			<path class="st3" d="M552.42,391.38c1.95,15.12,0.75,20.12-2.42,28.17s-20.97,16.46-22.67,17.68
				c9.63-23.05,18.53-38.9,22.67-53.29C553.42,384.68,552.42,391.38,552.42,391.38z"/>
			<path class="st3" d="M564.64,388.58c8.29,10,39.75,30.67,48.53,33.41c1.46,5.67-44.63,10.85-50.48,6.22
				c-5.85-4.63-5.85-34.51-4.88-39.63C558.78,383.46,564.64,388.58,564.64,388.58z"/>
			<path class="st3" d="M621.08,442.47c4.4,2.87,10.44,4.19,15.21,6.39c14.07,6.48,27.13,13.52,26.99,30.78
				c-0.1,13.43-1.71,27.98,5.56,39.27c4.63,7.19,10.74,13.22,16.16,19.79c5.36,6.49,8.52,12.38,17.65,7.61
				c21.42-11.2,36.22-33.2,34.33-57.85c-1.05-13.63-7.23-26.79-16.93-36.4c-10.77-10.67-21.24-21.16-35.15-27.91
				c-19.07-9.25-40.29-5.85-57.48,6C621.21,434.43,621.08,442.47,621.08,442.47z"/>
			<path class="st3" d="M684.75,587.8c8.96,33.34,43.46,107.59,44.03,109.34c1.37,4.27-1.32,9.91-4.82,12.46
				c-5.48,3.99-11.25-4.45-14.21-8.1c-20-24.67-37.66-71.08-40.48-82.46c-3.38-13.64-14.14-32.92-9.75-55.85
				c4.39-22.92,8.29-33.65,10.24-31.21c2.57,3.22,3.13,9.96,4.13,13.81c2.7,10.4,4.13,21.16,7.08,31.41
				C681.99,580.79,683.77,584.15,684.75,587.8z"/>
			<path class="st3" d="M717.79,562.13c11.35,5.85,30.59,39.29,33.29,55.97c5,30.94,3.48,47.8,3.78,56.94
				c0.3,9.14-16.1,7.32-29.75-5.12c-8.51-7.75-31.39-59.75-26.83-85.44C701.61,565.73,707.54,557.74,717.79,562.13z"/>
			<path class="st3" d="M759.98,688.74c-12.24-6.09-6.29,74.05,2.19,95.15c9.02,22.44,20.8,52.33,32.19,79.74
				c6.81,16.39,26.09,75.84,34.39,79.74c8.29,3.9,0.49-35.36-3.41-50.97c-3.9-15.61-15.12-80.51-18.53-92.69
				c-3.41-12.18-0.98-46.12-9.75-58.66C788.26,728.53,778.02,697.73,759.98,688.74z"/>
			<path class="st3" d="M726.69,729.02c-6.34,23.9,3.6,46.64,8.47,60.78c4.88,14.14,14.45,27.98,23.23,41.64s32.96,70.49,38.65,85.6
				c13.65,36.21,20.24,25.85,14.88,12.19c-5.36-13.66-15.49-44.63-21.83-59.26c-6.34-14.63-8.17-23.3-15.73-39.87
				c-7.44-16.3-15.97-33.78-21.34-48.41c-5.37-14.63-7.8-50.24-16.58-52.68C727.66,726.58,726.69,729.02,726.69,729.02z"/>
			<path class="st3" d="M748.88,829.67c10.77,13.66,19.1,31.59,24.51,44.2c4.99,11.65,9.79,23.4,14.43,35.19
				c4.3,10.93,8.69,21.93,12.06,33.2c0.56,1.88,2.23,4.64,1.44,6.61c-2.02-1.64-3.01-4.16-4.28-6.34c-1.34-2.3-2.61-4.64-3.83-7
				c-2.9-5.58-5.58-11.27-8.19-16.99c-5.92-12.98-11.45-26.13-17.14-39.22c-4.89-11.24-9.73-22.6-15.64-33.36
				c-0.29-0.53-0.59-1.07-0.89-1.6c-14.14-24.87-18.53-31.7-24.39-46.33c-5.85-14.63-18.53-38.53-16.58-42.92
				c1.36-3.06,6.26-7.95,8.4-9.51c0.75-0.54,1.39,4.2,1.46,5.12C722.54,781.2,739.12,817.31,748.88,829.67z"/>
			<path class="st3" d="M616.83,1315.64c-7.68,0-33.3,1.83-36.22,4.76c-2.92,2.93-8.41,43.53,7.69,65.48
				c16.1,21.95,30,10.61,34.39-2.19c4.39-12.8,17.92-48.65,12.8-59.63C630.36,1313.08,616.83,1315.64,616.83,1315.64z"/>
			<path class="st3" d="M568.17,1340.52c5.49,25.24,9.12,36.21,26.34,70.23c14.11,27.89,19.04,53.77,12.45,53.04
				c-6.59-0.73-30.37-55.65-34.03-65.85c-3.66-10.21-14.67-41.47-15.55-47.91c-1.24-9.09,1.65-15,3.84-17.56
				C563.42,1329.91,568.17,1340.52,568.17,1340.52z"/>
			<path class="st3" d="M570.25,1415.26c6.34,19.51,28.78,49.75,30.24,68.77c1.46,19.02-13.32,140.71-11.71,155.83
				c-5.94-10.32-13.4-58.05-23.9-83.16c-6.47-15.46-11.4-36.05,0-105.35C568.21,1431.14,570.25,1415.26,570.25,1415.26z"/>
			<path class="st3" d="M636.62,1359.9c-8.09,54.87-35.16,185.83-38.09,244.36c-2.93,58.53-0.73,50.85,1.83,55.6
				c2.56,4.76,25.97-60.24,33.29-96.82c7.32-36.58,16.1-125.84,12.68-159.98c-3.41-34.14-1.95-60.48-5.36-59.02
				C637.55,1345.52,636.62,1359.9,636.62,1359.9z"/>
			<path class="st3" d="M657.55,1423.55c3.41,39.99,1.95,114.62-3.41,145.83s-21.95,94.13-23.41,104.86
				c-1.46,10.73,3.41,22.92,0,26.83c-3.41,3.9-15.12-20.48-13.17-40.97c1.95-20.49,16.74-72.68,20.81-93.16
				c4.07-20.48,14.31-72.18,13.82-90.23c-0.49-18.05-0.49-40.97-1.46-59.02c-0.98-18.05-3.41-25.36,0-25.36
				C654.14,1392.34,657.55,1423.55,657.55,1423.55z"/>
			<path class="st3" d="M632.29,1746.92c-9.11,16.7-40.97,23.9-45.36,39.99c-6.83-6.34-12.19-32.19-8.78-46.82
				c3.41-14.63,6.34-25.36,9.75-30.24c3.41-4.88,4.41-7.32,7.8-12.19c3.04-4.36,13.41-15.3,21.22-6.52
				c7.8,8.78,6.44,12.86,8.22,24.57S635.21,1741.56,632.29,1746.92z"/>
			<path class="st3" d="M604.75,1672.66c-17.92,16.22-22.68,39.51-22.68,33.65s-1.1-22.31,5.49-29.63
				c6.58-7.32,10.17-8.41,14.41-8.41C606.22,1668.28,604.75,1672.66,604.75,1672.66z"/>
			<path class="st3" d="M626.7,1773.26c5.49,14.27,36.21,48.9,39.87,55.85c3.66,6.95-20.97,14.14-26.09,14.14
				s-20.97,3.05-24.63,4.88s-4.51-11.58-4.88-15.97c-0.37-4.39-13.97-26.34-9-36.95c4.97-10.61-7.34-7.32,3.02-13.9
				C615.36,1774.72,626.7,1773.26,626.7,1773.26z"/>
			<path class="st3" d="M598.05,1805.08c0,8.41,0.29,18.66,5.27,31.09c4.97,12.44-1.1,16.1-2.63,15.36
				c-1.54-0.73-12.14-2.93-12.14-2.93s-4.02-6.58-2.93-10.61c1.1-4.02-9.75-15.63-3.9-25.24c5.85-9.61,7.34-20.61,8.78-23.9
				C591.92,1785.58,598.05,1805.08,598.05,1805.08z"/>
			<path class="st3" d="M841.28,957.04c-2.02-0.35-4.05-0.44-6.09-0.2c-11.62,1.38-31.87,3.72-36.48,16.86
				c-0.54,1.53-0.58,3.17-0.59,4.79c-0.16,17.13,1.93,34.31,6.34,50.87c0.83,3.11,1.8,6.25,3.64,8.89
				c10.4,14.89,38.44,4.77,50.17-2.66c10.6-6.71,26.53-17.09,27.26-30.73c0.65-12.12-6.6-25.12-16.35-32.04
				C861.18,967.15,851.45,958.8,841.28,957.04z"/>
			<path class="st3" d="M824.33,1051.66c0.14,7.75,0.25,15.5,0.2,23.25c-0.05,4.98-0.19,9.97-0.69,14.94
				c-0.42,4.13-0.52,11.78-3.12,15.03c-1.55,1.93-5.92-9.97-6.06-10.7c-0.68-3.38-0.56-45.37-2.39-45.58
				C816.35,1049.07,820.47,1050.31,824.33,1051.66z"/>
			<path class="st3" d="M848.62,1051.03c3.22,13.53,4.35,27.69,6.65,41.41c0.75,4.49,1.51,8.98,2.21,13.48
				c0.92,5.95,1.94,10.86,1.27,16.98c-0.06,0.57-0.15,1.17-0.51,1.61c-1.69,2.02-5.72-0.04-6.96-1.57c-1.37-1.7-1.92-3.9-2.27-6.05
				c-0.97-5.98-2.39-11.89-3.6-17.83c-1.83-9.01-3.56-18.05-5.38-27.06c-1.12-5.54-2.24-11.08-3.36-16.62
				c-0.14-0.67-0.27-1.4,0.03-2.02C837.3,1052.08,848.59,1050.89,848.62,1051.03z"/>
			<path class="st3" d="M870.06,1045.02c1.94,2.01,3.24,9.4,3.86,11.24c1.68,5.04,3.47,10.04,5.31,15.02
				c3.62,9.78,7.46,19.48,11.16,29.23c2.47,6.5,5.71,12.78,5.62,19.91c-0.05,3.81-4.76,1.93-6.76,0.99
				c-6.39-3.02-7.2-8.04-9.6-13.96c-1.86-4.58-3.76-9.14-5.67-13.69c-5.94-14.12-11.96-28.18-18.73-41.92
				c-0.25-0.51-0.51-1.04-0.57-1.61c-0.52-5.06,11.37-5.59,14.36-5.71C869.4,1044.5,869.74,1044.69,870.06,1045.02z"/>
			<path class="st3" d="M886.93,1029.38c3.44,2.89,10.72,19.33,11.99,21.68c3.65,6.75,7.29,13.5,10.93,20.25
				c2.94,5.45,8.7,12.6,9.38,18.88c0.21,1.54,1.63,10.07-2.16,8.34c-0.57-0.26-1-0.74-1.41-1.21c-10-11.34-17.77-23.92-26.36-36.29
				c-2.52-3.63-4.91-7.34-7.58-10.86c-2.3-3.03-6.23-5.86-8.05-9.1c-0.79-1.41-0.69-3.13-0.57-4.74c0.04-0.58,0.09-1.18,0.4-1.67
				c0.28-0.45,0.75-0.76,1.2-1.04c3.47-2.12,7.27-3.7,11.22-4.66C886.19,1028.89,886.53,1029.05,886.93,1029.38z"/>
			<path class="st3" d="M889.71,978.74c6.1,5.85,16.1,17.28,20.24,25.95c4.15,8.68,21.95,12.09,22.19,17.46
				c0.24,5.37,1.46,8.78-0.98,9.02c-2.44,0.24-11.71,0.73-17.31-4.39s-9.75-8.05-13.41-13.17c-3.66-5.12-6.83-11.22-8.54-19.27
				c-1.71-8.05-6.58-19.27-6.58-19.27L889.71,978.74z"/>
			<path class="st3" d="M502.75,342.98c-0.41,19.02-2.4,50.97,0.11,58.04c2.52,7.07,8.54-18.05,16.75-35.36
				c8.2-17.31,5.11-10.81,7.31-18.62c2.19-7.8,15.04-7.07,6.26-7.8C524.4,338.51,502.75,342.98,502.75,342.98z"/>
			<path class="st3" d="M605.25,906.97c-15.01,11.22-61.83,70.72-77.09,145.35c0,0,7.99,26.72,18.7,24.39
				c2.38-0.52,36.79-110.11,64.23-160.95c7.86-14.58,8.41-22.31,8.41-22.31L605.25,906.97z"/>
			<path class="st3" d="M627.8,907.41c-18.64,62.06-80.67,297.68-79.56,334.34c-18.64-53.35-3.35-123.52,19.57-190.95
				C586.98,994.41,627.8,907.41,627.8,907.41z"/>
			<path class="st3" d="M637.55,920.7c-11.71,54.59-51.72,142.56-56.79,218.75c-4.89,73.42,3.75,147.8,17.41,153.65
				c13.66,5.85,36.87-90.8,40.85-107.07c10.09-41.27,32.29-116.65,29.85-155.59c-2.11-33.61-7.77-51.23-12.29-66.82
				C650.5,942.67,637.55,920.7,637.55,920.7z"/>
			<path class="st3" d="M663.65,1109.21c-2.44,21.95-17.19,93.77-35.85,140.22c-8.69,21.64-11.22,44.87-4.39,52.19
				c6.83,7.32,14.63-33.17,25.36-50.24c10.73-17.07,19.69-72.17,20.28-94.38c0.77-28.98,5.57-51.7,3.13-59.5
				C669.74,1089.7,663.65,1109.21,663.65,1109.21z"/>
			<path class="st3" d="M575.34,1156.27c-7.53,84.01,13.38,124.86,2.23,142.42c-11.15,17.56-19.91,9.94-18.53,0.24
				c2.44-17.21-10.61-45.2,0-94.86C564.64,1177.81,575.34,1156.27,575.34,1156.27z"/>
			<path class="st3" d="M524.16,1063.12c9.02,13.41,21.22,25.89,20.97,30.14c-0.24,4.25-12.68,68.63-11.95,75.94
				c-7.56-7.32-14.63-95.11-14.14-103.16C519.52,1058,524.16,1063.12,524.16,1063.12z"/>
		</g>
	</g>
</g>
</svg>
