<?xml version="1.0" encoding="utf-8"?>
<!-- Generator: Adobe Illustrator 28.0.0, SVG Export Plug-In . SVG Version: 6.00 Build 0)  -->
<svg version="1.1" id="Слой_1" xmlns="http://www.w3.org/2000/svg" xmlns:xlink="http://www.w3.org/1999/xlink" x="0px" y="0px"
	 viewBox="0 0 904.6 1758" style="enable-background:new 0 0 904.6 1758;" xml:space="preserve">
<style type="text/css">
	.st0{fill:#BE9B8B;}
	.st1{fill:#6F6F6F;}
	.st2 { transition: fill .3s, stroke .3s; }
	.muscle.active { fill:rgba(139,92,246,0.55) !important; stroke:#8b5cf6; stroke-width:3; }
</style>
<g id="Art">
	<g id="Anterior_Body">
		<path class="st0" d="M886,913.2c-2.4-2.6-15.5-11-18.7-14.3c-3.2-3.3-3.2-5.8-11.9-21c-8.8-15.1-41.5-28.5-45.2-29.3
			s-10.8-9.7-12.6-14.6c-7.5-20.4-25.2-90-32.9-152.2c-7.7-62.2-36.6-97.3-52.3-118.9c0.7-59.6-12.9-72-20.5-91.1
			c0.7-15,5.9-47.6,2.4-90.4c-2.8-33.9-45.2-74.4-71.6-78.1c-17.1-2.4-26.5,1.7-48.5,0c-22.1-1.7-63.4-38.8-65.6-43.2
			c-2.2-4.4-6.8-41-3.4-45.6c3.4-4.6,3.9-0.2,7.3-9.8c3.4-9.5,1.6-26.6,1.6-26.6s0.9-3.6,1.5-1.1c0.4,1.5,1.1,3,2.7,3.8
			c2.6,1.3,5.7-4.8,9.1-10.7c8.9-15.5,17.3-45.1,4.9-48.8c-2.2-0.7-5.5,5.1-5.5,5.1c0-2.9,2.9-30-1.5-46.8
			c-3.5-13.5-16.7-26.9-27.1-35.1c-12.7-10-38.6-10.7-45-10.7l0,0c-0.1,0-0.4,0-0.6,0s-0.4,0-0.6,0l0,0c-6.4,0.1-32.3,0.8-45,10.7
			c-10.4,8.2-23.5,21.6-27.1,35.1c-4.4,16.8-1.5,43.9-1.5,46.8c0,0-3.2-5.8-5.5-5.1c-12.3,3.7-4,33.3,4.9,48.8
			c3.3,5.8,6.5,12,9.1,10.7c1.7-0.9,2.4-2.4,2.7-3.8c0.6-2.5,1.5,1.1,1.5,1.1s-1.8,17.1,1.6,26.6c3.4,9.5,3.9,5.1,7.3,9.8
			c3.4,4.6-1.2,41.2-3.4,45.6c-2.2,4.4-43.5,41.5-65.6,43.2c-22.1,1.7-31.5-2.4-48.5,0c-26.3,3.7-68.8,44.1-71.6,78.1
			c-3.5,42.8,1.7,75.4,2.4,90.4c-7.5,19-21.2,31.5-20.5,91.1c-15.7,21.6-44.6,56.7-52.3,118.9s-25.4,131.8-32.9,152.2
			c-1.8,4.9-9,13.9-12.6,14.6S58.9,862.9,50.1,878s-8.8,17.7-12,21s-16.2,11.7-18.7,14.3s-4.2,12.2,2.7,13.8s25.1-2.4,31-15.7
			c7.1-4.7,8.9-4.8,8.9-4.8s2.4,7.3,2,13.2c-0.4,5.8-12.4,23.8-17.1,34.4c-4.8,10.6-19,30.2-15.2,35.7s9.3,4.6,11.7,2.7
			s15.9-24.8,18.6-28.8c3-3.9,14.4-18.6,16.4-20.8c-3.2,13.3-8.5,29.1-10.5,35.3c-2.1,6.2-11.7,24.9-11.8,31.3
			c-0.1,8.9,6,10.9,10.1,8.2c11.5-7.6,17.9-26.9,20.7-32.6c4.8-9.5,10-26.5,14.9-34.3c-1.2,9.5-4.2,22.6-5.8,33.7
			c-0.8,5.6-5.7,34.5,0.5,36.4c9.7,2.9,11-8.2,14.8-21.4s8.6-45.7,11.5-50.7c4.4,0.9,3.7,4,4.6,12.8c1.1,11.5,0.2,40.2,8.6,40.2
			c8.4,0,9-28.9,10.1-46.5c1.1-17.6,6.8-26.8,9.8-41.2c2.9-14.4,9.7-34.4,9.3-51.2c-0.2-7.8-3.5-14.8,3.2-39.8
			c4.1-15.3,55.8-116.6,61.7-126.1c6.3-10.3,18.1-41,21-64.4s2.4-24.4,3.9-35.6c1.5-11.2,6-16.2,11.7-22.9
			c6.6-7.8,16.1-31,23.4-62.5c3.4-0.1,4.5-2.9,6.1-1.8c0,0,4.4,50,13.4,63.9s6.3,19,8.3,24.1c2,5.1,1,38.5-0.5,57.1
			c-1.5,18.5-5.7,83.2-9.8,98.5c-4,15.4-9,22-12.9,41.5s-10.1,45-11.5,69c0,0-8.2,56.9-7.4,78.3c0.8,22.9-5.1,178.9,27.8,216.9
			c-1.6,7.4-0.1,20.4,0.1,24.3s-9.3,44.4-5.6,71.4s2.2,17.7,1.5,24.4c-0.7,6.8-30,97.5,13.9,264.5c2.6,10,3.7,30.1,3.7,40.7
			s-3.7,31.5-3.7,41.3s-0.4,14.6,1.8,20.8c2.2,6.2,1.8,16.5,0.4,24.1s-31.1,28.5-33.7,39.9s-5.8,17.9-1.1,21.2c4.8,3.3,7,0,7,0
			s-1.8,5.5,1.1,8.4c2.9,2.9,11.7,2.6,11.7,2.6s2.9,0.7,4.8,3.7s9.5,4.4,11.3,2.6s2.9-1.7,4.4,0.8c0.8,1.3,4,2.9,6.9,4.1
			c2.7,1.1,5.8,0.9,8.3-0.7l5.7-3.5c0,0,4.8,5.5,5.8,5.8c1.1,0.4,12.4,4.4,15.4,0c2.9-4.4,16.8-15,16.1-27.4s-1.8-19.4-1.5-23.8
			s1.5-11,3.3-17.6c1.8-6.6,4-9.5,2.6-21.9s-0.4-13.2-0.4-15.4s1.8-8.1,2.2-14.6c0.4-6.6-4.8-20.1-4.8-20.1s-2.2-13.2-3.3-31.1
			c-1.1-17.9,2.6-88.5,9.9-111.9c7.3-23.4,11.6-30.7,12.4-36.6c8.8-61.8-5.5-128.4-8-151.9c-1.5-13.4,4.4-14.9,8-28.4
			s6.6-47.2,2.6-62.2c-3-11,10.2-51.2,12.1-63.7c1.8-12.4,27-108.6,28.3-125.8c1.3-17.2,3.1-70.5-1.5-78.6c2.2,0,8.3,4.3,10.9,5
			c0.1,0.1,0.3,0.1,0.5,0.1c0.2,0,0.4,0,0.5-0.1c2.6-0.7,8.8-5,10.9-5c-4.5,8.1-2.8,61.4-1.5,78.6c1.3,17.2,26.5,113.4,28.3,125.8
			c1.8,12.4,15,52.7,12.1,63.7c-4,15-1.1,48.7,2.6,62.2c3.7,13.5,9.5,15,8.1,28.4c-2.6,23.6-16.8,90.1-8.1,151.9
			c0.8,5.8,5.1,13.2,12.4,36.6c7.3,23.4,11,94,9.9,111.9c-1.1,17.9-3.3,31.1-3.3,31.1s-5.1,13.5-4.8,20.1c0.4,6.6,2.2,12.4,2.2,14.6
			c0,2.2,1.1,2.9-0.4,15.4c-1.5,12.4,0.7,15.4,2.6,21.9c1.8,6.6,2.9,13.2,3.3,17.6c0.4,4.4-0.7,11.3-1.5,23.8
			c-0.7,12.4,13.2,23.1,16.1,27.4c2.9,4.4,14.3,0.4,15.4,0c1.1-0.4,5.8-5.8,5.8-5.8l5.7,3.5c2.5,1.5,5.6,1.8,8.3,0.7
			c2.8-1.2,6.1-2.8,6.9-4.1c1.5-2.5,2.6-2.6,4.4-0.8s9.5,0.4,11.3-2.6s4.8-3.7,4.8-3.7s8.8,0.4,11.7-2.6c2.9-2.9,1.1-8.4,1.1-8.4
			s2.2,3.3,6.9,0s1.5-9.9-1.1-21.2c-2.6-11.3-32.2-32.2-33.7-39.9c-1.5-7.7-1.8-17.9,0.4-24.1c2.2-6.2,1.8-11,1.8-20.8
			s-3.7-30.7-3.7-41.3s1-30.7,3.7-40.7c43.9-167.1,14.6-257.8,13.9-264.5s-2.2,2.6,1.5-24.4c3.7-27.1-5.8-67.6-5.6-71.4
			c0.2-3.9,1.7-16.8,0.1-24.3c32.9-38,27-194,27.8-216.9c0.8-21.4-7.4-78.3-7.4-78.3c-1.3-24-7.6-49.5-11.5-69
			c-3.9-19.5-8.9-26.1-12.9-41.5c-4-15.4-8.3-80-9.8-98.5s-2.4-51.9-0.5-57.1s-0.7-10.2,8.3-24.1s13.4-63.9,13.4-63.9
			c1.6-1.1,2.7,1.7,6.1,1.8c7.3,31.6,16.8,54.8,23.4,62.5c5.7,6.8,10.2,11.7,11.7,22.9c1.5,11.2,1,12.2,3.9,35.6
			c2.9,23.4,14.7,54.1,21,64.4c5.8,9.5,57.6,110.7,61.7,126.1c6.7,25,3.4,31.9,3.2,39.8c-0.5,16.8,6.3,36.8,9.3,51.2
			c2.9,14.4,8.7,23.7,9.8,41.2c1.1,17.6,1.7,46.5,10.1,46.5s7.5-28.7,8.6-40.2c0.8-8.8,0.2-11.9,4.6-12.8
			c2.9,4.9,7.7,37.5,11.5,50.7s5.1,24.3,14.8,21.4c6.3-1.9,1.4-30.8,0.6-36.4c-1.6-11.1-4.6-24.2-5.8-33.7
			c4.9,7.8,10.1,24.7,14.9,34.3c2.8,5.6,9.3,25,20.7,32.6c4.1,2.7,10.2,0.7,10.1-8.2c-0.1-6.4-9.8-25.1-11.8-31.3
			c-2.1-6.2-7.3-21.9-10.6-35.3c2,2.2,13.3,16.8,16.4,20.8c2.7,4,16.2,27,18.6,28.8c2.4,1.8,7.9,2.7,11.7-2.7
			c3.8-5.5-10.4-25.1-15.2-35.7c-4.8-10.6-16.8-28.5-17.1-34.4c-0.4-5.8,2-13.2,2-13.2s1.7,0.1,8.9,4.8c5.9,13.4,24.2,17.3,31,15.7
			C890.1,925.4,888.4,915.8,886,913.2z"/>
		<path class="st1" d="M501.2,34c-15.6-5.6-30.2-10.7-48.6-9.1c-0.1,0-0.2,0.1-0.3,0.2c-0.1-0.1-0.2-0.2-0.3-0.2
			c-18.4-1.6-33,3.5-48.6,9.1c-24.2,8.7-31.4,41.2-30.9,64.6c0,9.7,2.5,19.3,4.7,28.6c2.2,9.6,6.5,9.5,8.1,10.1
			c25.4,8.4,27,41.6,38.2,42.1c8,0.3,17.1,0,25.1,0c0.3,0.1,0.5,0.2,0.8,0.1c0.9,0,1.9-0.1,2.9-0.1c1,0,1.9,0,2.9,0.1
			c0.3,0,0.6-0.1,0.8-0.1c8.1,0,17.2,0.4,25.1,0c11.2-0.5,12.8-33.6,38.2-42.1c1.7-0.6,5.9-0.5,8.1-10.1c2.1-9.4,4.7-19,4.7-28.6
			C532.6,75.2,525.4,42.7,501.2,34z"/>
		<g>
			<path class="st2" d="M289.1,1719.7c7.3,0,76.1-1.5,78.5,4.4c2.4,5.8,10.4,20-4.3,20s-55.2-6.8-62.5-9.8
				c-7.3-2.9-16.1-10.2-16.1-10.2L289.1,1719.7z"/>
			<path id="hams-left" class="muscle" d="M360.6,790.3c-26.6,15.8-41.5,27.1-50.5,41.7s-7.3,41,4.9,67.3c12.2,26.3,37.6,55.8,50.7,55.8
				s34.8,16.7,57.1,8.2c19.4-7.4,11.9-20.8,13.9-38.3c2.8-24.4,8.8-23,12.1-80.9c0.8-13.9-2.4-37.2-6.3-45s-11.9-17.8-15.3-22.2
				s-5.6-14-34.1-1.5C381.2,780.6,377.6,780.1,360.6,790.3z"/>
			<path id="upper-back-left-3" class="muscle" d="M340.1,308.9c13.2,13.9,28.1,68.5,36.6,97.3c9.8,33.2,16.9,53.6,42.4,95.1c17.2,27.9,16.1,46.1,19.8,43.2
				c5.1-56.3,16.8-210-2.9-226.1s-26.3-13.2-48.3-16.1S340.1,308.9,340.1,308.9z"/>
			<path id="upper-back-left-2" class="muscle" d="M291.2,360.3c15.4-8.5,31.4-16,47.8-22.4c1.8-0.7,3.6-1.4,5.5-1.2c8.6,0.8,12.4,27.6,14,33.8
				c5,19.8,9.8,39.6,16,59.1c7.5,23.7-27.5,3.7-34.4,0c-11.2-6-22-10.4-31.3-19.6c-11.2-11-16.7-25.5-23.1-39.5
				c-2.2-4.7-3-5.4,1.7-8.1C288.6,361.8,289.9,361,291.2,360.3z"/>
			<path id="delts-left1" class="muscle" d="M306.5,329.8c-4.9-3.1-11.6-6.8-12.6-7.2c-7.4-2.5-15.4-3-23.1-1.7c-12.5,2.1-25.3,12.6-34.7,20.8
				c-6.1,5.3-11.8,14.8-14.7,22.3c-4.6,11.6-2.8,21.4-2.8,33.5c0,14.4,0.1,28.8,0.1,43.2c0,0.1,15.1-6,16.5-6.8
				c7.8-4.4,14.8-10.1,21.4-16.1c5.8-5.3,13.6-12.5,13.6-21c0-12.8,3-25.8,10-36.7c7.8-12.2,20.7-17.2,31.5-26.2
				C312.1,333.6,309.7,331.9,306.5,329.8z"/>
			<path id="upper-back-left-1" class="muscle" d="M290.6,400.2c0.4,0.8,0.7,1.4,1,1.8c4.7,6.9,10.7,12.8,17.2,17.9c11.8,9.2,26.2,18.5,41.2,20.9
				c8.6,1.4,11.6,2.4,13.9,3.7s-2,5.1-2,5.6s-13.2,7.6-27.4,9.3c-21,2.5-42.4-6.7-52-26.1c-3.6-7.3-5.5-15.5-5.9-23.7
				c-0.3-6.8-1.7-14.4,2.9-20.1C284,383.8,288.2,395.1,290.6,400.2z"/>
			<path id="triceps-left-3" class="muscle" d="M267.6,417.9c-49.5,35.1-48.8,57.5-44.4,86.3c4,26.2,15.8-2.1,23.7-8c5.8-4.2,11.6-8.3,17.3-12.7
				c1.9-1.4,12.9-8.2,12.5-11C276.4,470.1,267.6,417.9,267.6,417.9z"/>
			<path id="triceps-left-1" class="muscle" d="M275,483c-9.9,8.3-19.7,16.9-29,26c-9.3,9.1-11.2,15.7-11.4,29c-0.2,19.1-6,37.6-8.8,56.4
				c-1.5,9.5-2.2,19.3-1,28.9c1.5,11.3,3.7,5.8,8.7,0.3c2.6-2.8,5.1-5.6,7.4-8.6c7.2-9.1,7.4-17,8.8-28.5
				c1.6-12.5,11.2-17.1,16.8-28.5c3.5-7.1,5.5-22.5,9-29.7c7.3-14.8,9.3-31.8,4.2-47.5C279.7,480.8,275,483,275,483z"/>
			<path id="lats-right-1" class="muscle" d="M382.3,445.2c7.8,14.4,24.4,54.4,30.2,65.6c5.8,11.2,14.6,15.6,12.7,27.3c-2,11.7-17.7,54.3-24.4,68.5
				s-16.6,42.9-22,55.9c-5.7,13.8-10.7,28.8-13.2,36.1c-2,5.9-20.9-21.1-28-31.6c-1.8-2.6-3-5.5-3.6-8.7c-2-10.6-6.8-37.6-10.8-62.7
				c-2.3-14.5-6.8-20.5-10.7-52.7c-3.9-32.2-2-26.8-11.7-43.4c-9.8-16.6-12.2-38-10.2-38.5c13.2,9.8,27.2,9.5,36.8,11.2
				c2.6,0.5,10.8,1.6,20.7-1.7c16.4-5.5,18.9-8.3,22.3-14.6C373.9,449.6,382.3,445.2,382.3,445.2z"/>
			<path class="st2" d="M334.4,676.3c1.3,0.4,2.6,1.3,3.8,2.7c5.2,5.8,10,11.9,14.3,18.2c4.1,6,9.7,13.1,11.3,20.3
				c1.3,5.8-16.2,13.7-19.8,16c-8.8,5.7-16.3,12.5-21.7,21.6c-3.2,5.4-4.3,2.3-5-2.2c-2.1-13.4-3.7-27.6-2.6-41.4
				c1-11.7,2.7-29.9,14.9-34.8C331.5,676.1,333.1,675.9,334.4,676.3z"/>
			<path class="st2" d="M390.7,978.1c8.8,7.8,33.3,51,25.5,92.9c-7.8,41.9,12.1-26.8,16.6-53.8c3.5-21.3,5.7-37.6,1.7-41.1
				C428.2,970.6,390.7,978.1,390.7,978.1z"/>
			<path class="st2" d="M285.2,928.6c-2.9,19,3.9,162.9,15.1,206.3s8.7,17.1,6.3-4.4s4.4-76.6,5.4-96.1s-2.9-67.8-11.2-88.8
				s-6.8-21.9-11.7-29.3C284.2,909,285.2,928.6,285.2,928.6z"/>
			<path class="st2" d="M315.1,1196.3c-5.1,24.8-8,68.8-10.4,70.7c21-22.4,44.3-105,49.8-132.7c5.4-27.3,5.5-117.1,7.9-131.8
				s-0.2-13.6-2.5-21.4c-3.3-11.4-16.7-29.9-23.6-36.8C310,918.1,330.6,1120.5,315.1,1196.3z"/>
			<path class="st2" d="M409.1,1071.5c0,25.8-23.4,93.2-22,123.4c1.5,30.2-4.7,82.9-5.6,87.3c10.2-23.9,15.1-75.6,15.6-101
				s17.3-69.3,15.4-83.9C410.6,1082.7,409.1,1071.5,409.1,1071.5z"/>
			<path id="calves-left-2" class="muscle" d="M324.7,1257c-39.5,46.1-29.6,159-23,189s7.4,35.3,21.3,35.1c5.4-0.1,17.6-7.8,15.5-32.6
				c-2.2-24.9,0.5-93.8,0.5-121.4c0-16.1,4.4-94.5,4.4-94.5L324.7,1257z"/>
			<path id="calves-left-1" class="muscle" d="M350.4,1289.5c5.5,57.1,1.1,128.2,0,149.7c-1.1,20.5-2.1,39.9,7.6,41.9c9.8,1.9,33.2-29.1,37.6-57.6
				c3.5-22.7-2.6-71.1-6.6-92.6c-5.6-30.4-12.6-41.5-20.2-57.1s-14.8-33.2-16.1-40.5C351.5,1226.1,350.4,1289.5,350.4,1289.5z"/>
			<path class="st2" d="M327.9,1647.8c5.4,23.9,4.1,34.7,14.4,36.8c18.8,3.9,22.4-11.2,23.4-22.9c1-11.7,6.3-16.6,6.3-16.6
				s-0.2,43.4-2.4,54.1c-2,9.3-1.9,14.9-11.9,14.9c-14.1,0-24.1,2.3-31.1,0c-7.8-2.6-4.8-35.3-5.8-50.5c-1.2-17.6-2.1-21.1-1.1-25.5
				C320.7,1633.8,327.9,1647.8,327.9,1647.8z"/>
			<path class="st2" d="M325.1,1495.6c6.6,0.2,12.1,5.2,13,11.8c4.7,37.8,8.5,131.6,7.6,137.7c-1,6.8-4.3,39-7.3,24.3
				c-8.9-43.2-14.2-105.8-19.5-131.7c-5.1-25-14.1-31.1-4.4-38.9C319.4,1494.7,318.6,1495.4,325.1,1495.6z"/>
			<path class="st2" d="M354,1500.7c-8.1,9.3,0.5,172.4,2,172.6c1.5,0.1,5.4-52.6,12.7-82.8s7.6-79.9,7.6-80
				C373.2,1498.7,360.1,1496.5,354,1500.7z"/>
			<path class="st2" d="M372.6,999.4c-4.6,19.9-23,235-4.6,258.9c7.8-13.2,13.5-128.3,31.3-174.6c9.2-24.1-0.7-55.4-5.1-71.9
				c-1.4-5.4-15.4-28-15.4-28L372.6,999.4z"/>
			<path id="triceps-left-2" class="muscle" d="M210.9,497.6c-6.3,17.5-17.9,75.4-12.6,100.2c1.3,5.8,5.8,18.4,9.9,6.6c6.5-18.6,14.6-37.4,19.2-56.6
				C230.5,535.2,218.6,513.4,210.9,497.6z"/>
			<path id="forearm-left-7" class="muscle" d="M189.5,613.9c0.6,6.4,1.7,12.8,1.8,19.4c0.2,12.6-4,38.8,7.9,47.7c10.6-10,14.8-27.6,14-41.7
				c-0.5-8.1-8.1-13.4-13-19.2c-3.8-4.4-7.4-8.9-11-13.4C189.1,609.1,189.2,611.5,189.5,613.9z"/>
			<path id="forearm-left-4" class="muscle" d="M169.1,628.1c-3.9,32.7-22.4,180.2-34.6,211.9c-1,15.1,45.9-77.7,51.4-108.6c4.3-24.5-3.1-72.1-8.5-83.8
				C172.1,635.9,169.1,628.1,169.1,628.1z"/>
			<path id="forearm-left-5" class="muscle" d="M220.1,659.8c-4.6,3.7-7.2,9.7-7.5,10.2c-22,57.3-30.9,101.6-57.2,152.4c-1.8,3.4-5.2,12.9-9.3,14.1
				c14.6-4.4,37.3-67.4,66.1-117.7c6.3-10.9,23.9-54.7,25.3-60.6C238.8,653.9,224,656.8,220.1,659.8z"/>
			<path id="forearm-left-6" class="muscle" d="M152.2,659.6c-7.3,30.2-17,124.5-38.4,180.5c17.6-11.7,28.3-53.4,31.2-70.5c6.2-36.2,11.2-76,13.6-112.6
				c0.2-3.6,0.3-10.1-4-11.3C152.6,649.8,152.9,655.1,152.2,659.6z"/>
			<path class="st2" d="M399.8,756.4c-7.8-4.4-44.8-15.6-59.5-7.3c-13.4,7.6-32.7,51.1-31.7,66.1c16-9.8,46.9-35.2,61.1-41
				c14.1-5.7,36-11.5,36-11.5L399.8,756.4z"/>
			<path id="lower-back-left" class="muscle" d="M432,564.7c-1.9-3.9-4.9,6.8-10.7,17.1s-26.3,59-30.2,69.8c-1.9,5.2-30.5,74-22.1,79.5
				c24.4,15.9,66.9,43.2,66.9,43.2C448.6,724.7,440.3,581.8,432,564.7z"/>
			<path id="traps-left1" class="muscle" d="M418.2,197.8c-1.5,2.8-1,6.6-0.8,10.2c0.5,8-1.6,17.8-2.7,25.9c-1.5,10.4-6.3,24.1-11.3,33.3
				c-4.5,8.3-9.7,8.3-17.8,13.5c-4.9,3.1-7,3.2-11.9,6.2c-1.1,0.7-6.5,3.8-5.9,5.3c0.5,1.4,8.3,1.6,9.7,1.7
				c14.3,1.6,28.8,1.1,43.2,0.6c4.3-0.1,8.7-0.3,13-0.5c1.9-0.1,3.9-0.2,5.5-1.2c2.7-1.8,3.1-5.6,3.1-8.9c0.5-28.1,1-52.1,1.4-80.2
				c0-2.4,0-5.1-1.6-6.9c-1-1.2-2.6-1.8-4.1-2.2c-5.1-1.5-10.5-1.5-15.6,0C420.3,195.2,418.9,196.4,418.2,197.8z"/>
			<path class="st2" d="M114.3,848.3c2-0.3,4-0.4,6.1-0.2c11.6,1.4,31.9,3.7,36.5,16.9c0.5,1.5,0.6,3.2,0.6,4.8
				c0.2,17.1-1.9,34.3-6.3,50.9c-0.8,3.1-1.8,6.2-3.6,8.9c-10.4,14.9-38.4,4.8-50.2-2.7c-10.6-6.7-26.5-17.1-27.3-30.7
				c-0.7-12.1,6.6-25.1,16.3-32C94.4,858.4,104.2,850.1,114.3,848.3z"/>
			<path class="st2" d="M131.3,942.9c-0.1,7.8-0.2,15.5-0.2,23.2c0,5,0.2,10,0.7,14.9c0.4,4.1,0.5,11.8,3.1,15
				c1.5,1.9,5.9-10,6.1-10.7c0.7-3.4,0.6-45.4,2.4-45.6C139.3,940.4,135.1,941.6,131.3,942.9z"/>
			<path class="st2" d="M107,942.3c-3.2,13.5-4.3,27.7-6.7,41.4c-0.8,4.5-1.5,9-2.2,13.5c-0.9,5.9-1.9,10.9-1.3,17
				c0.1,0.6,0.2,1.2,0.5,1.6c1.7,2,5.7,0,7-1.6c1.4-1.7,1.9-3.9,2.3-6.1c1-6,2.4-11.9,3.6-17.8c1.8-9,3.6-18.1,5.4-27.1
				c1.1-5.5,2.2-11.1,3.4-16.6c0.1-0.7,0.3-1.4,0-2C118.3,943.4,107,942.2,107,942.3z"/>
			<path class="st2" d="M85.5,936.3c-1.9,2-3.2,9.4-3.9,11.2c-1.7,5-3.5,10-5.3,15c-3.6,9.8-7.5,19.5-11.2,29.2
				c-2.5,6.5-5.7,12.8-5.6,19.9c0,3.8,4.8,1.9,6.8,1c6.4-3,7.2-8,9.6-14c1.9-4.6,3.8-9.1,5.7-13.7c5.9-14.1,12-28.2,18.7-41.9
				c0.2-0.5,0.5-1,0.6-1.6c0.5-5.1-11.4-5.6-14.3-5.7C86.2,935.8,85.9,936,85.5,936.3z"/>
			<path class="st2" d="M68.7,920.7c-3.4,2.9-10.7,19.3-12,21.7c-3.7,6.8-7.3,13.5-10.9,20.2c-2.9,5.4-8.7,12.6-9.4,18.9
				c-0.2,1.5-1.6,10.1,2.2,8.3c0.6-0.3,1-0.7,1.4-1.2c10-11.3,17.8-23.9,26.4-36.3c2.5-3.6,4.9-7.3,7.6-10.9c2.3-3,6.2-5.9,8-9.1
				c0.8-1.4,0.7-3.1,0.6-4.7c0-0.6-0.1-1.2-0.4-1.7c-0.3-0.4-0.8-0.8-1.2-1c-3.5-2.1-7.3-3.7-11.2-4.7
				C69.4,920.2,69.1,920.3,68.7,920.7z"/>
			<path class="st2" d="M65.9,870c-6.1,5.8-16.1,17.3-20.2,26c-4.2,8.7-22,12.1-22.2,17.5s-1.5,8.8,1,9s11.7,0.7,17.3-4.4
				s9.8-8,13.4-13.2s6.8-11.2,8.5-19.3c1.7-8,6.6-19.3,6.6-19.3L65.9,870z"/>
			<path class="st2" d="M617.2,1719.7c-7.3,0-76.1-1.5-78.5,4.4c-2.4,5.8-10.4,20,4.3,20s55.2-6.8,62.5-9.8s16.1-10.2,16.1-10.2
				L617.2,1719.7z"/>
			<path id="hams-right" class="muscle" d="M544,790.3c26.6,15.8,41.5,27.1,50.5,41.7s7.3,41-4.9,67.3c-12.2,26.3-37.6,55.8-50.7,55.8
				c-13.2,0-34.8,16.7-57.1,8.2c-19.4-7.4-11.9-20.8-13.8-38.3c-2.8-24.4-8.8-23-12.1-80.9c-0.8-13.9,2.4-37.2,6.3-45
				s11.9-17.8,15.3-22.2s5.6-14,34.1-1.5C523.5,780.6,527,780.1,544,790.3z"/>
			<path id="upper-back-right-3" class="muscle" d="M564.6,308.9c-13.2,13.9-28.1,68.5-36.6,97.3c-9.8,33.2-16.9,53.6-42.4,95.1c-17.2,27.9-16.1,46.1-19.8,43.2
				c-5.1-56.3-16.8-210,2.9-226.1s26.3-13.2,48.3-16.1S564.6,308.9,564.6,308.9z"/>
			<path id="upper-back-right-2" class="muscle" d="M613.4,360.3c-15.4-8.5-31.4-16-47.8-22.4c-1.8-0.7-3.6-1.4-5.5-1.2c-8.6,0.8-12.4,27.6-13.9,33.8
				c-5,19.8-9.8,39.6-16,59.1c-7.5,23.7,27.5,3.7,34.4,0c11.2-6,22-10.4,31.3-19.6c11.2-11,16.7-25.5,23.1-39.5
				c2.2-4.7,3.1-5.4-1.7-8.1C616,361.8,614.7,361,613.4,360.3z"/>
			<path id="delts-right1" class="muscle" d="M598.1,329.8c4.9-3.1,11.6-6.8,12.6-7.2c7.4-2.5,15.4-3,23.1-1.7c12.5,2.1,25.3,12.6,34.7,20.8
				c6.1,5.3,11.8,14.8,14.7,22.3c4.6,11.6,2.8,21.4,2.8,33.5c0,14.4-0.1,28.8-0.1,43.2c0,0.1-15.1-6-16.5-6.8
				c-7.8-4.4-14.8-10.1-21.4-16.1c-5.8-5.3-13.6-12.5-13.6-21c0-12.8-3-25.8-10-36.7c-7.8-12.2-20.7-17.2-31.5-26.2
				C592.6,333.6,594.9,331.9,598.1,329.8z"/>
			<path id="upper-back-right-1" class="muscle" d="M614,400.2c-0.4,0.8-0.7,1.4-1,1.8c-4.7,6.9-10.7,12.8-17.2,17.9c-11.8,9.2-26.2,18.5-41.2,20.9
				c-8.6,1.4-11.6,2.4-13.9,3.7s2,5.1,2,5.6s13.2,7.6,27.4,9.3c21,2.5,42.4-6.7,52-26.1c3.6-7.3,5.5-15.5,5.9-23.7
				c0.3-6.8,1.7-14.4-2.9-20.1C620.7,383.8,616.4,395.1,614,400.2z"/>
			<path id="triceps-right-3" class="muscle" d="M637,417.9c49.5,35.1,48.8,57.5,44.4,86.3c-4,26.2-15.8-2.1-23.7-8c-5.8-4.2-11.6-8.3-17.3-12.7
				c-1.9-1.4-12.9-8.2-12.5-11C628.2,470.1,637,417.9,637,417.9z"/>
			<path id="triceps-right-1" class="muscle" d="M629.7,483c9.9,8.3,19.7,16.9,29,26c9.3,9.1,11.2,15.7,11.4,29c0.2,19.1,6,37.6,8.8,56.4
				c1.4,9.5,2.2,19.3,1,28.9c-1.5,11.3-3.7,5.8-8.7,0.3c-2.6-2.8-5.1-5.6-7.4-8.6c-7.2-9.1-7.4-17-8.8-28.5
				c-1.6-12.5-11.2-17.1-16.8-28.5c-3.5-7.1-5.4-22.5-9-29.7c-7.3-14.8-9.3-31.8-4.2-47.5C624.9,480.8,629.7,483,629.7,483z"/>
			<path id="lats-left-1" class="muscle" d="M522.4,445.2c-7.8,14.4-24.4,54.4-30.2,65.6s-14.6,15.6-12.7,27.3s17.7,54.3,24.4,68.5
				c6.7,14.1,16.6,42.9,21.9,55.9c5.7,13.8,10.7,28.8,13.2,36.1c2,5.9,20.9-21.1,28-31.6c1.8-2.6,3-5.5,3.6-8.7
				c1.9-10.6,6.8-37.6,10.8-62.7c2.3-14.5,6.8-20.5,10.7-52.7c3.9-32.2,1.9-26.8,11.7-43.4c9.8-16.6,12.2-38,10.2-38.5
				c-13.2,9.8-27.2,9.5-36.8,11.2c-2.6,0.5-10.8,1.6-20.7-1.7c-16.4-5.5-18.9-8.3-22.3-14.6C530.8,449.6,522.4,445.2,522.4,445.2z"
				/>
			<path class="st2" d="M570.2,676.3c-1.3,0.4-2.6,1.3-3.8,2.7c-5.2,5.8-9.9,11.9-14.3,18.2c-4.1,6-9.7,13.1-11.3,20.3
				c-1.3,5.8,16.2,13.7,19.8,16c8.8,5.7,16.3,12.5,21.7,21.6c3.2,5.4,4.3,2.3,5-2.2c2.1-13.4,3.7-27.6,2.6-41.4
				c-1-11.7-2.7-29.9-14.9-34.8C573.1,676.1,571.6,675.9,570.2,676.3z"/>
			<path class="st2" d="M514,978.1c-8.8,7.8-33.3,51-25.5,92.9c7.8,41.9-12.1-26.8-16.6-53.8c-3.5-21.3-5.7-37.6-1.7-41.1
				C476.5,970.6,514,978.1,514,978.1z"/>
			<path class="st2" d="M619.4,928.6c2.9,19-3.9,162.9-15.1,206.3s-8.7,17.1-6.3-4.4s-4.4-76.6-5.4-96.1c-1-19.5,2.9-67.8,11.2-88.8
				s6.8-21.9,11.7-29.3C620.4,909,619.4,928.6,619.4,928.6z"/>
			<path class="st2" d="M589.5,1196.3c5.1,24.8,7.9,68.8,10.4,70.7c-21-22.4-44.3-105-49.8-132.7c-5.4-27.3-5.5-117.1-7.9-131.8
				c-2.4-14.6,0.2-13.6,2.5-21.4c3.3-11.4,16.7-29.9,23.6-36.8C594.6,918.1,574.1,1120.5,589.5,1196.3z"/>
			<path class="st2" d="M495.5,1071.5c0,25.8,23.4,93.2,21.9,123.4c-1.5,30.2,4.7,82.9,5.6,87.3c-10.2-23.9-15.1-75.6-15.6-101
				s-17.3-69.3-15.4-83.9C494.1,1082.7,495.5,1071.5,495.5,1071.5z"/>
			<path id="calves-right-1" class="muscle" d="M579.9,1257c39.5,46.1,29.6,159,23.1,189s-7.4,35.3-21.3,35.1c-5.4-0.1-17.6-7.8-15.4-32.6
				c2.2-24.9-0.5-93.8-0.5-121.4c0-16.1-4.4-94.5-4.4-94.5L579.9,1257z"/>
			<path id="calves-right-2" class="muscle" d="M554.2,1289.5c-5.5,57.1-1.1,128.2,0,149.7c1.1,20.5,2.1,39.9-7.6,41.9s-33.2-29.1-37.6-57.6
				c-3.5-22.7,2.6-71.1,6.6-92.6c5.6-30.4,12.6-41.5,20.2-57.1s14.8-33.2,16.1-40.5C553.1,1226.1,554.2,1289.5,554.2,1289.5z"/>
			<path class="st2" d="M576.7,1647.8c-5.4,23.9-4.1,34.7-14.4,36.8c-18.8,3.9-22.4-11.2-23.4-22.9c-1-11.7-6.3-16.6-6.3-16.6
				s0.2,43.4,2.4,54.1c1.9,9.3,1.9,14.9,11.9,14.9c14.1,0,24.1,2.3,31.1,0c7.8-2.6,4.8-35.3,5.8-50.5c1.2-17.6,2.1-21.1,1.1-25.5
				C583.9,1633.8,576.7,1647.8,576.7,1647.8z"/>
			<path class="st2" d="M579.5,1495.6c-6.6,0.2-12.1,5.2-13,11.8c-4.7,37.8-8.5,131.6-7.6,137.7c1,6.8,4.3,39,7.3,24.3
				c8.9-43.2,14.2-105.8,19.5-131.7c5.1-25,14.1-31.1,4.4-38.9C585.2,1494.7,586.1,1495.4,579.5,1495.6z"/>
			<path class="st2" d="M550.7,1500.7c8.1,9.3-0.5,172.4-2,172.6c-1.5,0.1-5.4-52.6-12.7-82.8c-7.3-30.2-7.6-79.9-7.6-80
				C531.4,1498.7,544.6,1496.5,550.7,1500.7z"/>
			<path class="st2" d="M532.1,999.4c4.6,19.9,23,235,4.6,258.9c-7.8-13.2-13.5-128.3-31.3-174.6c-9.2-24.1,0.7-55.4,5.1-71.9
				c1.4-5.4,15.4-28,15.4-28L532.1,999.4z"/>
			<path id="triceps-right-2" class="muscle" d="M693.7,497.6c6.3,17.5,17.9,75.4,12.6,100.2c-1.3,5.8-5.8,18.4-9.9,6.6c-6.5-18.6-14.6-37.4-19.2-56.6
				C674.1,535.2,686,513.4,693.7,497.6z"/>
			<path id="forearm-right-7" class="muscle" d="M715.2,613.9c-0.6,6.4-1.7,12.8-1.8,19.4c-0.2,12.6,4,38.8-7.9,47.7c-10.6-10-14.8-27.6-14-41.7
				c0.5-8.1,8.1-13.4,13-19.2c3.8-4.4,7.4-8.9,11.1-13.4C715.5,609.1,715.4,611.5,715.2,613.9z"/>
			<path id="forearm-right-4" class="muscle" d="M735.5,628.1c3.9,32.7,22.4,180.2,34.6,211.9c1,15.1-45.9-77.7-51.4-108.6c-4.3-24.5,3.1-72.1,8.5-83.8
				C732.6,635.9,735.5,628.1,735.5,628.1z"/>
			<path id="forearm-right-5" class="muscle" d="M684.5,659.8c4.6,3.7,7.2,9.7,7.5,10.2c22,57.3,30.9,101.6,57.2,152.4c1.8,3.4,5.2,12.9,9.3,14.1
				c-14.6-4.4-37.3-67.4-66.1-117.7c-6.3-10.9-23.9-54.7-25.3-60.6C665.9,653.9,680.7,656.8,684.5,659.8z"/>
			<path id="forearm-right-6" class="muscle" d="M752.5,659.6c7.3,30.2,17,124.5,38.4,180.5c-17.6-11.7-28.3-53.4-31.2-70.5c-6.2-36.2-11.2-76-13.6-112.6
				c-0.2-3.6-0.3-10.1,4-11.3C752.1,649.8,751.8,655.1,752.5,659.6z"/>
			<path class="st2" d="M504.8,756.4c7.8-4.4,44.8-15.6,59.5-7.3c13.4,7.6,32.7,51.1,31.7,66.1c-15.9-9.8-46.9-35.2-61.1-41
				c-14.1-5.7-36-11.5-36-11.5L504.8,756.4z"/>
			<path id="lower-back-right" class="muscle" d="M472.6,564.7c1.9-3.9,4.9,6.8,10.7,17.1s26.3,59,30.2,69.8c1.9,5.2,30.5,74,22.1,79.5
				c-24.4,15.9-66.9,43.2-66.9,43.2C456,724.7,464.3,581.8,472.6,564.7z"/>
			<path id="traps-right1" class="muscle" d="M486.5,197.8c1.5,2.8,1,6.6,0.8,10.2c-0.5,8,1.6,17.8,2.7,25.9c1.4,10.4,6.3,24.1,11.3,33.3
				c4.6,8.3,9.7,8.3,17.8,13.5c4.9,3.1,7,3.2,11.9,6.2c1.1,0.7,6.5,3.8,5.9,5.3c-0.5,1.4-8.3,1.6-9.7,1.7
				c-14.3,1.6-28.8,1.1-43.2,0.6c-4.3-0.1-8.7-0.3-13-0.5c-1.9-0.1-3.9-0.2-5.5-1.2c-2.7-1.8-3.1-5.6-3.1-8.9
				c-0.5-28.1-1-52.1-1.4-80.2c0-2.4,0-5.1,1.6-6.9c1-1.2,2.6-1.8,4.1-2.2c5.1-1.5,10.5-1.5,15.6,0
				C484.4,195.2,485.7,196.4,486.5,197.8z"/>
			<path class="st2" d="M790.3,848.3c-2-0.3-4.1-0.4-6.1-0.2c-11.6,1.4-31.9,3.7-36.5,16.9c-0.5,1.5-0.6,3.2-0.6,4.8
				c-0.2,17.1,1.9,34.3,6.3,50.9c0.8,3.1,1.8,6.2,3.6,8.9c10.4,14.9,38.4,4.8,50.2-2.7c10.6-6.7,26.5-17.1,27.3-30.7
				c0.7-12.1-6.6-25.1-16.3-32C810.2,858.4,800.5,850.1,790.3,848.3z"/>
			<path class="st2" d="M773.4,942.9c0.1,7.8,0.2,15.5,0.2,23.2c-0.1,5-0.2,10-0.7,14.9c-0.4,4.1-0.5,11.8-3.1,15
				c-1.6,1.9-5.9-10-6.1-10.7c-0.7-3.4-0.6-45.4-2.4-45.6C765.4,940.4,769.5,941.6,773.4,942.9z"/>
			<path class="st2" d="M797.7,942.3c3.2,13.5,4.3,27.7,6.7,41.4c0.8,4.5,1.5,9,2.2,13.5c0.9,5.9,1.9,10.9,1.3,17
				c-0.1,0.6-0.2,1.2-0.5,1.6c-1.7,2-5.7,0-7-1.6c-1.4-1.7-1.9-3.9-2.3-6.1c-1-6-2.4-11.9-3.6-17.8c-1.8-9-3.6-18.1-5.4-27.1
				c-1.1-5.5-2.2-11.1-3.4-16.6c-0.1-0.7-0.3-1.4,0-2C786.3,943.4,797.6,942.2,797.7,942.3z"/>
			<path class="st2" d="M819.1,936.3c1.9,2,3.2,9.4,3.9,11.2c1.7,5,3.5,10,5.3,15c3.6,9.8,7.5,19.5,11.2,29.2
				c2.5,6.5,5.7,12.8,5.6,19.9c-0.1,3.8-4.8,1.9-6.8,1c-6.4-3-7.2-8-9.6-14c-1.9-4.6-3.8-9.1-5.7-13.7c-5.9-14.1-12-28.2-18.7-41.9
				c-0.2-0.5-0.5-1-0.6-1.6c-0.5-5.1,11.4-5.6,14.3-5.7C818.4,935.8,818.8,936,819.1,936.3z"/>
			<path class="st2" d="M836,920.7c3.4,2.9,10.7,19.3,12,21.7c3.7,6.8,7.3,13.5,10.9,20.2c2.9,5.4,8.7,12.6,9.4,18.9
				c0.2,1.5,1.6,10.1-2.2,8.3c-0.6-0.3-1-0.7-1.4-1.2c-10-11.3-17.8-23.9-26.4-36.3c-2.5-3.6-4.9-7.3-7.6-10.9
				c-2.3-3-6.2-5.9-8.1-9.1c-0.8-1.4-0.7-3.1-0.6-4.7c0-0.6,0.1-1.2,0.4-1.7c0.3-0.4,0.8-0.8,1.2-1c3.5-2.1,7.3-3.7,11.2-4.7
				C835.2,920.2,835.6,920.3,836,920.7z"/>
			<path class="st2" d="M838.7,870c6.1,5.8,16.1,17.3,20.2,26c4.2,8.7,21.9,12.1,22.2,17.5s1.5,8.8-1,9s-11.7,0.7-17.3-4.4
				s-9.8-8-13.4-13.2s-6.8-11.2-8.5-19.3c-1.7-8-6.6-19.3-6.6-19.3L838.7,870z"/>
		</g>
	</g>
</g>
</svg>
