<?xml version="1.0" encoding="utf-8"?>
<!-- Generator: Adobe Illustrator 28.0.0, SVG Export Plug-In . SVG Version: 6.00 Build 0)  -->
<svg version="1.1" id="Слой_1" xmlns="http://www.w3.org/2000/svg" xmlns:xlink="http://www.w3.org/1999/xlink" x="0px" y="0px"
	 viewBox="0 0 2000 2000" style="enable-background:new 0 0 2000 2000;" xml:space="preserve">
<style type="text/css">
	.st0{fill:#BE9B8B;}
	.st1{fill:#6F696A;}
	.st2{fill:#3F3B3C;}
</style>
<g id="Art">
	<g id="Anterior_Body">
		<path class="st0" d="M1485.87,1021.96c-2.44-2.56-15.49-10.97-18.66-14.27c-3.17-3.29-3.17-5.85-11.95-20.97
			c-8.78-15.12-41.52-28.53-45.18-29.26s-10.79-9.69-12.62-14.63c-7.54-20.36-25.24-89.99-32.92-152.17
			c-7.68-62.19-36.58-97.3-52.31-118.89c0.73-59.63-12.94-72.05-20.49-91.08c0.73-15,5.94-47.59,2.42-90.43
			c-2.79-33.94-45.22-74.42-71.56-78.08c-17.06-2.37-26.46,1.71-48.53,0c-22.07-1.71-63.41-38.78-65.6-43.16
			c-2.19-4.39-6.83-40.97-3.41-45.6c3.41-4.63,3.9-0.24,7.32-9.75c3.41-9.51,1.57-26.61,1.57-26.61s0.91-3.65,1.54-1.13
			c0.37,1.46,1.1,2.99,2.74,3.84c2.55,1.32,5.73-4.84,9.08-10.67c8.91-15.51,17.26-45.11,4.94-48.83c-2.24-0.68-5.49,5.12-5.49,5.12
			c0-2.93,2.93-30-1.46-46.82c-3.52-13.48-16.68-26.95-27.07-35.12c-12.69-9.97-38.58-10.68-45.03-10.73l0,0c-0.13,0-0.37,0-0.57,0
			s-0.44,0-0.57,0l0,0c-6.45,0.05-32.33,0.75-45.03,10.73c-10.39,8.16-23.55,21.64-27.07,35.12c-4.39,16.83-1.46,43.9-1.46,46.82
			c0,0-3.24-5.8-5.49-5.12c-12.32,3.72-3.97,33.32,4.94,48.83c3.35,5.83,6.53,11.99,9.08,10.67c1.65-0.85,2.38-2.38,2.74-3.84
			c0.63-2.52,1.54,1.13,1.54,1.13s-1.84,17.1,1.57,26.61c3.41,9.51,3.9,5.12,7.32,9.75c3.41,4.63-1.22,41.21-3.41,45.6
			c-2.19,4.39-43.53,41.46-65.6,43.16c-22.07,1.71-31.47-2.37-48.53,0c-26.34,3.66-68.77,44.14-71.56,78.08
			c-3.52,42.85,1.69,75.44,2.42,90.43c-7.54,19.04-21.22,31.46-20.48,91.08c-15.73,21.58-44.63,56.7-52.31,118.89
			s-25.38,131.81-32.92,152.17c-1.83,4.94-8.96,13.9-12.62,14.63s-36.4,14.14-45.18,29.26s-8.78,17.68-11.95,20.97
			c-3.17,3.29-16.22,11.71-18.66,14.27c-2.44,2.56-4.15,12.19,2.68,13.78c6.83,1.59,25.09-2.38,31.03-15.73
			c7.13-4.66,8.87-4.76,8.87-4.76s2.41,7.32,2.04,13.17c-0.37,5.85-12.38,23.78-17.13,34.39c-4.76,10.61-19.02,30.18-15.18,35.67
			s9.33,4.57,11.71,2.74s15.91-24.78,18.56-28.81c3.02-3.93,14.36-18.56,16.37-20.76c-3.23,13.35-8.47,29.08-10.55,35.3
			c-2.07,6.22-11.74,24.94-11.83,31.34c-0.12,8.9,6.02,10.87,10.12,8.17c11.46-7.56,17.9-26.93,20.73-32.56
			c4.79-9.53,10-26.46,14.88-34.26c-1.22,9.51-4.2,22.62-5.79,33.71c-0.81,5.61-5.73,34.5,0.55,36.4
			c9.69,2.93,10.97-8.23,14.81-21.4c3.84-13.17,8.6-45.73,11.52-50.66c4.39,0.91,3.73,4.02,4.57,12.8
			c1.11,11.54,0.18,40.24,8.6,40.24c8.41,0,9.02-28.9,10.12-46.46c1.1-17.56,6.83-26.83,9.75-41.21
			c2.93-14.39,9.74-34.38,9.27-51.21c-0.22-7.82-3.54-14.75,3.17-39.75c4.11-15.34,55.85-116.57,61.66-126.08
			c6.3-10.3,18.08-40.97,21.01-64.38s2.44-24.39,3.9-35.6c1.46-11.22,6-16.16,11.71-22.92c6.58-7.8,16.1-30.97,23.41-62.55
			c3.41-0.12,4.46-2.94,6.1-1.83c0,0,4.39,49.99,13.41,63.89s6.34,19.02,8.29,24.14c1.95,5.12,0.98,38.53-0.49,57.06
			c-1.46,18.53-5.73,83.16-9.75,98.52c-4.02,15.36-9.02,21.95-12.92,41.46s-10.12,45.05-11.46,69.01c0,0-8.2,56.88-7.44,78.28
			c0.81,22.93-5.12,178.88,27.8,216.92c-1.59,7.44-0.12,20.36,0.12,24.26s-9.27,44.38-5.61,71.45s2.19,17.68,1.46,24.45
			c-0.73,6.77-30,97.49,13.9,264.54c2.62,9.98,3.66,30.12,3.66,40.73s-3.66,31.46-3.66,41.34s-0.37,14.63,1.83,20.85
			c2.19,6.22,1.83,16.46,0.37,24.14s-31.09,28.53-33.65,39.87s-5.85,17.92-1.1,21.22c4.76,3.29,6.95,0,6.95,0s-1.83,5.49,1.1,8.41
			c2.93,2.93,11.71,2.56,11.71,2.56s2.93,0.73,4.76,3.66s9.51,4.39,11.34,2.56s2.93-1.68,4.39,0.81c0.79,1.34,4.04,2.92,6.86,4.09
			c2.71,1.12,5.79,0.88,8.29-0.66l5.7-3.51c0,0,4.76,5.49,5.85,5.85c1.1,0.37,12.44,4.39,15.36,0c2.93-4.39,16.83-15,16.1-27.44
			s-1.83-19.39-1.46-23.78s1.46-10.97,3.29-17.56c1.83-6.58,4.02-9.51,2.56-21.95s-0.37-13.17-0.37-15.36s1.83-8.05,2.19-14.63
			c0.37-6.58-4.76-20.12-4.76-20.12s-2.19-13.17-3.29-31.09c-1.1-17.92,2.56-88.52,9.88-111.94c7.32-23.41,11.61-30.74,12.44-36.58
			c8.78-61.82-5.48-128.38-8.05-151.93c-1.46-13.41,4.39-14.88,8.05-28.41s6.58-47.19,2.56-62.19c-2.95-11,10.24-51.21,12.07-63.65
			c1.83-12.44,26.95-108.64,28.29-125.84c1.34-17.19,3.05-70.52-1.46-78.57c2.15,0,8.3,4.27,10.93,5.02c0.11,0.1,0.3,0.12,0.53,0.1
			c0.23,0.02,0.42,0,0.53-0.1c2.62-0.74,8.78-5.02,10.93-5.02c-4.51,8.05-2.8,61.37-1.46,78.57c1.34,17.19,26.46,113.4,28.29,125.84
			c1.83,12.44,15.02,52.65,12.07,63.65c-4.02,15-1.1,48.65,2.56,62.19c3.66,13.53,9.51,15,8.05,28.41
			c-2.57,23.55-16.83,90.11-8.05,151.93c0.83,5.84,5.12,13.17,12.44,36.58c7.32,23.41,10.97,94.01,9.88,111.94
			c-1.1,17.92-3.29,31.09-3.29,31.09s-5.12,13.53-4.76,20.12c0.37,6.58,2.2,12.44,2.2,14.63c0,2.19,1.1,2.93-0.37,15.36
			c-1.46,12.44,0.73,15.36,2.56,21.95c1.83,6.58,2.93,13.17,3.29,17.56c0.37,4.39-0.73,11.34-1.46,23.78
			c-0.73,12.44,13.17,23.05,16.1,27.44c2.93,4.39,14.27,0.37,15.36,0c1.1-0.37,5.85-5.85,5.85-5.85l5.7,3.51
			c2.5,1.54,5.58,1.78,8.29,0.66c2.82-1.17,6.07-2.75,6.86-4.09c1.46-2.49,2.56-2.64,4.39-0.81s9.51,0.37,11.34-2.56
			s4.76-3.66,4.76-3.66s8.78,0.37,11.71-2.56c2.93-2.93,1.1-8.41,1.1-8.41s2.19,3.29,6.95,0s1.46-9.88-1.1-21.22
			c-2.56-11.34-32.19-32.19-33.65-39.87c-1.46-7.68-1.83-17.92,0.37-24.14c2.19-6.22,1.83-10.97,1.83-20.85s-3.66-30.73-3.66-41.34
			s1.04-30.74,3.66-40.73c43.9-167.05,14.63-257.77,13.9-264.54s-2.19,2.62,1.46-24.45c3.66-27.07-5.85-67.55-5.61-71.45
			c0.24-3.9,1.71-16.83,0.12-24.26c32.92-38.04,26.99-193.99,27.8-216.92c0.76-21.4-7.44-78.28-7.44-78.28
			c-1.34-23.97-7.56-49.51-11.46-69.01c-3.9-19.51-8.9-26.09-12.93-41.46c-4.02-15.36-8.29-79.99-9.75-98.52s-2.44-51.94-0.49-57.06
			s-0.73-10.24,8.29-24.14s13.41-63.89,13.41-63.89c1.64-1.11,2.68,1.71,6.1,1.83c7.32,31.58,16.83,54.75,23.41,62.55
			c5.71,6.76,10.24,11.71,11.71,22.92c1.46,11.22,0.98,12.19,3.9,35.6c2.93,23.41,14.71,54.08,21.01,64.38
			c5.82,9.51,57.55,110.74,61.66,126.08c6.71,25,3.39,31.93,3.17,39.75c-0.48,16.84,6.34,36.82,9.27,51.21
			c2.93,14.39,8.66,23.66,9.75,41.21c1.1,17.56,1.71,46.46,10.12,46.46s7.49-28.7,8.6-40.24c0.84-8.79,0.18-11.89,4.57-12.8
			c2.93,4.94,7.68,37.49,11.52,50.66s5.12,24.33,14.82,21.4c6.28-1.89,1.36-30.79,0.55-36.4c-1.6-11.1-4.57-24.2-5.79-33.71
			c4.88,7.8,10.08,24.74,14.88,34.26c2.83,5.63,9.27,25,20.73,32.56c4.1,2.7,10.24,0.73,10.12-8.17
			c-0.09-6.4-9.75-25.12-11.83-31.34c-2.07-6.22-7.32-21.95-10.55-35.3c2.01,2.19,13.35,16.83,16.37,20.76
			c2.65,4.02,16.19,26.98,18.56,28.81c2.38,1.83,7.86,2.74,11.71-2.74c3.84-5.49-10.43-25.06-15.18-35.67
			c-4.76-10.61-16.77-28.53-17.13-34.39c-0.37-5.85,2.04-13.17,2.04-13.17s1.74,0.09,8.87,4.76c5.94,13.35,24.2,17.31,31.03,15.73
			C1490.02,1034.16,1488.31,1024.53,1485.87,1021.96z"/>
		<path class="st1" d="M1101.1,142.7c-15.58-5.6-30.24-10.67-48.61-9.09c-0.1,0.01-0.19,0.13-0.28,0.24
			c-0.09-0.11-0.18-0.23-0.28-0.24c-18.37-1.58-33.02,3.49-48.61,9.09c-24.21,8.7-31.43,41.17-30.93,64.6
			c0,9.67,2.51,19.29,4.65,28.65c2.19,9.6,6.45,9.54,8.1,10.09c25.42,8.41,27.03,41.61,38.23,42.07c7.99,0.32,17.07-0.05,25.14-0.02
			c0.27,0.07,0.53,0.16,0.83,0.14c0.92-0.04,1.89-0.07,2.87-0.09c0.97,0.02,1.94,0.05,2.87,0.09c0.3,0.01,0.56-0.07,0.83-0.14
			c8.07-0.03,17.16,0.35,25.14,0.02c11.2-0.45,12.8-33.65,38.23-42.07c1.66-0.55,5.92-0.49,8.1-10.09
			c2.14-9.37,4.65-18.98,4.65-28.65C1132.54,183.87,1125.31,151.4,1101.1,142.7z"/>
		<g>
			<path class="st2" d="M889.01,1828.37c7.32,0,76.09-1.46,78.53,4.39c2.44,5.85,10.44,20-4.29,20s-55.21-6.83-62.53-9.75
				c-7.32-2.93-16.1-10.24-16.1-10.24L889.01,1828.37z"/>
			<path class="st2" d="M960.51,898.99c-26.57,15.85-41.54,27.07-50.53,41.7s-7.32,40.97,4.88,67.31
				c12.19,26.34,37.56,55.85,50.72,55.85s34.75,16.72,57.07,8.16c19.37-7.43,11.87-20.81,13.85-38.33
				c2.77-24.42,8.83-23,12.12-80.92c0.79-13.94-2.38-37.19-6.28-44.99s-11.89-17.8-15.3-22.19s-5.61-14.03-34.14-1.46
				C981.08,889.32,977.51,888.85,960.51,898.99z"/>
			<path class="st2" d="M939.98,417.6c13.17,13.9,28.08,68.54,36.58,97.3c9.8,33.15,16.87,53.58,42.43,95.11
				c17.19,27.93,16.1,46.09,19.75,43.16c5.12-56.33,16.83-209.97-2.93-226.07s-26.34-13.17-48.29-16.1S939.98,417.6,939.98,417.6z"
				/>
			<path class="st2" d="M891.09,469.05c15.41-8.51,31.43-15.99,47.83-22.37c1.76-0.68,3.6-1.37,5.48-1.19
				c8.62,0.79,12.39,27.57,13.95,33.76c4.97,19.8,9.82,39.61,16.01,59.07c7.54,23.7-27.49,3.66-34.39,0
				c-11.22-5.96-22.02-10.42-31.31-19.56c-11.16-10.97-16.7-25.49-23.06-39.45c-2.15-4.71-3.05-5.41,1.66-8.11
				C888.54,470.47,889.81,469.76,891.09,469.05z"/>
			<path class="st2" d="M906.42,438.56c-4.87-3.12-11.61-6.84-12.6-7.18c-7.36-2.51-15.44-2.97-23.09-1.66
				c-12.53,2.14-25.35,12.59-34.71,20.81c-6.07,5.33-11.76,14.81-14.73,22.32c-4.59,11.61-2.84,21.37-2.82,33.55
				c0.03,14.4,0.06,28.8,0.08,43.2c0,0.11,15.08-6.05,16.48-6.84c7.84-4.38,14.76-10.11,21.38-16.14
				c5.79-5.28,13.58-12.47,13.58-20.98c0-12.83,3.01-25.78,9.96-36.67c7.81-12.25,20.7-17.17,31.5-26.17
				C911.96,442.36,909.59,440.59,906.42,438.56z"/>
			<path class="st2" d="M890.51,508.91c0.36,0.77,0.68,1.4,0.96,1.8c4.67,6.88,10.66,12.81,17.22,17.88
				c11.84,9.16,26.25,18.51,41.16,20.94c8.6,1.4,11.61,2.41,13.9,3.69s-2.01,5.12-2.01,5.58s-13.23,7.56-27.38,9.27
				c-21.02,2.54-42.41-6.7-52.01-26.12c-3.63-7.35-5.46-15.49-5.87-23.65c-0.34-6.75-1.72-14.37,2.87-20.11
				C883.88,492.53,888.1,503.82,890.51,508.91z"/>
			<path class="st2" d="M867.55,526.61c-49.49,35.12-48.77,57.55-44.38,86.33c4,26.19,15.8-2.14,23.72-7.96
				c5.76-4.24,11.61-8.31,17.28-12.69c1.86-1.44,12.86-8.19,12.48-11.05C876.33,578.8,867.55,526.61,867.55,526.61z"/>
			<path class="st2" d="M874.87,591.72c-9.94,8.32-19.72,16.92-28.98,26c-9.29,9.11-11.23,15.68-11.4,28.95
				c-0.23,19.14-5.97,37.6-8.83,56.4c-1.45,9.55-2.21,19.28-0.97,28.89c1.46,11.33,3.65,5.85,8.7,0.35
				c2.56-2.79,5.07-5.61,7.42-8.58c7.25-9.14,7.36-17.05,8.82-28.49c1.6-12.53,11.21-17.1,16.83-28.53
				c3.51-7.14,5.45-22.54,8.96-29.68c7.3-14.84,9.28-31.8,4.21-47.51C879.62,589.53,874.87,591.72,874.87,591.72z"/>
			<path class="st2" d="M982.17,553.92c7.8,14.42,24.39,54.42,30.24,65.63c5.85,11.22,14.63,15.61,12.68,27.31
				c-1.95,11.71-17.66,54.35-24.39,68.49s-16.58,42.92-21.95,55.88c-5.72,13.82-10.73,28.78-13.17,36.09
				c-1.97,5.92-20.9-21.09-28.03-31.59c-1.78-2.61-2.99-5.55-3.56-8.66c-1.95-10.6-6.85-37.61-10.85-62.67
				c-2.32-14.52-6.83-20.48-10.73-52.68c-3.9-32.19-1.95-26.83-11.71-43.41c-9.75-16.58-12.19-38.04-10.24-38.53
				c13.17,9.75,27.19,9.53,36.85,11.22c2.62,0.46,10.82,1.63,20.7-1.69c16.4-5.51,18.92-8.29,22.33-14.63
				C973.78,558.36,982.17,553.92,982.17,553.92z"/>
			<path class="st2" d="M934.33,785.04c1.35,0.4,2.57,1.32,3.83,2.72c5.16,5.76,9.95,11.86,14.33,18.25
				c4.11,6,9.66,13.07,11.27,20.31c1.29,5.82-16.17,13.65-19.78,15.97c-8.81,5.66-16.34,12.45-21.69,21.57
				c-3.18,5.43-4.29,2.3-4.99-2.18c-2.09-13.43-3.71-27.61-2.57-41.43c0.97-11.65,2.66-29.87,14.92-34.77
				C931.45,784.77,932.96,784.63,934.33,785.04z"/>
			<path class="st2" d="M990.58,1086.77c8.78,7.8,33.31,50.99,25.51,92.93c-7.8,41.95,12.11-26.85,16.56-53.79
				c3.52-21.3,5.71-37.56,1.71-41.09C1028.07,1079.27,990.58,1086.77,990.58,1086.77z"/>
			<path class="st2" d="M885.11,1037.27c-2.93,19.02,3.9,162.9,15.12,206.31s8.67,17.07,6.29-4.39s4.44-76.57,5.42-96.08
				c0.98-19.51-2.93-67.8-11.22-88.77s-6.83-21.95-11.71-29.26C884.13,1017.76,885.11,1037.27,885.11,1037.27z"/>
			<path class="st2" d="M915.01,1305.03c-5.06,24.84-7.95,68.77-10.39,70.72c20.97-22.44,44.27-105.03,49.75-132.66
				c5.41-27.29,5.49-117.12,7.93-131.75c2.44-14.63-0.19-13.55-2.46-21.4c-3.29-11.4-16.7-29.93-23.6-36.82
				C909.9,1026.78,930.47,1229.18,915.01,1305.03z"/>
			<path class="st2" d="M1008.99,1180.17c0,25.85-23.41,93.16-21.95,123.4c1.46,30.24-4.65,82.92-5.63,87.3
				c10.24-23.9,15.11-75.6,15.6-100.96s17.34-69.26,15.39-83.89C1010.46,1191.39,1008.99,1180.17,1008.99,1180.17z"/>
			<path class="st2" d="M924.62,1365.76c-39.51,46.09-29.63,159-23.05,189s7.44,35.26,21.26,35.07c5.42-0.07,17.64-7.75,15.45-32.63
				c-2.19-24.87,0.49-93.82,0.49-121.45c0-16.1,4.39-94.52,4.39-94.52L924.62,1365.76z"/>
			<path class="st2" d="M950.31,1398.19c5.47,57.07,1.14,128.23,0,149.73c-1.08,20.48-2.11,39.95,7.64,41.9
				c9.75,1.95,33.25-29.1,37.64-57.63c3.49-22.68-2.62-71.08-6.58-92.55c-5.62-30.42-12.62-41.46-20.21-57.07
				s-14.78-33.17-16.06-40.48C951.44,1334.79,950.31,1398.19,950.31,1398.19z"/>
			<path class="st2" d="M927.8,1756.56c5.37,23.9,4.1,34.69,14.39,36.82c18.78,3.9,22.44-11.22,23.41-22.92
				c0.98-11.71,6.34-16.58,6.34-16.58s-0.18,43.41-2.44,54.14c-1.95,9.27-1.86,14.86-11.86,14.86c-14.07,0-24.12,2.33-31.06,0.02
				c-7.85-2.62-4.77-35.27-5.85-50.48c-1.25-17.56-2.07-21.09-1.09-25.48C920.61,1742.54,927.8,1756.56,927.8,1756.56z"/>
			<path class="st2" d="M925.01,1604.27c6.63,0.17,12.14,5.21,12.96,11.79c4.72,37.85,8.49,131.56,7.62,137.69
				c-0.98,6.83-4.29,38.96-7.32,24.27c-8.9-43.17-14.2-105.78-19.51-131.69c-5.12-25-14.14-31.09-4.39-38.9
				C919.35,1603.45,918.47,1604.1,925.01,1604.27z"/>
			<path class="st2" d="M953.86,1609.38c-8.14,9.27,0.52,172.45,1.97,172.56c1.46,0.1,5.37-52.57,12.68-82.81s7.59-79.86,7.56-79.99
				C973.13,1607.44,959.98,1605.19,953.86,1609.38z"/>
			<path class="st2" d="M972.47,1108.07c-4.61,19.92-23.01,235-4.61,258.91c7.8-13.17,13.53-128.27,31.34-174.61
				c9.25-24.06-0.73-55.36-5.08-71.94c-1.41-5.38-15.36-28.04-15.36-28.04L972.47,1108.07z"/>
			<path class="st2" d="M810.85,606.35c-6.34,17.52-17.92,75.36-12.56,100.24c1.26,5.83,5.82,18.42,9.93,6.56
				c6.46-18.64,14.6-37.37,19.17-56.59C830.4,643.91,818.53,622.08,810.85,606.35z"/>
			<path class="st2" d="M789.37,722.64c0.59,6.44,1.68,12.83,1.8,19.38c0.23,12.56-4.01,38.75,7.91,47.7
				c10.56-10,14.81-27.62,14-41.68c-0.47-8.06-8.07-13.41-13.03-19.24c-3.76-4.41-7.44-8.9-11.05-13.44
				C789,717.8,789.15,720.23,789.37,722.64z"/>
			<path class="st2" d="M769.03,736.82c-3.9,32.68-22.44,180.22-34.63,211.92c-0.98,15.12,45.91-77.73,51.4-108.64
				c4.35-24.51-3.11-72.06-8.47-83.77C771.96,744.63,769.03,736.82,769.03,736.82z"/>
			<path class="st2" d="M820,768.53c-4.63,3.66-7.25,9.67-7.47,10.25c-21.97,57.32-30.92,101.62-57.16,152.41
				c-1.75,3.39-5.15,12.9-9.27,14.13c14.63-4.39,37.31-67.42,66.12-117.67c6.26-10.92,23.87-54.73,25.33-60.58
				C838.66,762.63,823.87,765.47,820,768.53z"/>
			<path class="st2" d="M752.08,768.28c-7.32,30.24-16.96,124.49-38.42,180.46c17.56-11.71,28.3-53.41,31.23-70.48
				c6.2-36.17,11.16-76.01,13.62-112.57c0.24-3.61,0.34-10.14-3.97-11.26C752.46,758.53,752.76,763.77,752.08,768.28z"/>
			<path class="st2" d="M999.73,865.1c-7.8-4.39-44.78-15.61-59.5-7.32c-13.41,7.56-32.68,51.1-31.7,66.09
				c15.95-9.75,46.94-35.25,61.09-40.97c14.14-5.72,35.97-11.46,35.97-11.46L999.73,865.1z"/>
			<path class="st2" d="M1031.92,673.42c-1.9-3.92-4.88,6.83-10.73,17.07s-26.34,59.02-30.24,69.75
				c-1.89,5.2-30.48,74.01-22.07,79.5c24.42,15.93,66.94,43.16,66.94,43.16C1048.5,833.39,1040.21,690.49,1031.92,673.42z"/>
			<path class="st2" d="M1018.08,306.53c-1.47,2.77-1,6.65-0.79,10.23c0.47,8.02-1.57,17.82-2.69,25.85
				c-1.45,10.42-6.3,24.13-11.34,33.29c-4.55,8.28-9.73,8.32-17.8,13.46c-4.86,3.09-7.02,3.21-11.91,6.24
				c-1.07,0.66-6.46,3.77-5.92,5.28c0.49,1.37,8.29,1.58,9.74,1.74c14.34,1.59,28.8,1.08,43.19,0.56c4.34-0.15,8.67-0.31,13.01-0.46
				c1.89-0.07,3.89-0.17,5.47-1.22c2.73-1.83,3.06-5.65,3.12-8.94c0.48-28.09,0.96-52.12,1.44-80.21c0.04-2.41,0-5.07-1.6-6.88
				c-1.04-1.18-2.56-1.79-4.07-2.22c-5.05-1.47-10.53-1.46-15.58,0.03C1020.16,303.91,1018.85,305.07,1018.08,306.53z"/>
			<path class="st2" d="M714.22,957.04c2.02-0.35,4.05-0.44,6.09-0.2c11.62,1.38,31.87,3.72,36.48,16.86
				c0.54,1.53,0.58,3.17,0.59,4.79c0.16,17.13-1.93,34.31-6.34,50.87c-0.83,3.11-1.8,6.25-3.64,8.89
				c-10.4,14.89-38.44,4.77-50.17-2.66c-10.6-6.71-26.53-17.09-27.26-30.73c-0.65-12.12,6.6-25.12,16.35-32.04
				C694.32,967.15,704.06,958.8,714.22,957.04z"/>
			<path class="st2" d="M731.17,1051.66c-0.14,7.75-0.25,15.5-0.2,23.25c0.05,4.98,0.19,9.97,0.69,14.94
				c0.42,4.13,0.52,11.78,3.12,15.03c1.55,1.93,5.92-9.97,6.06-10.7c0.68-3.38,0.56-45.37,2.39-45.58
				C739.16,1049.07,735.04,1050.31,731.17,1051.66z"/>
			<path class="st2" d="M706.88,1051.03c-3.22,13.53-4.35,27.69-6.65,41.41c-0.75,4.49-1.51,8.98-2.21,13.48
				c-0.92,5.95-1.94,10.86-1.27,16.98c0.06,0.57,0.15,1.17,0.51,1.61c1.69,2.02,5.72-0.04,6.96-1.57c1.37-1.7,1.92-3.9,2.27-6.05
				c0.97-5.98,2.39-11.89,3.6-17.83c1.83-9.01,3.56-18.05,5.38-27.06c1.12-5.54,2.24-11.08,3.36-16.62c0.14-0.67,0.27-1.4-0.03-2.02
				C718.2,1052.08,706.92,1050.89,706.88,1051.03z"/>
			<path class="st2" d="M685.45,1045.02c-1.94,2.01-3.24,9.4-3.86,11.24c-1.68,5.04-3.47,10.04-5.31,15.02
				c-3.62,9.78-7.46,19.48-11.16,29.23c-2.47,6.5-5.71,12.78-5.62,19.91c0.05,3.81,4.76,1.93,6.76,0.99
				c6.39-3.02,7.2-8.04,9.6-13.96c1.86-4.58,3.76-9.14,5.67-13.69c5.94-14.12,11.96-28.18,18.73-41.92
				c0.25-0.51,0.51-1.04,0.57-1.61c0.52-5.06-11.37-5.59-14.35-5.71C686.11,1044.5,685.77,1044.69,685.45,1045.02z"/>
			<path class="st2" d="M668.58,1029.38c-3.44,2.89-10.71,19.33-11.99,21.68c-3.65,6.75-7.29,13.5-10.93,20.25
				c-2.94,5.45-8.7,12.6-9.38,18.88c-0.21,1.54-1.63,10.07,2.16,8.34c0.57-0.26,1-0.74,1.41-1.21c10-11.34,17.77-23.92,26.36-36.29
				c2.52-3.63,4.91-7.34,7.58-10.86c2.3-3.03,6.23-5.86,8.05-9.1c0.79-1.41,0.69-3.13,0.57-4.74c-0.04-0.58-0.09-1.18-0.4-1.67
				c-0.28-0.45-0.75-0.76-1.2-1.04c-3.47-2.12-7.27-3.7-11.22-4.66C669.32,1028.89,668.97,1029.05,668.58,1029.38z"/>
			<path class="st2" d="M665.79,978.74c-6.1,5.85-16.1,17.28-20.24,25.95c-4.15,8.68-21.95,12.09-22.19,17.46s-1.46,8.78,0.98,9.02
				s11.71,0.73,17.31-4.39s9.75-8.05,13.41-13.17s6.83-11.22,8.54-19.27c1.71-8.05,6.58-19.27,6.58-19.27L665.79,978.74z"/>
			<path class="st2" d="M1217.15,1828.37c-7.32,0-76.09-1.46-78.53,4.39c-2.44,5.85-10.44,20,4.29,20s55.21-6.83,62.53-9.75
				s16.1-10.24,16.1-10.24L1217.15,1828.37z"/>
			<path class="st2" d="M1143.93,898.99c26.57,15.85,41.54,27.07,50.53,41.7s7.32,40.97-4.88,67.31
				c-12.19,26.34-37.56,55.85-50.72,55.85c-13.17,0-34.75,16.72-57.07,8.16c-19.37-7.43-11.87-20.81-13.85-38.33
				c-2.77-24.42-8.83-23-12.12-80.92c-0.79-13.94,2.38-37.19,6.28-44.99s11.89-17.8,15.3-22.19s5.61-14.03,34.14-1.46
				C1123.36,889.32,1126.93,888.85,1143.93,898.99z"/>
			<path class="st2" d="M1164.46,417.6c-13.17,13.9-28.08,68.54-36.58,97.3c-9.8,33.15-16.87,53.58-42.43,95.11
				c-17.19,27.93-16.1,46.09-19.75,43.16c-5.12-56.33-16.83-209.97,2.93-226.07s26.34-13.17,48.29-16.1S1164.46,417.6,1164.46,417.6
				z"/>
			<path class="st2" d="M1213.35,469.05c-15.41-8.51-31.43-15.99-47.83-22.37c-1.76-0.68-3.6-1.37-5.48-1.19
				c-8.62,0.79-12.39,27.57-13.95,33.76c-4.97,19.8-9.82,39.61-16.01,59.07c-7.54,23.7,27.49,3.66,34.39,0
				c11.22-5.96,22.02-10.42,31.31-19.56c11.16-10.97,16.7-25.49,23.06-39.45c2.15-4.71,3.05-5.41-1.66-8.11
				C1215.9,470.47,1214.63,469.76,1213.35,469.05z"/>
			<path class="st2" d="M1198.02,438.56c4.87-3.12,11.61-6.84,12.6-7.18c7.36-2.51,15.44-2.97,23.09-1.66
				c12.53,2.14,25.35,12.59,34.71,20.81c6.06,5.33,11.76,14.81,14.73,22.32c4.59,11.61,2.84,21.37,2.82,33.55
				c-0.03,14.4-0.06,28.8-0.08,43.2c0,0.11-15.08-6.05-16.48-6.84c-7.84-4.38-14.76-10.11-21.38-16.14
				c-5.79-5.28-13.58-12.47-13.58-20.98c0-12.83-3.01-25.78-9.96-36.67c-7.81-12.25-20.7-17.17-31.5-26.17
				C1192.48,442.36,1194.85,440.59,1198.02,438.56z"/>
			<path class="st2" d="M1213.93,508.91c-0.36,0.77-0.69,1.4-0.96,1.8c-4.67,6.88-10.66,12.81-17.22,17.88
				c-11.84,9.16-26.25,18.51-41.16,20.94c-8.6,1.4-11.61,2.41-13.9,3.69s2.01,5.12,2.01,5.58s13.23,7.56,27.38,9.27
				c21.02,2.54,42.41-6.7,52.01-26.12c3.63-7.35,5.46-15.49,5.87-23.65c0.34-6.75,1.72-14.37-2.87-20.11
				C1220.56,492.53,1216.34,503.82,1213.93,508.91z"/>
			<path class="st2" d="M1236.89,526.61c49.49,35.12,48.77,57.55,44.38,86.33c-4,26.19-15.8-2.14-23.72-7.96
				c-5.76-4.24-11.61-8.31-17.28-12.69c-1.86-1.44-12.86-8.19-12.48-11.05C1228.11,578.8,1236.89,526.61,1236.89,526.61z"/>
			<path class="st2" d="M1229.58,591.72c9.94,8.32,19.72,16.92,28.98,26c9.29,9.11,11.23,15.68,11.4,28.95
				c0.23,19.14,5.97,37.6,8.83,56.4c1.45,9.55,2.21,19.28,0.97,28.89c-1.46,11.33-3.65,5.85-8.7,0.35
				c-2.56-2.79-5.07-5.61-7.42-8.58c-7.25-9.14-7.36-17.05-8.82-28.49c-1.6-12.53-11.21-17.1-16.83-28.53
				c-3.51-7.14-5.45-22.54-8.96-29.68c-7.3-14.84-9.28-31.8-4.21-47.51C1224.82,589.53,1229.57,591.72,1229.58,591.72z"/>
			<path class="st2" d="M1122.27,553.92c-7.8,14.42-24.39,54.42-30.24,65.63s-14.63,15.61-12.68,27.31s17.66,54.35,24.39,68.49
				c6.72,14.14,16.58,42.92,21.95,55.88c5.72,13.82,10.73,28.78,13.17,36.09c1.97,5.92,20.9-21.09,28.03-31.59
				c1.78-2.61,2.98-5.55,3.56-8.66c1.95-10.6,6.85-37.61,10.85-62.67c2.32-14.52,6.83-20.48,10.73-52.68
				c3.9-32.19,1.95-26.83,11.71-43.41c9.75-16.58,12.19-38.04,10.24-38.53c-13.17,9.75-27.19,9.53-36.85,11.22
				c-2.62,0.46-10.82,1.63-20.7-1.69c-16.4-5.51-18.92-8.29-22.33-14.63C1130.67,558.36,1122.27,553.92,1122.27,553.92z"/>
			<path class="st2" d="M1170.11,785.04c-1.35,0.4-2.57,1.32-3.83,2.72c-5.16,5.76-9.95,11.86-14.33,18.25
				c-4.11,6-9.66,13.07-11.27,20.31c-1.29,5.82,16.17,13.65,19.78,15.97c8.81,5.66,16.34,12.45,21.69,21.57
				c3.18,5.43,4.29,2.3,4.99-2.18c2.09-13.43,3.71-27.61,2.57-41.43c-0.97-11.65-2.66-29.87-14.92-34.77
				C1172.99,784.77,1171.48,784.63,1170.11,785.04z"/>
			<path class="st2" d="M1113.86,1086.77c-8.78,7.8-33.31,50.99-25.51,92.93c7.8,41.95-12.11-26.85-16.56-53.79
				c-3.52-21.3-5.71-37.56-1.71-41.09C1076.37,1079.27,1113.86,1086.77,1113.86,1086.77z"/>
			<path class="st2" d="M1219.33,1037.27c2.93,19.02-3.9,162.9-15.12,206.31s-8.67,17.07-6.29-4.39s-4.44-76.57-5.42-96.08
				c-0.98-19.51,2.93-67.8,11.22-88.77s6.83-21.95,11.71-29.26C1220.31,1017.76,1219.33,1037.27,1219.33,1037.27z"/>
			<path class="st2" d="M1189.43,1305.03c5.06,24.84,7.95,68.77,10.39,70.72c-20.97-22.44-44.28-105.03-49.75-132.66
				c-5.41-27.29-5.49-117.12-7.93-131.75c-2.44-14.63,0.19-13.55,2.46-21.4c3.29-11.4,16.7-29.93,23.6-36.82
				C1194.54,1026.78,1173.97,1229.18,1189.43,1305.03z"/>
			<path class="st2" d="M1095.45,1180.17c0,25.85,23.41,93.16,21.95,123.4c-1.46,30.24,4.65,82.92,5.63,87.3
				c-10.24-23.9-15.11-75.6-15.6-100.96s-17.34-69.26-15.39-83.89C1093.98,1191.39,1095.45,1180.17,1095.45,1180.17z"/>
			<path class="st2" d="M1179.82,1365.76c39.51,46.09,29.63,159,23.05,189s-7.44,35.26-21.26,35.07
				c-5.42-0.07-17.64-7.75-15.45-32.63c2.19-24.87-0.49-93.82-0.49-121.45c0-16.1-4.39-94.52-4.39-94.52L1179.82,1365.76z"/>
			<path class="st2" d="M1154.13,1398.19c-5.47,57.07-1.14,128.23,0,149.73c1.08,20.48,2.11,39.95-7.64,41.9
				s-33.25-29.1-37.64-57.63c-3.49-22.68,2.62-71.08,6.58-92.55c5.62-30.42,12.62-41.46,20.21-57.07s14.78-33.17,16.06-40.48
				C1153,1334.79,1154.13,1398.19,1154.13,1398.19z"/>
			<path class="st2" d="M1176.64,1756.56c-5.36,23.9-4.1,34.69-14.39,36.82c-18.78,3.9-22.44-11.22-23.41-22.92
				c-0.98-11.71-6.34-16.58-6.34-16.58s0.18,43.41,2.44,54.14c1.95,9.27,1.86,14.86,11.86,14.86c14.07,0,24.12,2.33,31.06,0.02
				c7.85-2.62,4.77-35.27,5.85-50.48c1.25-17.56,2.07-21.09,1.09-25.48C1183.83,1742.54,1176.64,1756.56,1176.64,1756.56z"/>
			<path class="st2" d="M1179.43,1604.27c-6.63,0.17-12.14,5.21-12.96,11.79c-4.72,37.85-8.49,131.56-7.62,137.69
				c0.98,6.83,4.29,38.96,7.32,24.27c8.9-43.17,14.2-105.78,19.51-131.69c5.12-25,14.14-31.09,4.39-38.9
				C1185.09,1603.45,1185.97,1604.1,1179.43,1604.27z"/>
			<path class="st2" d="M1150.58,1609.38c8.14,9.27-0.52,172.45-1.97,172.56c-1.46,0.1-5.37-52.57-12.68-82.81
				c-7.32-30.24-7.59-79.86-7.56-79.99C1131.31,1607.44,1144.46,1605.19,1150.58,1609.38z"/>
			<path class="st2" d="M1131.97,1108.07c4.61,19.92,23.01,235,4.61,258.91c-7.8-13.17-13.53-128.27-31.34-174.61
				c-9.25-24.06,0.73-55.36,5.08-71.94c1.41-5.38,15.36-28.04,15.36-28.04L1131.97,1108.07z"/>
			<path class="st2" d="M1293.59,606.35c6.34,17.52,17.92,75.36,12.56,100.24c-1.26,5.83-5.82,18.42-9.93,6.56
				c-6.46-18.64-14.6-37.37-19.17-56.59C1274.04,643.91,1285.91,622.08,1293.59,606.35z"/>
			<path class="st2" d="M1315.07,722.64c-0.59,6.44-1.68,12.83-1.8,19.38c-0.23,12.56,4.01,38.75-7.91,47.7
				c-10.56-10-14.81-27.62-14-41.68c0.47-8.06,8.07-13.41,13.03-19.24c3.76-4.41,7.44-8.9,11.05-13.44
				C1315.44,717.8,1315.29,720.23,1315.07,722.64z"/>
			<path class="st2" d="M1335.41,736.82c3.9,32.68,22.44,180.22,34.63,211.92c0.98,15.12-45.91-77.73-51.4-108.64
				c-4.35-24.51,3.11-72.06,8.47-83.77C1332.49,744.63,1335.41,736.82,1335.41,736.82z"/>
			<path class="st2" d="M1284.44,768.53c4.63,3.66,7.25,9.67,7.47,10.25c21.97,57.32,30.92,101.62,57.16,152.41
				c1.75,3.39,5.15,12.9,9.27,14.13c-14.63-4.39-37.31-67.42-66.12-117.67c-6.26-10.92-23.87-54.73-25.33-60.58
				C1265.78,762.63,1280.57,765.47,1284.44,768.53z"/>
			<path class="st2" d="M1352.36,768.28c7.32,30.24,16.96,124.49,38.42,180.46c-17.56-11.71-28.3-53.41-31.23-70.48
				c-6.2-36.17-11.16-76.01-13.62-112.57c-0.24-3.61-0.34-10.14,3.97-11.26C1351.98,758.53,1351.68,763.77,1352.36,768.28z"/>
			<path class="st2" d="M1104.71,865.1c7.8-4.39,44.78-15.61,59.5-7.32c13.41,7.56,32.68,51.1,31.7,66.09
				c-15.95-9.75-46.94-35.25-61.09-40.97c-14.14-5.72-35.97-11.46-35.97-11.46L1104.71,865.1z"/>
			<path class="st2" d="M1072.52,673.42c1.9-3.92,4.88,6.83,10.73,17.07s26.34,59.02,30.24,69.75c1.89,5.2,30.48,74.01,22.07,79.5
				c-24.42,15.93-66.94,43.16-66.94,43.16C1055.94,833.39,1064.23,690.49,1072.52,673.42z"/>
			<path class="st2" d="M1086.36,306.53c1.47,2.77,1,6.65,0.79,10.23c-0.47,8.02,1.57,17.82,2.69,25.85
				c1.45,10.42,6.3,24.13,11.34,33.29c4.55,8.28,9.73,8.32,17.8,13.46c4.86,3.09,7.02,3.21,11.91,6.24
				c1.07,0.66,6.46,3.77,5.92,5.28c-0.49,1.37-8.29,1.58-9.74,1.74c-14.34,1.59-28.8,1.08-43.19,0.56
				c-4.34-0.15-8.67-0.31-13.01-0.46c-1.89-0.07-3.89-0.17-5.47-1.22c-2.73-1.83-3.06-5.65-3.12-8.94
				c-0.48-28.09-0.96-52.12-1.44-80.21c-0.04-2.41,0-5.07,1.6-6.88c1.04-1.18,2.56-1.79,4.07-2.22c5.05-1.47,10.53-1.46,15.58,0.03
				C1084.28,303.91,1085.59,305.07,1086.36,306.53z"/>
			<path class="st2" d="M1390.22,957.04c-2.02-0.35-4.05-0.44-6.09-0.2c-11.62,1.38-31.87,3.72-36.48,16.86
				c-0.54,1.53-0.58,3.17-0.59,4.79c-0.16,17.13,1.93,34.31,6.34,50.87c0.83,3.11,1.8,6.25,3.64,8.89
				c10.4,14.89,38.44,4.77,50.17-2.66c10.6-6.71,26.53-17.09,27.26-30.73c0.65-12.12-6.6-25.12-16.35-32.04
				C1410.12,967.15,1400.38,958.8,1390.22,957.04z"/>
			<path class="st2" d="M1373.27,1051.66c0.14,7.75,0.25,15.5,0.2,23.25c-0.05,4.98-0.19,9.97-0.69,14.94
				c-0.42,4.13-0.52,11.78-3.12,15.03c-1.55,1.93-5.92-9.97-6.06-10.7c-0.68-3.38-0.56-45.37-2.39-45.58
				C1365.28,1049.07,1369.4,1050.31,1373.27,1051.66z"/>
			<path class="st2" d="M1397.56,1051.03c3.22,13.53,4.35,27.69,6.65,41.41c0.75,4.49,1.51,8.98,2.21,13.48
				c0.92,5.95,1.94,10.86,1.27,16.98c-0.06,0.57-0.15,1.17-0.51,1.61c-1.69,2.02-5.72-0.04-6.96-1.57c-1.37-1.7-1.92-3.9-2.27-6.05
				c-0.97-5.98-2.39-11.89-3.6-17.83c-1.83-9.01-3.56-18.05-5.38-27.06c-1.12-5.54-2.24-11.08-3.36-16.62
				c-0.14-0.67-0.27-1.4,0.03-2.02C1386.24,1052.08,1397.53,1050.89,1397.56,1051.03z"/>
			<path class="st2" d="M1418.99,1045.02c1.94,2.01,3.24,9.4,3.86,11.24c1.68,5.04,3.47,10.04,5.31,15.02
				c3.62,9.78,7.46,19.48,11.16,29.23c2.47,6.5,5.71,12.78,5.62,19.91c-0.05,3.81-4.76,1.93-6.76,0.99
				c-6.39-3.02-7.2-8.04-9.6-13.96c-1.86-4.58-3.76-9.14-5.67-13.69c-5.94-14.12-11.96-28.18-18.73-41.92
				c-0.25-0.51-0.51-1.04-0.57-1.61c-0.52-5.06,11.37-5.59,14.35-5.71C1418.33,1044.5,1418.67,1044.69,1418.99,1045.02z"/>
			<path class="st2" d="M1435.87,1029.38c3.44,2.89,10.72,19.33,11.99,21.68c3.65,6.75,7.29,13.5,10.93,20.25
				c2.94,5.45,8.7,12.6,9.38,18.88c0.21,1.54,1.63,10.07-2.16,8.34c-0.57-0.26-1-0.74-1.41-1.21c-10-11.34-17.77-23.92-26.36-36.29
				c-2.52-3.63-4.91-7.34-7.58-10.86c-2.3-3.03-6.23-5.86-8.05-9.1c-0.79-1.41-0.69-3.13-0.57-4.74c0.04-0.58,0.09-1.18,0.4-1.67
				c0.28-0.45,0.75-0.76,1.2-1.04c3.47-2.12,7.27-3.7,11.22-4.66C1435.12,1028.89,1435.47,1029.05,1435.87,1029.38z"/>
			<path class="st2" d="M1438.65,978.74c6.1,5.85,16.1,17.28,20.24,25.95c4.15,8.68,21.95,12.09,22.19,17.46s1.46,8.78-0.98,9.02
				s-11.71,0.73-17.31-4.39s-9.75-8.05-13.41-13.17s-6.83-11.22-8.54-19.27c-1.71-8.05-6.58-19.27-6.58-19.27L1438.65,978.74z"/>
		</g>
	</g>
</g>
</svg>
