<?xml version="1.0" encoding="utf-8"?>
<!-- Generator: Adobe Illustrator 28.0.0, SVG Export Plug-In . SVG Version: 6.00 Build 0)  -->
<svg version="1.1" id="Слой_1" xmlns="http://www.w3.org/2000/svg" xmlns:xlink="http://www.w3.org/1999/xlink" x="0px" y="0px"
	 viewBox="0 0 844.5 1733.2" style="enable-background:new 0 0 844.5 1733.2;" xml:space="preserve">
<style type="text/css">
	.st0{fill:#BE9B8B;}
	.st1{fill:#6F6F6F;}
</style>
<g id="Background">
</g>
<g id="Art">
	<g id="Anterior_Body">
		<path class="st0" d="M849.7,888.5c-2.4-2.6-15-11-18.1-14.3c-3.1-3.3-3.1-5.8-11.6-21c-8.5-15.1-40.2-28.5-43.7-29.3
			c-3.5-0.7-10.4-9.7-12.2-14.6c-7.3-20.4-24.4-90-31.8-152.2c-7.4-62.2-35.4-97.3-50.6-118.9c0.7-59.6-12.5-72-19.8-91.1
			c0.7-15,5.7-47.6,2.3-90.4c-2.7-33.9-43.7-74.4-69.2-78.1c-16.5-2.4-25.6,1.7-46.9,0c-21.3-1.7-61.3-38.8-63.5-43.2
			c-2.1-4.4-6.6-41-3.3-45.6c3.3-4.6,3.8-0.2,7.1-9.8c3.3-9.5,1.5-26.6,1.5-26.6s0.9-3.6,1.5-1.1c0.4,1.5,1.1,3,2.7,3.8
			c2.5,1.3,5.5-4.8,8.8-10.7c8.6-15.5,16.7-45.1,4.8-48.8c-2.2-0.7-5.3,5.1-5.3,5.1c0-2.9,2.8-30-1.4-46.8
			c-3.4-13.5-16.1-26.9-26.2-35.1c-12.3-10-37.3-10.7-43.6-10.7l0,0c-0.1,0-0.4,0-0.6,0c-0.2,0-0.4,0-0.6,0l0,0
			c-6.2,0.1-31.3,0.8-43.6,10.7c-10.1,8.2-22.8,21.6-26.2,35.1c-4.2,16.8-1.4,43.9-1.4,46.8c0,0-3.1-5.8-5.3-5.1
			c-11.9,3.7-3.8,33.3,4.8,48.8c3.2,5.8,6.3,12,8.8,10.7c1.6-0.9,2.3-2.4,2.7-3.8c0.6-2.5,1.5,1.1,1.5,1.1s-1.8,17.1,1.5,26.6
			c3.3,9.5,3.8,5.1,7.1,9.8c3.3,4.6-1.2,41.2-3.3,45.6s-42.1,41.5-63.5,43.2c-21.4,1.7-30.4-2.4-46.9,0
			c-25.5,3.7-66.5,44.1-69.2,78.1c-3.4,42.8,1.6,75.4,2.3,90.4c-7.3,19-20.5,31.5-19.8,91.1c-15.2,21.6-43.2,56.7-50.6,118.9
			S104.3,789,97,809.4c-1.8,4.9-8.7,13.9-12.2,14.6c-3.5,0.7-35.2,14.1-43.7,29.3c-8.5,15.1-8.5,17.7-11.6,21S13.8,886,11.5,888.5
			s-4,12.2,2.6,13.8c6.6,1.6,24.3-2.4,30-15.7c6.9-4.7,8.6-4.8,8.6-4.8s2.3,7.3,2,13.2c-0.4,5.8-12,23.8-16.6,34.4
			C33.4,940,19.6,959.5,23.4,965s9,4.6,11.3,2.7s15.4-24.8,18-28.8c2.9-3.9,13.9-18.6,15.8-20.8c-3.1,13.3-8.2,29.1-10.2,35.3
			c-2,6.2-11.4,24.9-11.4,31.3c-0.1,8.9,5.8,10.9,9.8,8.2c11.1-7.6,17.3-26.9,20.1-32.6c4.6-9.5,9.7-26.5,14.4-34.3
			c-1.2,9.5-4.1,22.6-5.6,33.7c-0.8,5.6-5.5,34.5,0.5,36.4c9.4,2.9,10.6-8.2,14.3-21.4c3.7-13.2,8.3-45.7,11.1-50.7
			c4.2,0.9,3.6,4,4.4,12.8c1.1,11.5,0.2,40.2,8.3,40.2c8.1,0,8.7-28.9,9.8-46.5c1.1-17.6,6.6-26.8,9.4-41.2
			c2.8-14.4,9.4-34.4,9-51.2c-0.2-7.8-3.4-14.8,3.1-39.8c4-15.3,54-116.6,59.6-126.1c6.1-10.3,17.5-41,20.3-64.4
			c2.8-23.4,2.4-24.4,3.8-35.6c1.4-11.2,5.8-16.2,11.3-22.9c6.4-7.8,15.6-31,22.6-62.5c3.3-0.1,4.3-2.9,5.9-1.8c0,0,4.2,50,13,63.9
			c8.7,13.9,6.1,19,8,24.1c1.9,5.1,0.9,38.5-0.5,57.1c-1.4,18.5-5.5,83.2-9.4,98.5s-8.7,22-12.5,41.5c-3.8,19.5-9.8,45-11.1,69
			c0,0-7.9,56.9-7.2,78.3c0.8,22.9-5,178.9,26.9,216.9c-1.5,7.4-0.1,20.4,0.1,24.3c0.2,3.9-9,44.4-5.4,71.4
			c3.5,27.1,2.1,17.7,1.4,24.4c-0.7,6.8-29,97.5,13.4,264.5c2.5,10,3.5,30.1,3.5,40.7s-3.5,31.5-3.5,41.3s-0.4,14.6,1.8,20.8
			c2.1,6.2,1.8,16.5,0.4,24.1c-1.4,7.7-30.1,28.5-32.6,39.9s-5.7,17.9-1.1,21.2c4.6,3.3,6.7,0,6.7,0s-1.8,5.5,1.1,8.4
			c2.8,2.9,11.3,2.6,11.3,2.6s2.8,0.7,4.6,3.7s9.2,4.4,11,2.6s2.8-1.7,4.2,0.8c0.8,1.3,3.9,2.9,6.6,4.1c2.6,1.1,5.6,0.9,8-0.7
			l5.5-3.5c0,0,4.6,5.5,5.7,5.8c1.1,0.4,12,4.4,14.9,0c2.8-4.4,16.3-15,15.6-27.4c-0.7-12.4-1.8-19.4-1.4-23.8
			c0.4-4.4,1.4-11,3.2-17.6c1.8-6.6,3.9-9.5,2.5-21.9c-1.4-12.4-0.4-13.2-0.4-15.4s1.8-8.1,2.1-14.6c0.4-6.6-4.6-20.1-4.6-20.1
			s-2.1-13.2-3.2-31.1c-1.1-17.9,2.5-88.5,9.6-111.9c7.1-23.4,11.2-30.7,12-36.6c8.5-61.8-5.3-128.4-7.8-151.9
			c-1.4-13.4,4.2-14.9,7.8-28.4s6.4-47.2,2.5-62.2c-2.9-11,9.9-51.2,11.7-63.7c1.8-12.4,26.1-108.6,27.4-125.8
			c1.3-17.2,3-70.5-1.4-78.6c2.1,0,8,4.3,10.6,5c0.1,0.1,0.3,0.1,0.5,0.1c0.2,0,0.4,0,0.5-0.1c2.5-0.7,8.5-5,10.6-5
			c-4.4,8.1-2.7,61.4-1.4,78.6c1.3,17.2,25.6,113.4,27.4,125.8c1.8,12.4,14.5,52.7,11.7,63.7c-3.9,15-1.1,48.7,2.5,62.2
			c3.5,13.5,9.2,15,7.8,28.4c-2.5,23.6-16.3,90.1-7.8,151.9c0.8,5.8,5,13.2,12,36.6c7.1,23.4,10.6,94,9.6,111.9
			c-1.1,17.9-3.2,31.1-3.2,31.1s-5,13.5-4.6,20.1c0.4,6.6,2.1,12.4,2.1,14.6c0,2.2,1.1,2.9-0.4,15.4c-1.4,12.4,0.7,15.4,2.5,21.9
			c1.8,6.6,2.8,13.2,3.2,17.6c0.4,4.4-0.7,11.3-1.4,23.8c-0.7,12.4,12.7,23.1,15.6,27.4c2.8,4.4,13.8,0.4,14.9,0
			c1.1-0.4,5.7-5.8,5.7-5.8l5.5,3.5c2.4,1.5,5.4,1.8,8,0.7c2.7-1.2,5.9-2.8,6.6-4.1c1.4-2.5,2.5-2.6,4.2-0.8s9.2,0.4,11-2.6
			s4.6-3.7,4.6-3.7s8.5,0.4,11.3-2.6c2.8-2.9,1.1-8.4,1.1-8.4s2.1,3.3,6.7,0s1.4-9.9-1.1-21.2c-2.5-11.3-31.1-32.2-32.6-39.9
			c-1.4-7.7-1.8-17.9,0.4-24.1c2.1-6.2,1.8-11,1.8-20.8s-3.5-30.7-3.5-41.3s1-30.7,3.5-40.7c42.5-167.1,14.2-257.8,13.4-264.5
			s-2.1,2.6,1.4-24.4c3.5-27.1-5.7-67.6-5.4-71.4c0.2-3.9,1.7-16.8,0.1-24.3c31.8-38,26.1-194,26.9-216.9
			c0.7-21.4-7.2-78.3-7.2-78.3c-1.3-24-7.3-49.5-11.1-69c-3.8-19.5-8.6-26.1-12.5-41.5c-3.9-15.4-8-80-9.4-98.5
			c-1.4-18.5-2.4-51.9-0.5-57.1c1.9-5.1-0.7-10.2,8-24.1s13-63.9,13-63.9c1.6-1.1,2.6,1.7,5.9,1.8c7.1,31.6,16.3,54.7,22.6,62.5
			c5.5,6.8,9.9,11.7,11.3,22.9c1.4,11.2,0.9,12.2,3.8,35.6c2.8,23.4,14.2,54.1,20.3,64.4c5.6,9.5,55.7,110.7,59.6,126.1
			c6.5,25,3.3,31.9,3.1,39.8c-0.5,16.8,6.1,36.8,9,51.2c2.8,14.4,8.4,23.7,9.4,41.2c1.1,17.6,1.7,46.5,9.8,46.5s7.2-28.7,8.3-40.2
			c0.8-8.8,0.2-11.9,4.4-12.8c2.8,4.9,7.4,37.5,11.1,50.7c3.7,13.2,5,24.3,14.3,21.4c6.1-1.9,1.3-30.8,0.5-36.4
			c-1.5-11.1-4.4-24.2-5.6-33.7c4.7,7.8,9.8,24.7,14.4,34.3c2.7,5.6,9,25,20.1,32.6c4,2.7,9.9,0.7,9.8-8.2
			c-0.1-6.4-9.4-25.1-11.4-31.3c-2-6.2-7.1-21.9-10.2-35.3c1.9,2.2,12.9,16.8,15.8,20.8c2.6,4,15.7,27,18,28.8
			c2.3,1.8,7.6,2.7,11.3-2.7c3.7-5.5-10.1-25.1-14.7-35.7c-4.6-10.6-16.2-28.5-16.6-34.4c-0.4-5.8,2-13.2,2-13.2s1.7,0.1,8.6,4.8
			c5.7,13.3,23.4,17.3,30,15.7C853.7,900.7,852,891.1,849.7,888.5z"/>
		<path class="st1" d="M477.5,9.2c-15.1-5.6-29.2-10.6-46.9-9.1c-17.7-1.6-31.9,3.5-46.9,9.1c-23.4,8.7-30.4,41.2-29.9,64.6
			c0,9.7,2.4,19.3,4.5,28.6c2.1,9.6,3.3,19,4.3,28.8c0.1,0.7,0.2,1.5,0.8,2c1.3,1,2.9-1.1,3.2-2.8c1.3-7.8,1.6-15.5,1.6-23.5
			c0-35.2,10.6-17.1,12.4-50.3c0.5-8.5,4.3-14.3,13.4-13.9c12.5,0.6,24.5-0.7,36.7-3.1c12.3,2.3,24.2,3.7,36.7,3.1
			c9.1-0.4,12.9,5.4,13.4,13.9c1.8,33.1,12.4,15.1,12.4,50.3c0,8.1,0.3,15.7,1.6,23.5c0.3,1.7,1.8,3.9,3.2,2.8
			c0.6-0.4,0.7-1.2,0.8-2c1-9.8,2.2-19.2,4.3-28.8c2.1-9.4,4.5-19,4.5-28.6C507.9,50.4,500.9,17.9,477.5,9.2z"/>
		<g>
			<path id="chest-2" d="M285.4,371.6c-2.3,31.5,5.7,69.5,30.2,84.6c9,5.5,19.4,8,29.7,10.1c32.2,6.7,71.2-9.9,74.4-40.3
				c3.4-32.6,8.2-71.6-6-100.1c-9.4-19-18.5-19-28.8-20.1c-10.3-1.1-42-2.2-54.4,3.7c-16.1,7.6-35.1,18.7-40.7,37.1
				C287.6,353.8,286.1,362.4,285.4,371.6z"/>
			<path d="M295.3,444.4c9.9,12.1,24.7,20.5,33.1,25c4.3,2.3,4.7,10.8,1.2,11.9c-3.5,1.1-32.6-9.6-36.1-16.3s-4.6-16.6-3.9-20.6
				C290.4,440.3,295.3,444.4,295.3,444.4z"/>
			<path d="M285.4,472.7c-0.1,0.8-0.1,1.6,0.1,2.4c3.3,12.6,14.9,33.8,19.6,36.2c2.8,1.5,15.9-13.2,17.7-14.3
				c1.8-1.1,5.7-6.6,5.7-6.6s-28.1-10.5-33.5-15.5c-1.9-1.8-8-11.6-8-11.6L285.4,472.7z"/>
			<path d="M287.4,495.9c0,0-2.5,19.4,4.2,34c6.7,14.6,9.6,16.5,9.6,16.5s8.5-23.4,5-27.1C302.6,515.7,287.4,495.9,287.4,495.9z"/>
			<path id="obliques-left-1" d="M306.6,590.5c4.5,7.1,34.2,30.2,37.2,34.1c3.1,3.9,0,27.7,1,37.1c-11.8-2.9-36.8-24.3-38.5-32.6
				C304.7,620.8,306.6,590.5,306.6,590.5z"/>
			<path id="obliques-left-2" d="M305.1,552.3c1.7,1.8,27.8,24.5,38.7,29.8c4.7,2.3,1.1,37.5,1.1,37.5s-32.3-26.9-37.1-35
				c-4.9-8-3-13.2-3.5-16.6C303.7,564.6,305.1,552.3,305.1,552.3z"/>
			<path id="abs-1" d="M360,484.2c-6.3,4.4-6.4,17.2-7.4,22.3c-1.1,5.1,2.5,28.2,2.5,28.2s3.5,18.3,5,20.5
				c1.8,2.7,48.3-28.4,52.8-31.2c3.8-2.4,8.6-2.4,10.4-7.5c2.9-8.4,1.4-18.6,1-27.4c-0.3-7.7,0.1-24.2-7-29.1
				c-6.4-4.3-15.1,3.1-20.8,5.7c-9.9,4.5-19.8,9.1-29.3,14.3C364.6,481.3,362.2,482.7,360,484.2z"/>
			<path id="abs-2" d="M417.7,533.5c-4.7,1.2-5.6,2.8-10.2,5.1c-5.6,2.8-11.2,5.8-16.7,9c-8.5,4.9-19,9.9-25.7,17.4
				c-0.3,0.3-0.5,0.6-0.7,0.9c-5.4,7.6-5.7,33.2-5.2,34.9c0.5,1.7,61.7,6.7,64.8-2.3c2.6-7.6,0.6-15.7,0.9-23.7
				c0.4-11.5,1-25.2-0.2-35.4C424.6,538.4,419.9,532.9,417.7,533.5z"/>
			<path id="abs-3" d="M359.1,616.5c-3.9,11.7-1.7,41.5,3,45.6c4.7,4.2,54.3,4,59.4,3.7c5.2-0.2,4.9-25.9,5-34.2s0.6-22.4-2.4-23.6
				c-3.1-1.2-25.4-1-32.2,1.7C385,612.4,359.1,616.5,359.1,616.5z"/>
			<path id="abs-4" d="M359.1,675.6c1.1,18,12,165.7,54.8,176.1c4,1,8.3,5.4,9.5,3c3.2-7.8,3.2-164.5,3.2-171.3s-10.1-7.5-15.3-9
				c-5.2-1.5-47.1-2.7-49.7-0.8C359.1,675.6,359.1,675.6,359.1,675.6z"/>
			<path id="obliques-left-3" d="M306.2,640.4c0.3-0.7,1.1-0.8,1.6-0.3c19.9,21.5,33.9,28,37.7,31.3c3.7,3,4.7,70,9,86.6
				c1.9,7.5,5.6,14.9,2.4,16.5c-4.2,2.1-15.4-3.2-18.6-6.8l-38-42.9C300.3,724.8,301.1,653.2,306.2,640.4z"/>
			<path id="obliques-left-5" d="M338.7,491.2c-16,14.1-23.2,20.9-24.9,24c-1.9,3.5,21.8,23.3,28.2,25.5s2.8-18,2.8-23.7
				c0-5.6,0.5-27.6,0-29C344.4,486.6,338.7,491.2,338.7,491.2z"/>
			<path id="obliques-left-4" d="M311.7,528.5c0.4-1.4,2.1-1.9,3.1-0.9c7.3,7.2,27.6,17.9,28.7,21.7c0.9,3,2.8,24.6,0.2,25.3
				c-2.6,0.7-38.1-24.7-37.6-27C306.8,544.6,310.1,534,311.7,528.5z"/>
			<path d="M385.1,197.5c15.9,13.3,16.2,27.8,23.2,42.3c20.2,41.7,12.8,66.9,8.1,61.7c-13.6-15.1-27.8-63.4-30-67.4
				C384.4,230,385.1,197.5,385.1,197.5z"/>
			<path d="M382.6,257.9c-1.9,15.1-0.7,20.1,2.3,28.2c3.1,8,20.3,16.5,21.9,17.7c-9.3-23-17.9-38.9-21.9-53.3
				C381.7,251.2,382.6,257.9,382.6,257.9z"/>
			<path d="M370.8,255.1c-8,10-38.5,30.7-46.9,33.4c-1.4,5.7,43.2,10.9,48.8,6.2s5.7-34.5,4.7-39.6
				C376.5,250,370.8,255.1,370.8,255.1z"/>
			<path id="delts-left" d="M316.2,309c-4.3,2.9-10.1,4.2-14.7,6.4c-13.6,6.5-26.2,13.5-26.1,30.8c0.1,13.4,1.7,28-5.4,39.3
				c-4.5,7.2-10.4,13.2-15.6,19.8c-5.2,6.5-8.2,12.4-17.1,7.6c-20.7-11.2-35-33.2-33.2-57.9c1-13.6,7-26.8,16.4-36.4
				c10.4-10.7,20.5-21.2,34-27.9c18.4-9.2,39-5.9,55.6,6C316.1,301,316.2,309,316.2,309z"/>
			<path id="biceps-left-1" d="M254.6,454.3c-8.7,33.3-42,107.6-42.6,109.3c-1.3,4.3,1.3,9.9,4.7,12.5c5.3,4,10.9-4.5,13.7-8.1
				c19.3-24.7,36.4-71.1,39.2-82.5c3.3-13.6,13.7-32.9,9.4-55.8c-4.2-22.9-8-33.7-9.9-31.2c-2.5,3.2-3,10-4,13.8
				c-2.6,10.4-4,21.2-6.8,31.4C257.3,447.3,255.6,450.7,254.6,454.3z"/>
			<path id="biceps-left-2" d="M222.7,428.7c-11,5.8-29.6,39.3-32.2,56c-4.8,30.9-3.4,47.8-3.7,56.9c-0.3,9.1,15.6,7.3,28.8-5.1
				c8.2-7.8,30.4-59.7,26-85.4C238.3,432.3,232.6,424.3,222.7,428.7z"/>
			<path id="forearm-left-1" d="M181.8,555.3c11.8-6.1,6.1,74-2.1,95.2c-8.7,22.4-20.1,52.3-31.1,79.7
				c-6.6,16.4-25.2,75.8-33.3,79.7c-8,3.9-0.5-35.4,3.3-51c3.8-15.6,14.6-80.5,17.9-92.7c3.3-12.2,0.9-46.1,9.4-58.7
				C154.5,595.1,164.4,564.3,181.8,555.3z"/>
			<path id="forearm-left-2" d="M214,595.6c6.1,23.9-3.5,46.6-8.2,60.8c-4.7,14.1-14,28-22.5,41.6c-8.5,13.7-31.9,70.5-37.4,85.6
				c-13.2,36.2-19.6,25.8-14.4,12.2c5.2-13.7,15-44.6,21.1-59.3s7.9-23.3,15.2-39.9c7.2-16.3,15.4-33.8,20.6-48.4
				c5.2-14.6,7.5-50.2,16-52.7C213.1,593.1,214,595.6,214,595.6z"/>
			<path id="forearm-left-3" d="M192.6,696.2c-10.4,13.7-18.5,31.6-23.7,44.2c-4.8,11.7-9.5,23.4-14,35.2
				c-4.2,10.9-8.4,21.9-11.7,33.2c-0.5,1.9-2.2,4.6-1.4,6.6c2-1.6,2.9-4.2,4.1-6.3c1.3-2.3,2.5-4.6,3.7-7c2.8-5.6,5.4-11.3,7.9-17
				c5.7-13,11.1-26.1,16.6-39.2c4.7-11.2,9.4-22.6,15.1-33.4c0.3-0.5,0.6-1.1,0.9-1.6c13.7-24.9,17.9-31.7,23.6-46.3
				c5.7-14.6,17.9-38.5,16-42.9c-1.3-3.1-6.1-8-8.1-9.5c-0.7-0.5-1.3,4.2-1.4,5.1C218.1,647.7,202,683.9,192.6,696.2z"/>
			<path d="M320.3,1182.2c7.4,0,32.2,1.8,35,4.8s8.1,43.5-7.4,65.5s-29,10.6-33.3-2.2c-4.2-12.8-17.3-48.7-12.4-59.6
				C307.2,1179.6,320.3,1182.2,320.3,1182.2z"/>
			<path d="M367.4,1207.1c-5.3,25.2-8.8,36.2-25.5,70.2c-13.6,27.9-18.4,53.8-12,53c6.4-0.7,29.4-55.7,32.9-65.8
				c3.5-10.2,14.2-41.5,15-47.9c1.2-9.1-1.6-15-3.7-17.6C372,1196.5,367.4,1207.1,367.4,1207.1z"/>
			<path d="M365.4,1281.8c-6.1,19.5-27.8,49.8-29.3,68.8c-1.4,19,12.9,140.7,11.3,155.8c5.7-10.3,13-58.1,23.1-83.2
				c6.3-15.5,11-36.1,0-105.3C367.4,1297.7,365.4,1281.8,365.4,1281.8z"/>
			<path d="M301.2,1226.4c7.8,54.9,34,185.8,36.8,244.4c2.8,58.5,0.7,50.8-1.8,55.6c-2.5,4.8-25.1-60.2-32.2-96.8
				s-15.6-125.8-12.3-160c3.3-34.1,1.9-60.5,5.2-59C300.3,1212.1,301.2,1226.4,301.2,1226.4z"/>
			<path d="M280.9,1290.1c-3.3,40-1.9,114.6,3.3,145.8c5.2,31.2,21.2,94.1,22.6,104.9c1.4,10.7-3.3,22.9,0,26.8
				c3.3,3.9,14.6-20.5,12.7-41c-1.9-20.5-16.2-72.7-20.1-93.2c-3.9-20.5-13.8-72.2-13.4-90.2c0.5-18.1,0.5-41,1.4-59
				c0.9-18.1,3.3-25.4,0-25.4C284.2,1258.9,280.9,1290.1,280.9,1290.1z"/>
			<path d="M305.4,1613.5c8.8,16.7,39.6,23.9,43.9,40c6.6-6.3,11.8-32.2,8.5-46.8s-6.1-25.4-9.4-30.2s-4.3-7.3-7.5-12.2
				c-2.9-4.4-13-15.3-20.5-6.5c-7.5,8.8-6.2,12.9-8,24.6C310.6,1594,302.5,1608.1,305.4,1613.5z"/>
			<path d="M332,1539.2c17.3,16.2,21.9,39.5,21.9,33.7s1.1-22.3-5.3-29.6c-6.4-7.3-9.8-8.4-13.9-8.4
				C330.6,1534.8,332,1539.2,332,1539.2z"/>
			<path id="calves-left" d="M310.8,1639.8c-5.3,14.3-35,48.9-38.6,55.8s20.3,14.1,25.2,14.1c5,0,20.3,3.1,23.8,4.9
				c3.5,1.8,4.4-11.6,4.7-16c0.4-4.4,13.5-26.3,8.7-36.9c-4.8-10.6,7.1-7.3-2.9-13.9C321.7,1641.3,310.8,1639.8,310.8,1639.8z"/>
			<path d="M338.5,1671.6c0,8.4-0.3,18.7-5.1,31.1c-4.8,12.4,1.1,16.1,2.5,15.4c1.5-0.7,11.8-2.9,11.8-2.9s3.9-6.6,2.8-10.6
				c-1.1-4,9.4-15.6,3.8-25.2c-5.7-9.6-7.1-20.6-8.5-23.9C344.4,1652.1,338.5,1671.6,338.5,1671.6z"/>
			<path d="M103.2,823.6c2-0.3,3.9-0.4,5.9-0.2c11.2,1.4,30.8,3.7,35.3,16.9c0.5,1.5,0.6,3.2,0.6,4.8c0.2,17.1-1.9,34.3-6.1,50.9
				c-0.8,3.1-1.7,6.2-3.5,8.9c-10.1,14.9-37.2,4.8-48.5-2.7c-10.3-6.7-25.7-17.1-26.4-30.7c-0.6-12.1,6.4-25.1,15.8-32
				C83.9,833.7,93.4,825.3,103.2,823.6z"/>
			<path d="M119.6,918.2c-0.1,7.8-0.2,15.5-0.2,23.2c0,5,0.2,10,0.7,14.9c0.4,4.1,0.5,11.8,3,15c1.5,1.9,5.7-10,5.9-10.7
				c0.7-3.4,0.5-45.4,2.3-45.6C127.3,915.6,123.3,916.9,119.6,918.2z"/>
			<path d="M96.1,917.6c-3.1,13.5-4.2,27.7-6.4,41.4c-0.7,4.5-1.5,9-2.1,13.5c-0.9,5.9-1.9,10.9-1.2,17c0.1,0.6,0.1,1.2,0.5,1.6
				c1.6,2,5.5,0,6.7-1.6c1.3-1.7,1.9-3.9,2.2-6.1c0.9-6,2.3-11.9,3.5-17.8c1.8-9,3.4-18.1,5.2-27.1c1.1-5.5,2.2-11.1,3.3-16.6
				c0.1-0.7,0.3-1.4,0-2C107,918.6,96.1,917.4,96.1,917.6z"/>
			<path d="M75.4,911.6c-1.9,2-3.1,9.4-3.7,11.2c-1.6,5-3.4,10-5.1,15c-3.5,9.8-7.2,19.5-10.8,29.2c-2.4,6.5-5.5,12.8-5.4,19.9
				c0,3.8,4.6,1.9,6.5,1c6.2-3,7-8,9.3-14c1.8-4.6,3.6-9.1,5.5-13.7c5.7-14.1,11.6-28.2,18.1-41.9c0.2-0.5,0.5-1,0.6-1.6
				c0.5-5.1-11-5.6-13.9-5.7C76,911,75.7,911.2,75.4,911.6z"/>
			<path d="M59,895.9c-3.3,2.9-10.4,19.3-11.6,21.7c-3.5,6.8-7.1,13.5-10.6,20.2c-2.8,5.4-8.4,12.6-9.1,18.9
				c-0.2,1.6-1.6,10.1,2.1,8.3c0.6-0.3,1-0.7,1.4-1.2c9.7-11.3,17.2-23.9,25.5-36.3c2.4-3.6,4.7-7.3,7.3-10.9c2.2-3,6-5.9,7.8-9.1
				c0.8-1.4,0.7-3.1,0.6-4.7c0-0.6-0.1-1.2-0.4-1.7c-0.3-0.4-0.7-0.8-1.2-1c-3.4-2.1-7-3.7-10.9-4.7C59.7,895.4,59.4,895.6,59,895.9
				z"/>
			<path d="M56.3,845.3c-5.9,5.8-15.6,17.3-19.6,26c-4,8.7-21.2,12.1-21.5,17.5c-0.2,5.4-1.4,8.8,0.9,9s11.3,0.7,16.7-4.4
				c5.4-5.1,9.4-8,13-13.2s6.6-11.2,8.3-19.3c1.7-8,6.4-19.3,6.4-19.3L56.3,845.3z"/>
			<path d="M430.3,209.5c0.4,19,2.7,51,0.3,58c-2.4,7.1-8.3-18.1-16.2-35.4c-7.9-17.3-4.9-10.8-7.1-18.6c-2.1-7.8-14.5-7.1-6.1-7.8
				C409.7,205.1,430.3,209.5,430.3,209.5z"/>
			<path d="M331.5,773.5c14.5,11.2,59.8,70.7,74.6,145.4c0,0-7.7,26.7-18.1,24.4c-2.3-0.5-35.6-110.1-62.1-161
				c-7.6-14.6-8.1-22.3-8.1-22.3L331.5,773.5z"/>
			<path d="M309.7,774c18,62.1,78,297.7,77,334.3c18-53.3,3.2-123.5-18.9-190.9C349.2,861,309.7,774,309.7,774z"/>
			<path d="M300.3,787.2c11.3,54.6,50,142.6,54.9,218.8c4.7,73.4-3.6,147.8-16.8,153.7c-13.2,5.8-35.7-90.8-39.5-107.1
				c-9.8-41.3-31.2-116.7-28.9-155.6c2-33.6,7.5-51.2,11.9-66.8C287.7,809.2,300.3,787.2,300.3,787.2z"/>
			<path d="M275,975.8c2.4,21.9,16.6,93.8,34.7,140.2c8.4,21.6,10.9,44.9,4.2,52.2c-6.6,7.3-14.2-33.2-24.5-50.2
				c-10.4-17.1-19-72.2-19.6-94.4c-0.7-29-5.4-51.7-3-59.5C269.1,956.2,275,975.8,275,975.8z"/>
			<path d="M360.5,1022.8c7.3,84-12.9,124.9-2.2,142.4s19.3,9.9,17.9,0.2c-2.4-17.2,10.3-45.2,0-94.9
				C370.8,1044.4,360.5,1022.8,360.5,1022.8z"/>
			<path d="M410,929.7c-8.7,13.4-20.5,25.9-20.3,30.1c0.2,4.2,12.3,68.6,11.6,75.9c7.3-7.3,14.2-95.1,13.7-103.2
				C414.5,924.5,410,929.7,410,929.7z"/>
			<path id="chest-1" d="M575.6,371.6c2.3,31.5-5.7,69.5-30.2,84.6c-9,5.5-19.4,8-29.7,10.1c-32.2,6.7-71.2-9.9-74.4-40.3
				c-3.4-32.6-8.2-71.6,6-100.1c9.4-19,18.5-19,28.8-20.1c10.3-1.1,42-2.2,54.4,3.7c16.1,7.6,35.1,18.7,40.7,37.1
				C573.4,353.8,574.9,362.4,575.6,371.6z"/>
			<path d="M565.7,444.4c-9.9,12.1-24.7,20.5-33.1,25c-4.3,2.3-4.7,10.8-1.2,11.9c3.5,1.1,32.6-9.6,36.1-16.3s4.6-16.6,3.9-20.6
				C570.6,440.3,565.7,444.4,565.7,444.4z"/>
			<path d="M575.6,472.7c0.1,0.8,0.1,1.6-0.1,2.4c-3.3,12.6-14.9,33.8-19.6,36.2c-2.8,1.5-15.9-13.2-17.7-14.3
				c-1.8-1.1-5.7-6.6-5.7-6.6s28.1-10.5,33.5-15.5c1.9-1.8,8-11.6,8-11.6L575.6,472.7z"/>
			<path d="M573.6,495.9c0,0,2.5,19.4-4.2,34c-6.7,14.6-9.6,16.5-9.6,16.5s-8.5-23.4-5-27.1S573.6,495.9,573.6,495.9z"/>
			<path id="obliques-right-1" d="M554.4,590.5c-4.5,7.1-34.2,30.2-37.2,34.1c-3.1,3.9,0,27.7-1,37.1c11.8-2.9,36.8-24.3,38.5-32.6
				C556.3,620.8,554.4,590.5,554.4,590.5z"/>
			<path id="obliques-right-2" d="M555.9,552.3c-1.7,1.8-27.8,24.5-38.7,29.8c-4.7,2.3-1.1,37.5-1.1,37.5s32.3-26.9,37.1-35
				c4.9-8,3-13.2,3.5-16.6C557.3,564.6,555.9,552.3,555.9,552.3z"/>
			<path id="abs-5" d="M501,484.2c6.3,4.4,6.4,17.2,7.4,22.3c1.1,5.1-2.5,28.2-2.5,28.2s-3.5,18.3-5,20.5
				c-1.8,2.7-48.3-28.4-52.8-31.2c-3.8-2.4-8.6-2.4-10.4-7.5c-2.9-8.4-1.4-18.6-1-27.4c0.3-7.7-0.1-24.2,7-29.1
				c6.4-4.3,15.1,3.1,20.8,5.7c9.9,4.5,19.8,9.1,29.3,14.3C496.4,481.3,498.8,482.7,501,484.2z"/>
			<path id="abs-6" d="M443.3,533.5c4.7,1.2,5.6,2.8,10.2,5.1c5.6,2.8,11.2,5.8,16.7,9c8.5,4.9,19,9.9,25.7,17.4
				c0.3,0.3,0.5,0.6,0.7,0.9c5.4,7.6,5.7,33.2,5.2,34.9c-0.5,1.7-61.7,6.7-64.8-2.3c-2.6-7.6-0.6-15.7-0.9-23.7
				c-0.4-11.5-1-25.2,0.2-35.4C436.4,538.4,441.1,532.9,443.3,533.5z"/>
			<path id="abs-7" d="M501.9,616.5c3.9,11.7,1.7,41.5-3,45.6c-4.7,4.2-54.3,4-59.4,3.7c-5.2-0.2-4.9-25.9-5-34.2
				c-0.1-8.3-0.6-22.4,2.4-23.6c3.1-1.2,25.4-1,32.2,1.7C476,612.4,501.9,616.5,501.9,616.5z"/>
			<path id="abs-8" d="M501.9,675.6c-1.1,18-12,165.7-54.8,176.1c-4,1-8.3,5.4-9.5,3c-3.2-7.8-3.2-164.5-3.2-171.3s10.1-7.5,15.3-9
				c5.2-1.5,47.1-2.7,49.7-0.8C501.9,675.6,501.9,675.6,501.9,675.6z"/>
			<path id="obliques-right-3" d="M554.8,640.4c-0.3-0.7-1.2-0.8-1.6-0.3c-19.9,21.5-33.9,28-37.7,31.3c-3.7,3-4.7,70-9,86.6
				c-1.9,7.5-5.6,14.9-2.4,16.5c4.2,2.1,15.4-3.2,18.6-6.8l38-42.9C560.7,724.8,559.9,653.2,554.8,640.4z"/>
			<path id="obliques-right-5" d="M522.3,491.2c16,14.1,23.2,20.9,24.9,24c1.9,3.5-21.8,23.3-28.2,25.5s-2.8-18-2.8-23.7
				c0-5.6-0.5-27.6,0-29C516.6,486.6,522.3,491.2,522.3,491.2z"/>
			<path id="obliques-right-4" d="M549.3,528.5c-0.4-1.4-2.1-1.9-3.1-0.9c-7.3,7.2-27.6,17.9-28.7,21.7c-0.9,3-2.8,24.6-0.2,25.3
				c2.6,0.7,38.1-24.7,37.6-27C554.2,544.6,550.9,534,549.3,528.5z"/>
			<path d="M475.9,197.5c-15.9,13.3-16.2,27.8-23.2,42.3c-20.2,41.7-12.8,66.9-8.1,61.7c13.6-15.1,27.8-63.4,30-67.4
				C476.6,230,475.9,197.5,475.9,197.5z"/>
			<path d="M478.4,257.9c1.9,15.1,0.7,20.1-2.3,28.2c-3.1,8-20.3,16.5-21.9,17.7c9.3-23,17.9-38.9,21.9-53.3
				C479.3,251.2,478.4,257.9,478.4,257.9z"/>
			<path d="M490.2,255.1c8,10,38.5,30.7,46.9,33.4c1.4,5.7-43.2,10.9-48.8,6.2c-5.7-4.6-5.7-34.5-4.7-39.6
				C484.5,250,490.2,255.1,490.2,255.1z"/>
			<path id="delts-right" d="M544.8,309c4.3,2.9,10.1,4.2,14.7,6.4c13.6,6.5,26.2,13.5,26.1,30.8c-0.1,13.4-1.7,28,5.4,39.3
				c4.5,7.2,10.4,13.2,15.6,19.8c5.2,6.5,8.2,12.4,17.1,7.6c20.7-11.2,35-33.2,33.2-57.9c-1-13.6-7-26.8-16.4-36.4
				c-10.4-10.7-20.5-21.2-34-27.9c-18.4-9.2-39-5.9-55.6,6C544.9,301,544.8,309,544.8,309z"/>
			<path id="biceps-right-1" d="M606.4,454.3c8.7,33.3,42,107.6,42.6,109.3c1.3,4.3-1.3,9.9-4.7,12.5c-5.3,4-10.9-4.5-13.7-8.1
				c-19.3-24.7-36.4-71.1-39.2-82.5c-3.3-13.6-13.7-32.9-9.4-55.8c4.2-22.9,8-33.7,9.9-31.2c2.5,3.2,3,10,4,13.8
				c2.6,10.4,4,21.2,6.8,31.4C603.7,447.3,605.4,450.7,606.4,454.3z"/>
			<path id="biceps-right-2" d="M638.3,428.7c11,5.8,29.6,39.3,32.2,56c4.8,30.9,3.4,47.8,3.7,56.9c0.3,9.1-15.6,7.3-28.8-5.1
				c-8.2-7.8-30.4-59.7-26-85.4C622.7,432.3,628.4,424.3,638.3,428.7z"/>
			<path id="forearm-right-1" d="M679.2,555.3c-11.8-6.1-6.1,74,2.1,95.2c8.7,22.4,20.1,52.3,31.1,79.7
				c6.6,16.4,25.2,75.8,33.3,79.7c8,3.9,0.5-35.4-3.3-51c-3.8-15.6-14.6-80.5-17.9-92.7c-3.3-12.2-0.9-46.1-9.4-58.7
				C706.5,595.1,696.6,564.3,679.2,555.3z"/>
			<path id="forearm-right-2" d="M647,595.6c-6.1,23.9,3.5,46.6,8.2,60.8c4.7,14.1,14,28,22.5,41.6c8.5,13.7,31.9,70.5,37.4,85.6
				c13.2,36.2,19.6,25.8,14.4,12.2c-5.2-13.7-15-44.6-21.1-59.3c-6.1-14.6-7.9-23.3-15.2-39.9c-7.2-16.3-15.4-33.8-20.6-48.4
				c-5.2-14.6-7.5-50.2-16-52.7C647.9,593.1,647,595.6,647,595.6z"/>
			<path id="forearm-right-3" d="M668.4,696.2c10.4,13.7,18.5,31.6,23.7,44.2c4.8,11.7,9.5,23.4,14,35.2
				c4.2,10.9,8.4,21.9,11.7,33.2c0.5,1.9,2.2,4.6,1.4,6.6c-2-1.6-2.9-4.2-4.1-6.3c-1.3-2.3-2.5-4.6-3.7-7c-2.8-5.6-5.4-11.3-7.9-17
				c-5.7-13-11.1-26.1-16.6-39.2c-4.7-11.2-9.4-22.6-15.1-33.4c-0.3-0.5-0.6-1.1-0.9-1.6c-13.7-24.9-17.9-31.7-23.6-46.3
				c-5.7-14.6-17.9-38.5-16-42.9c1.3-3.1,6.1-8,8.1-9.5c0.7-0.5,1.3,4.2,1.4,5.1C642.9,647.7,659,683.9,668.4,696.2z"/>
			<path d="M540.7,1182.2c-7.4,0-32.2,1.8-35,4.8c-2.8,2.9-8.1,43.5,7.4,65.5c15.6,21.9,29,10.6,33.3-2.2
				c4.2-12.8,17.3-48.7,12.4-59.6C553.8,1179.6,540.7,1182.2,540.7,1182.2z"/>
			<path d="M493.6,1207.1c5.3,25.2,8.8,36.2,25.5,70.2c13.6,27.9,18.4,53.8,12,53c-6.4-0.7-29.4-55.7-32.9-65.8
				c-3.5-10.2-14.2-41.5-15-47.9c-1.2-9.1,1.6-15,3.7-17.6C489,1196.5,493.6,1207.1,493.6,1207.1z"/>
			<path d="M495.6,1281.8c6.1,19.5,27.8,49.8,29.3,68.8s-12.9,140.7-11.3,155.8c-5.7-10.3-13-58.1-23.1-83.2
				c-6.3-15.5-11-36.1,0-105.3C493.6,1297.7,495.6,1281.8,495.6,1281.8z"/>
			<path d="M559.8,1226.4c-7.8,54.9-34,185.8-36.8,244.4c-2.8,58.5-0.7,50.8,1.8,55.6c2.5,4.8,25.1-60.2,32.2-96.8
				c7.1-36.6,15.6-125.8,12.3-160c-3.3-34.1-1.9-60.5-5.2-59C560.7,1212.1,559.8,1226.4,559.8,1226.4z"/>
			<path d="M580.1,1290.1c3.3,40,1.9,114.6-3.3,145.8c-5.2,31.2-21.2,94.1-22.6,104.9c-1.4,10.7,3.3,22.9,0,26.8
				c-3.3,3.9-14.6-20.5-12.7-41c1.9-20.5,16.2-72.7,20.1-93.2c3.9-20.5,13.8-72.2,13.4-90.2c-0.5-18.1-0.5-41-1.4-59
				c-0.9-18.1-3.3-25.4,0-25.4C576.8,1258.9,580.1,1290.1,580.1,1290.1z"/>
			<path d="M555.6,1613.5c-8.8,16.7-39.6,23.9-43.9,40c-6.6-6.3-11.8-32.2-8.5-46.8c3.3-14.6,6.1-25.4,9.4-30.2
				c3.3-4.9,4.3-7.3,7.5-12.2c2.9-4.4,13-15.3,20.5-6.5c7.5,8.8,6.2,12.9,8,24.6C550.4,1594,558.5,1608.1,555.6,1613.5z"/>
			<path d="M529,1539.2c-17.3,16.2-21.9,39.5-21.9,33.7s-1.1-22.3,5.3-29.6c6.4-7.3,9.8-8.4,13.9-8.4
				C530.4,1534.8,529,1539.2,529,1539.2z"/>
			<path id="calves-right" d="M550.2,1639.8c5.3,14.3,35,48.9,38.6,55.8s-20.3,14.1-25.2,14.1c-5,0-20.3,3.1-23.8,4.9
				c-3.5,1.8-4.4-11.6-4.7-16c-0.4-4.4-13.5-26.3-8.7-36.9s-7.1-7.3,2.9-13.9C539.3,1641.3,550.2,1639.8,550.2,1639.8z"/>
			<path d="M522.5,1671.6c0,8.4,0.3,18.7,5.1,31.1c4.8,12.4-1.1,16.1-2.5,15.4c-1.5-0.7-11.7-2.9-11.7-2.9s-3.9-6.6-2.8-10.6
				c1.1-4-9.4-15.6-3.8-25.2s7.1-20.6,8.5-23.9C516.6,1652.1,522.5,1671.6,522.5,1671.6z"/>
			<path d="M757.8,823.6c-2-0.3-3.9-0.4-5.9-0.2c-11.2,1.4-30.8,3.7-35.3,16.9c-0.5,1.5-0.6,3.2-0.6,4.8
				c-0.2,17.1,1.9,34.3,6.1,50.9c0.8,3.1,1.7,6.2,3.5,8.9c10.1,14.9,37.2,4.8,48.5-2.7c10.3-6.7,25.7-17.1,26.4-30.7
				c0.6-12.1-6.4-25.1-15.8-32C777.1,833.7,767.6,825.3,757.8,823.6z"/>
			<path d="M741.4,918.2c0.1,7.8,0.2,15.5,0.2,23.2c0,5-0.2,10-0.7,14.9c-0.4,4.1-0.5,11.8-3,15c-1.5,1.9-5.7-10-5.9-10.7
				c-0.7-3.4-0.5-45.4-2.3-45.6C733.7,915.6,737.7,916.9,741.4,918.2z"/>
			<path d="M764.9,917.6c3.1,13.5,4.2,27.7,6.4,41.4c0.7,4.5,1.5,9,2.1,13.5c0.9,5.9,1.9,10.9,1.2,17c-0.1,0.6-0.1,1.2-0.5,1.6
				c-1.6,2-5.5,0-6.7-1.6c-1.3-1.7-1.9-3.9-2.2-6.1c-0.9-6-2.3-11.9-3.5-17.8c-1.8-9-3.4-18.1-5.2-27.1c-1.1-5.5-2.2-11.1-3.3-16.6
				c-0.1-0.7-0.3-1.4,0-2C754,918.6,764.9,917.4,764.9,917.6z"/>
			<path d="M785.6,911.6c1.9,2,3.1,9.4,3.7,11.2c1.6,5,3.4,10,5.1,15c3.5,9.8,7.2,19.5,10.8,29.2c2.4,6.5,5.5,12.8,5.4,19.9
				c0,3.8-4.6,1.9-6.5,1c-6.2-3-7-8-9.3-14c-1.8-4.6-3.6-9.1-5.5-13.7c-5.7-14.1-11.6-28.2-18.1-41.9c-0.2-0.5-0.5-1-0.6-1.6
				c-0.5-5.1,11-5.6,13.9-5.7C785,911,785.3,911.2,785.6,911.6z"/>
			<path d="M802,895.9c3.3,2.9,10.4,19.3,11.6,21.7c3.5,6.8,7.1,13.5,10.6,20.2c2.8,5.4,8.4,12.6,9.1,18.9c0.2,1.6,1.6,10.1-2.1,8.3
				c-0.6-0.3-1-0.7-1.4-1.2c-9.7-11.3-17.2-23.9-25.5-36.3c-2.4-3.6-4.7-7.3-7.3-10.9c-2.2-3-6-5.9-7.8-9.1
				c-0.8-1.4-0.7-3.1-0.6-4.7c0-0.6,0.1-1.2,0.4-1.7c0.3-0.4,0.7-0.8,1.2-1c3.4-2.1,7-3.7,10.9-4.7
				C801.3,895.4,801.6,895.6,802,895.9z"/>
			<path d="M804.7,845.3c5.9,5.8,15.6,17.3,19.6,26c4,8.7,21.2,12.1,21.5,17.5c0.2,5.4,1.4,8.8-0.9,9s-11.3,0.7-16.7-4.4
				c-5.4-5.1-9.4-8-13-13.2c-3.5-5.1-6.6-11.2-8.3-19.3c-1.7-8-6.4-19.3-6.4-19.3L804.7,845.3z"/>
			<path d="M430.3,209.5c-0.4,19-2.3,51,0.1,58c2.4,7.1,8.3-18.1,16.2-35.4c7.9-17.3,4.9-10.8,7.1-18.6c2.1-7.8,14.5-7.1,6.1-7.8
				C451.3,205.1,430.3,209.5,430.3,209.5z"/>
			<path d="M529.5,773.5c-14.5,11.2-59.8,70.7-74.6,145.4c0,0,7.7,26.7,18.1,24.4c2.3-0.5,35.6-110.1,62.1-161
				c7.6-14.6,8.1-22.3,8.1-22.3L529.5,773.5z"/>
			<path d="M551.3,774c-18,62.1-78,297.7-77,334.3c-18-53.3-3.2-123.5,18.9-190.9C511.8,861,551.3,774,551.3,774z"/>
			<path d="M560.7,787.2c-11.3,54.6-50,142.6-54.9,218.8c-4.7,73.4,3.6,147.8,16.8,153.7c13.2,5.8,35.7-90.8,39.5-107.1
				c9.8-41.3,31.2-116.7,28.9-155.6c-2-33.6-7.5-51.2-11.9-66.8C573.3,809.2,560.7,787.2,560.7,787.2z"/>
			<path d="M586,975.8c-2.4,21.9-16.6,93.8-34.7,140.2c-8.4,21.6-10.9,44.9-4.2,52.2c6.6,7.3,14.2-33.2,24.5-50.2
				c10.4-17.1,19-72.2,19.6-94.4c0.7-29,5.4-51.7,3-59.5C591.9,956.2,586,975.8,586,975.8z"/>
			<path d="M500.5,1022.8c-7.3,84,12.9,124.9,2.2,142.4c-10.8,17.6-19.3,9.9-17.9,0.2c2.4-17.2-10.3-45.2,0-94.9
				C490.2,1044.4,500.5,1022.8,500.5,1022.8z"/>
			<path d="M451,929.7c8.7,13.4,20.5,25.9,20.3,30.1c-0.2,4.2-12.3,68.6-11.6,75.9c-7.3-7.3-14.2-95.1-13.7-103.2
				C446.5,924.5,451,929.7,451,929.7z"/>
		</g>
	</g>
</g>
</svg>
