<?xml version="1.0" encoding="utf-8"?>
<!-- Generator: Adobe Illustrator 28.0.0, SVG Export Plug-In . SVG Version: 6.00 Build 0)  -->
<svg version="1.1" xmlns="http://www.w3.org/2000/svg" xmlns:xlink="http://www.w3.org/1999/xlink" x="0px" y="0px"
	 viewBox="0 0 2000 2000" style="enable-background:new 0 0 2000 2000;" xml:space="preserve">
<style type="text/css">
	.st0{fill:#BE9B8B;}
	.st1{fill:#6F6F6F;}
	.st2{fill:#3F3F3F;}
</style>
<g id="Background">
</g>
<g id="Art">
	<g id="Anterior_Body">
		<path class="st0" d="M1457.55,1026.66c-2.44-2.56-15.49-10.97-18.66-14.27c-3.17-3.29-3.17-5.85-11.95-20.97
			c-8.78-15.12-41.52-28.53-45.18-29.26c-3.66-0.73-10.79-9.69-12.62-14.63c-7.54-20.36-25.24-89.99-32.92-152.17
			c-7.68-62.19-36.58-97.3-52.31-118.89c0.73-59.63-12.94-72.05-20.49-91.08c0.73-15,5.94-47.59,2.42-90.44
			c-2.79-33.94-45.22-74.42-71.56-78.08c-17.06-2.37-26.46,1.71-48.53,0c-22.07-1.71-63.41-38.78-65.6-43.16
			c-2.19-4.39-6.83-40.97-3.41-45.6c3.41-4.63,3.9-0.24,7.32-9.75c3.41-9.51,1.57-26.61,1.57-26.61s0.91-3.65,1.54-1.13
			c0.37,1.46,1.1,2.99,2.74,3.84c2.55,1.32,5.73-4.84,9.08-10.67c8.91-15.51,17.26-45.11,4.94-48.83c-2.24-0.68-5.49,5.12-5.49,5.12
			c0-2.93,2.93-30-1.46-46.82c-3.52-13.48-16.68-26.95-27.07-35.12c-12.69-9.97-38.58-10.68-45.03-10.73v0c-0.13,0-0.37,0-0.57,0
			c-0.2,0-0.44,0-0.57,0v0c-6.45,0.05-32.33,0.75-45.03,10.73c-10.39,8.16-23.55,21.64-27.07,35.12
			c-4.39,16.83-1.46,43.9-1.46,46.82c0,0-3.24-5.8-5.49-5.12c-12.32,3.72-3.97,33.32,4.94,48.83c3.35,5.83,6.53,11.99,9.08,10.67
			c1.65-0.85,2.38-2.38,2.74-3.84c0.63-2.52,1.54,1.13,1.54,1.13s-1.84,17.1,1.57,26.61c3.41,9.51,3.9,5.12,7.32,9.75
			c3.41,4.63-1.22,41.21-3.41,45.6c-2.19,4.39-43.53,41.46-65.6,43.16c-22.07,1.71-31.47-2.37-48.53,0
			c-26.34,3.66-68.77,44.14-71.56,78.08c-3.52,42.85,1.69,75.44,2.42,90.44c-7.54,19.04-21.22,31.46-20.49,91.08
			c-15.73,21.58-44.63,56.7-52.31,118.89c-7.68,62.19-25.38,131.81-32.92,152.17c-1.83,4.94-8.96,13.9-12.62,14.63
			c-3.66,0.73-36.4,14.14-45.18,29.26c-8.78,15.12-8.78,17.68-11.95,20.97c-3.17,3.29-16.22,11.71-18.66,14.27
			c-2.44,2.56-4.15,12.19,2.68,13.78c6.83,1.59,25.09-2.38,31.03-15.73c7.13-4.66,8.87-4.76,8.87-4.76s2.41,7.32,2.04,13.17
			c-0.37,5.85-12.38,23.78-17.13,34.39c-4.76,10.61-19.02,30.18-15.18,35.67c3.84,5.49,9.33,4.57,11.71,2.74
			c2.38-1.83,15.91-24.78,18.56-28.81c3.02-3.93,14.36-18.56,16.37-20.76c-3.23,13.35-8.47,29.08-10.55,35.3
			c-2.07,6.22-11.74,24.94-11.83,31.34c-0.12,8.9,6.02,10.87,10.12,8.17c11.46-7.56,17.9-26.93,20.73-32.56
			c4.79-9.53,10-26.46,14.88-34.26c-1.22,9.51-4.2,22.62-5.79,33.71c-0.81,5.61-5.73,34.5,0.55,36.4
			c9.69,2.93,10.97-8.23,14.81-21.4c3.84-13.17,8.6-45.73,11.52-50.66c4.39,0.91,3.73,4.02,4.57,12.8
			c1.11,11.54,0.18,40.24,8.6,40.24c8.41,0,9.02-28.9,10.12-46.46c1.1-17.56,6.83-26.83,9.75-41.21
			c2.93-14.39,9.74-34.38,9.27-51.21c-0.22-7.82-3.54-14.75,3.17-39.75c4.11-15.34,55.85-116.57,61.66-126.08
			c6.3-10.3,18.08-40.97,21.01-64.38c2.93-23.41,2.44-24.39,3.9-35.6c1.46-11.22,6-16.16,11.71-22.92
			c6.58-7.8,16.1-30.97,23.41-62.55c3.41-0.12,4.46-2.94,6.1-1.83c0,0,4.39,49.99,13.41,63.89c9.02,13.9,6.34,19.02,8.29,24.14
			c1.95,5.12,0.98,38.53-0.49,57.06c-1.46,18.53-5.73,83.16-9.75,98.52c-4.02,15.36-9.02,21.95-12.92,41.46
			c-3.9,19.51-10.12,45.05-11.46,69.01c0,0-8.2,56.88-7.44,78.28c0.81,22.93-5.12,178.88,27.8,216.92
			c-1.59,7.44-0.12,20.36,0.12,24.26c0.24,3.9-9.27,44.38-5.61,71.45c3.66,27.07,2.19,17.68,1.46,24.45
			c-0.73,6.77-30,97.49,13.9,264.54c2.62,9.98,3.66,30.12,3.66,40.73c0,10.61-3.66,31.46-3.66,41.34c0,9.88-0.37,14.63,1.83,20.85
			c2.19,6.22,1.83,16.46,0.37,24.14c-1.46,7.68-31.09,28.53-33.65,39.87c-2.56,11.34-5.85,17.92-1.1,21.22c4.76,3.29,6.95,0,6.95,0
			s-1.83,5.49,1.1,8.41c2.93,2.93,11.71,2.56,11.71,2.56s2.93,0.73,4.76,3.66c1.83,2.93,9.51,4.39,11.34,2.56
			c1.83-1.83,2.93-1.68,4.39,0.81c0.79,1.34,4.04,2.92,6.86,4.09c2.71,1.12,5.79,0.88,8.29-0.66l5.7-3.51c0,0,4.76,5.49,5.85,5.85
			c1.1,0.37,12.44,4.39,15.36,0c2.93-4.39,16.83-15,16.1-27.44c-0.73-12.44-1.83-19.39-1.46-23.78c0.37-4.39,1.46-10.97,3.29-17.56
			c1.83-6.58,4.02-9.51,2.56-21.95c-1.46-12.44-0.37-13.17-0.37-15.36c0-2.19,1.83-8.05,2.19-14.63c0.37-6.58-4.76-20.12-4.76-20.12
			s-2.2-13.17-3.29-31.09c-1.1-17.92,2.56-88.52,9.88-111.94c7.32-23.41,11.61-30.74,12.44-36.58
			c8.78-61.82-5.48-128.38-8.05-151.93c-1.46-13.41,4.39-14.88,8.05-28.41c3.66-13.53,6.58-47.19,2.56-62.19
			c-2.95-11,10.24-51.21,12.07-63.65c1.83-12.44,26.95-108.64,28.29-125.84c1.34-17.19,3.05-70.52-1.46-78.57
			c2.15,0,8.3,4.27,10.93,5.02c0.11,0.1,0.3,0.12,0.53,0.1c0.23,0.02,0.42,0,0.53-0.1c2.62-0.74,8.78-5.02,10.93-5.02
			c-4.51,8.05-2.8,61.37-1.46,78.57c1.34,17.19,26.46,113.4,28.29,125.84c1.83,12.44,15.02,52.65,12.07,63.65
			c-4.02,15-1.1,48.65,2.56,62.19c3.66,13.53,9.51,15,8.05,28.41c-2.57,23.55-16.83,90.11-8.05,151.93
			c0.83,5.84,5.12,13.17,12.44,36.58c7.32,23.41,10.97,94.01,9.88,111.94c-1.1,17.92-3.29,31.09-3.29,31.09s-5.12,13.53-4.76,20.12
			c0.37,6.58,2.19,12.44,2.19,14.63c0,2.19,1.1,2.93-0.37,15.36c-1.46,12.44,0.73,15.36,2.56,21.95c1.83,6.58,2.93,13.17,3.29,17.56
			c0.37,4.39-0.73,11.34-1.46,23.78c-0.73,12.44,13.17,23.05,16.1,27.44c2.93,4.39,14.27,0.37,15.36,0c1.1-0.37,5.85-5.85,5.85-5.85
			l5.7,3.51c2.5,1.54,5.58,1.78,8.29,0.66c2.82-1.17,6.07-2.75,6.86-4.09c1.46-2.49,2.56-2.64,4.39-0.81
			c1.83,1.83,9.51,0.37,11.34-2.56c1.83-2.93,4.76-3.66,4.76-3.66s8.78,0.37,11.71-2.56c2.93-2.93,1.1-8.41,1.1-8.41
			s2.19,3.29,6.95,0c4.76-3.29,1.46-9.88-1.1-21.22c-2.56-11.34-32.19-32.19-33.65-39.87c-1.46-7.68-1.83-17.92,0.37-24.14
			c2.19-6.22,1.83-10.97,1.83-20.85c0-9.88-3.66-30.73-3.66-41.34c0-10.61,1.03-30.74,3.66-40.73
			c43.9-167.05,14.63-257.77,13.9-264.54c-0.73-6.77-2.2,2.62,1.46-24.45c3.66-27.07-5.85-67.55-5.61-71.45
			c0.24-3.9,1.71-16.83,0.12-24.26c32.92-38.04,26.99-193.99,27.8-216.92c0.76-21.4-7.44-78.28-7.44-78.28
			c-1.34-23.97-7.56-49.51-11.46-69.01c-3.9-19.51-8.9-26.09-12.92-41.46c-4.02-15.36-8.29-79.99-9.75-98.52
			c-1.46-18.53-2.44-51.94-0.49-57.06c1.95-5.12-0.73-10.24,8.29-24.14c9.02-13.9,13.41-63.89,13.41-63.89
			c1.64-1.11,2.68,1.71,6.1,1.83c7.32,31.58,16.83,54.75,23.41,62.55c5.71,6.76,10.24,11.71,11.71,22.92
			c1.46,11.22,0.98,12.19,3.9,35.6c2.93,23.41,14.71,54.08,21.01,64.38c5.82,9.51,57.55,110.74,61.66,126.08
			c6.71,25,3.39,31.93,3.17,39.75c-0.47,16.84,6.34,36.82,9.27,51.21c2.93,14.39,8.66,23.66,9.75,41.21
			c1.1,17.56,1.71,46.46,10.12,46.46s7.49-28.7,8.6-40.24c0.84-8.79,0.18-11.89,4.57-12.8c2.93,4.94,7.68,37.49,11.52,50.66
			c3.84,13.17,5.12,24.33,14.82,21.4c6.28-1.89,1.36-30.79,0.55-36.4c-1.6-11.1-4.57-24.2-5.79-33.71
			c4.88,7.8,10.08,24.74,14.88,34.26c2.83,5.63,9.27,25,20.73,32.56c4.1,2.7,10.24,0.73,10.12-8.17
			c-0.09-6.4-9.75-25.12-11.83-31.34c-2.07-6.22-7.32-21.95-10.55-35.3c2.01,2.19,13.35,16.83,16.37,20.76
			c2.65,4.02,16.19,26.98,18.56,28.81c2.38,1.83,7.86,2.74,11.71-2.74c3.84-5.49-10.43-25.06-15.18-35.67
			c-4.76-10.61-16.77-28.53-17.13-34.39c-0.37-5.85,2.04-13.17,2.04-13.17s1.74,0.09,8.87,4.76c5.94,13.35,24.2,17.31,31.03,15.73
			C1461.69,1038.85,1459.98,1029.22,1457.55,1026.66z"/>
		<path class="st1" d="M1072.78,147.39c-15.56-5.59-30.2-10.65-48.53-9.1c-18.33-1.56-32.97,3.5-48.53,9.1
			c-24.2,8.7-31.43,41.17-30.93,64.6c0,9.67,2.51,19.29,4.65,28.65c2.19,9.6,3.4,19.01,4.47,28.8c0.08,0.73,0.2,1.54,0.79,1.98
			c1.39,1.05,2.99-1.1,3.29-2.82c1.38-7.81,1.68-15.46,1.68-23.52c-0.04-35.19,10.94-17.15,12.78-50.26
			c0.47-8.49,4.45-14.31,13.84-13.86c12.95,0.62,25.3-0.72,37.98-3.05c12.68,2.33,25.03,3.67,37.97,3.05
			c9.39-0.45,13.37,5.37,13.84,13.86c1.84,33.11,12.81,15.07,12.78,50.26c-0.01,8.06,0.3,15.71,1.68,23.52
			c0.3,1.72,1.9,3.87,3.29,2.82c0.58-0.44,0.71-1.25,0.79-1.98c1.07-9.79,2.28-19.2,4.47-28.8c2.14-9.37,4.65-18.98,4.65-28.65
			C1104.21,188.56,1096.99,156.09,1072.78,147.39z"/>
		<g>
			<path id="chest" class="muscle st2" d="M874.27,509.7c-2.35,31.47,5.9,69.53,31.23,84.64c9.3,5.55,20.1,7.97,30.71,10.11
				c33.33,6.72,73.63-9.88,76.89-40.34c3.49-32.59,8.45-71.6-6.18-100.13c-9.73-18.98-19.14-19.02-29.75-20.12
				c-10.61-1.1-43.41-2.19-56.22,3.66c-16.64,7.61-36.25,18.66-42.1,37.07C876.54,491.92,874.96,500.53,874.27,509.7z"/>
			<path  class="muscle st2" d="M884.51,582.51c10.24,12.07,25.49,20.52,34.26,25.01c4.43,2.27,4.88,10.84,1.22,11.93
				c-3.66,1.1-33.65-9.6-37.31-16.32s-4.76-16.6-4.02-20.62C879.38,578.49,884.51,582.51,884.51,582.51z"/>
			<path class="st2" d="M874.29,610.84c-0.14,0.81-0.12,1.63,0.09,2.42c3.4,12.63,15.42,33.77,20.24,36.18
				c2.93,1.46,16.46-13.17,18.29-14.27c1.83-1.1,5.85-6.58,5.85-6.58s-29.07-10.51-34.6-15.55c-1.96-1.79-8.29-11.64-8.29-11.64
				L874.29,610.84z"/>
			<path class="st2" d="M876.34,634.09c0,0-2.56,19.39,4.39,34.02c6.95,14.63,9.88,16.46,9.88,16.46s8.78-23.41,5.12-27.07
				C892.07,653.84,876.34,634.09,876.34,634.09z"/>
			<path id="obliques-left" class="muscle st2" d="M896.18,728.65c4.63,7.07,35.33,30.18,38.5,34.08c3.17,3.9-0.03,27.74,1.04,37.07
				c-12.19-2.93-38.09-24.26-39.8-32.56C894.21,758.95,896.18,728.65,896.18,728.65z"/>
			<path id="obliques-left" class="muscle st2" d="M894.63,690.46c1.71,1.83,28.72,24.51,40,29.82c4.83,2.28,1.09,37.49,1.09,37.49s-33.37-26.9-38.4-34.95
				c-5.04-8.05-3.11-13.22-3.6-16.64C893.22,702.77,894.63,690.46,894.63,690.46z"/>
			<path id="abs" class="muscle st2" d="M951.32,622.38c-6.53,4.43-6.58,17.19-7.68,22.31c-1.1,5.12,2.56,28.17,2.56,28.17s3.66,18.29,5.12,20.49
				c1.83,2.74,49.91-28.36,54.53-31.23c3.9-2.41,8.94-2.36,10.76-7.45c3-8.37,1.43-18.59,1.06-27.39
				c-0.32-7.74,0.14-24.23-7.26-29.08c-6.63-4.35-15.58,3.13-21.5,5.74c-10.21,4.51-20.44,9.06-30.33,14.26
				C956.13,619.49,953.64,620.81,951.32,622.38z"/>
			<path id="abs" class="muscle st2" d="M1011.02,671.61c-4.91,1.18-5.78,2.83-10.5,5.1c-5.83,2.81-11.58,5.81-17.24,8.95
				c-8.79,4.86-19.61,9.91-26.55,17.39c-0.27,0.29-0.53,0.58-0.77,0.9c-5.61,7.56-5.85,33.17-5.37,34.87
				c0.49,1.71,63.79,6.71,66.94-2.32c2.66-7.63,0.62-15.72,0.91-23.67c0.42-11.48,1.05-25.16-0.18-35.41
				C1018.16,676.59,1013.33,671.06,1011.02,671.61z"/>
			<path id="abs" class="muscle st2" d="M950.43,754.68c-3.98,11.71-1.78,41.46,3.09,45.6c4.88,4.15,56.09,3.96,61.45,3.71
				c5.36-0.24,5.03-25.91,5.12-34.2s0.65-22.39-2.52-23.61c-3.17-1.22-26.25-1.02-33.33,1.66
				C977.17,750.54,950.43,754.68,950.43,754.68z"/>
			<path id="abs" class="muscle st2" d="M950.43,813.7c1.14,18.05,12.42,165.73,56.66,176.14c4.15,0.98,8.57,5.44,9.82,3
				c3.29-7.8,3.29-164.5,3.29-171.33c0-6.83-10.46-7.53-15.83-8.99c-5.36-1.46-48.72-2.71-51.33-0.76
				C950.43,813.7,950.43,813.7,950.43,813.7z"/>
			<path id="obliques-left" class="muscle st2" d="M895.74,778.54c0.28-0.68,1.18-0.79,1.69-0.26c20.6,21.53,35.02,28.05,39.02,31.28
				c3.78,3.05,4.88,69.99,9.27,86.57c1.98,7.46,5.77,14.89,2.46,16.5c-4.39,2.13-15.96-3.21-19.26-6.8l-39.29-42.86
				C889.63,862.96,890.5,791.39,895.74,778.54z"/>
			<path class="st2" d="M929.38,629.33c-16.58,14.14-23.95,20.89-25.73,24.02c-1.98,3.48,22.56,23.29,29.14,25.48
				c6.58,2.19,2.93-18.05,2.93-23.66c0-5.61,0.49-27.56,0-29.02C935.23,624.7,929.38,629.33,929.38,629.33z"/>
			<path id="obliques-left" class="muscle st2" d="M901.49,666.67c0.44-1.39,2.17-1.87,3.23-0.87c7.58,7.16,28.49,17.87,29.68,21.69
				c0.92,2.97,2.9,24.6,0.22,25.33c-2.68,0.73-39.36-24.69-38.9-27C896.33,682.76,899.77,672.13,901.49,666.67z"/>
			<path class="st2" d="M977.3,335.6c16.46,13.29,16.78,27.82,24.02,42.31c20.85,41.7,13.26,66.86,8.42,61.68
				c-14.1-15.1-28.78-63.39-30.98-67.41C976.57,368.15,977.3,335.6,977.3,335.6z"/>
			<path class="st2" d="M974.76,396.07c-1.95,15.12-0.75,20.12,2.42,28.17c3.17,8.05,20.97,16.46,22.67,17.68
				c-9.63-23.05-18.53-38.9-22.67-53.29C973.76,389.37,974.76,396.07,974.76,396.07z"/>
			<path class="st2" d="M962.54,393.27c-8.29,10-39.75,30.67-48.53,33.41c-1.46,5.67,44.63,10.85,50.48,6.22
				c5.85-4.63,5.85-34.51,4.88-39.63C968.4,388.15,962.54,393.27,962.54,393.27z"/>
			<path id="delts-left" class="muscle st2" d="M906.1,447.16c-4.4,2.87-10.44,4.19-15.21,6.39c-14.07,6.48-27.13,13.52-26.99,30.78
				c0.1,13.43,1.71,27.98-5.56,39.27c-4.63,7.19-10.74,13.22-16.16,19.79c-5.36,6.49-8.52,12.38-17.65,7.61
				c-21.42-11.2-36.22-33.2-34.33-57.85c1.05-13.63,7.23-26.79,16.93-36.4c10.77-10.67,21.24-21.16,35.15-27.91
				c19.07-9.25,40.29-5.85,57.48,6C905.97,439.12,906.1,447.16,906.1,447.16z"/>
			<path id="biceps-left" class="muscle st2" d="M842.43,592.49c-8.96,33.34-43.46,107.59-44.03,109.34c-1.37,4.27,1.32,9.91,4.82,12.46
				c5.48,3.99,11.25-4.45,14.21-8.1c20-24.67,37.66-71.08,40.48-82.46c3.38-13.64,14.14-32.92,9.75-55.85
				c-4.39-22.92-8.29-33.65-10.24-31.21c-2.57,3.22-3.13,9.96-4.13,13.81c-2.7,10.4-4.13,21.16-7.08,31.41
				C845.19,585.48,843.41,588.84,842.43,592.49z"/>
			<path id="biceps-left" class="muscle st2" d="M809.39,566.82c-11.35,5.85-30.59,39.29-33.29,55.97c-5,30.94-3.48,47.8-3.78,56.94
				c-0.3,9.14,16.1,7.32,29.75-5.12c8.51-7.75,31.39-59.75,26.83-85.44C825.57,570.42,819.64,562.43,809.39,566.82z"/>
			<path id="forearm-left" class="muscle st2" d="M767.2,693.43c12.24-6.09,6.29,74.05-2.19,95.15c-9.02,22.44-20.8,52.33-32.19,79.74
				c-6.81,16.39-26.09,75.84-34.39,79.74c-8.29,3.9-0.49-35.36,3.41-50.97c3.9-15.61,15.12-80.51,18.53-92.69
				c3.41-12.18,0.98-46.12,9.75-58.66C738.92,733.22,749.16,702.42,767.2,693.43z"/>
			<path id="forearm-left" class="muscle st2" d="M800.49,733.71c6.34,23.9-3.6,46.64-8.47,60.78c-4.88,14.14-14.45,27.98-23.23,41.64
				c-8.78,13.66-32.96,70.49-38.65,85.6c-13.65,36.21-20.24,25.85-14.88,12.19c5.37-13.66,15.49-44.63,21.83-59.26
				c6.34-14.63,8.17-23.3,15.73-39.87c7.44-16.3,15.97-33.78,21.34-48.41c5.37-14.63,7.8-50.24,16.58-52.68
				C799.52,731.27,800.49,733.71,800.49,733.71z"/>
			<path class="st2" d="M778.3,834.37c-10.77,13.66-19.1,31.59-24.51,44.2c-4.99,11.65-9.79,23.4-14.43,35.19
				c-4.3,10.93-8.69,21.93-12.06,33.2c-0.56,1.88-2.23,4.64-1.44,6.61c2.02-1.64,3.01-4.16,4.28-6.34c1.34-2.3,2.61-4.64,3.83-7
				c2.9-5.58,5.58-11.27,8.19-16.99c5.92-12.98,11.45-26.13,17.14-39.22c4.89-11.24,9.73-22.6,15.64-33.36
				c0.29-0.53,0.59-1.07,0.89-1.6c14.14-24.87,18.53-31.7,24.39-46.33c5.85-14.63,18.53-38.53,16.58-42.92
				c-1.36-3.06-6.26-7.95-8.4-9.51c-0.75-0.54-1.39,4.2-1.46,5.12C804.64,785.89,788.06,822,778.3,834.37z"/>
			<path class="muscle st2" d="M910.36,1320.33c7.68,0,33.3,1.83,36.22,4.76c2.92,2.93,8.41,43.53-7.69,65.48
				c-16.1,21.95-30,10.61-34.39-2.19s-17.92-48.65-12.8-59.63C896.82,1317.77,910.36,1320.33,910.36,1320.33z"/>
			<path class="st2" d="M959.01,1345.21c-5.49,25.24-9.12,36.21-26.34,70.23c-14.11,27.89-19.04,53.77-12.45,53.04
				c6.59-0.73,30.37-55.65,34.03-65.85c3.66-10.21,14.67-41.47,15.55-47.91c1.24-9.09-1.65-15-3.84-17.56
				C963.76,1334.6,959.01,1345.21,959.01,1345.21z"/>
			<path class="st2" d="M956.93,1419.95c-6.34,19.51-28.78,49.75-30.24,68.77c-1.46,19.02,13.32,140.71,11.71,155.83
				c5.94-10.32,13.4-58.05,23.9-83.16c6.47-15.46,11.4-36.05,0-105.35C958.97,1435.83,956.93,1419.95,956.93,1419.95z"/>
			<path class="st2" d="M890.56,1364.59c8.09,54.87,35.16,185.83,38.09,244.36c2.93,58.53,0.73,50.85-1.83,55.6
				c-2.56,4.76-25.97-60.24-33.29-96.82c-7.32-36.58-16.1-125.84-12.68-159.98c3.41-34.14,1.95-60.48,5.37-59.02
				C889.63,1350.21,890.56,1364.59,890.56,1364.59z"/>
			<path class="st2" d="M869.63,1428.24c-3.41,39.99-1.95,114.62,3.41,145.83s21.95,94.13,23.41,104.86s-3.41,22.92,0,26.83
				c3.41,3.9,15.12-20.48,13.17-40.97c-1.95-20.49-16.74-72.68-20.81-93.16c-4.07-20.48-14.31-72.18-13.82-90.23
				c0.49-18.05,0.49-40.97,1.46-59.02c0.98-18.05,3.41-25.36,0-25.36C873.04,1397.03,869.63,1428.24,869.63,1428.24z"/>
			<path class="st2" d="M894.89,1751.61c9.11,16.7,40.97,23.9,45.36,39.99c6.83-6.34,12.19-32.19,8.78-46.82s-6.34-25.36-9.75-30.24
				c-3.41-4.88-4.41-7.32-7.8-12.19c-3.04-4.36-13.41-15.3-21.22-6.52c-7.8,8.78-6.44,12.86-8.22,24.57
				C900.26,1732.1,891.97,1746.25,894.89,1751.61z"/>
			<path class="st2" d="M922.43,1677.36c17.92,16.22,22.68,39.51,22.68,33.65s1.1-22.31-5.49-29.63
				c-6.58-7.32-10.17-8.41-14.41-8.41C920.96,1672.97,922.43,1677.36,922.43,1677.36z"/>
			<path id="calves-left" d="M900.48,1777.95c-5.49,14.27-36.21,48.9-39.87,55.85c-3.66,6.95,20.97,14.14,26.09,14.14
				c5.12,0,20.97,3.05,24.63,4.88c3.66,1.83,4.51-11.58,4.88-15.97c0.37-4.39,13.97-26.34,9-36.95s7.34-7.32-3.02-13.9
				C911.82,1779.41,900.48,1777.95,900.48,1777.95z"/>
			<path class="st2" d="M929.13,1809.78c0,8.41-0.29,18.66-5.27,31.09c-4.97,12.44,1.1,16.1,2.63,15.36
				c1.54-0.73,12.15-2.93,12.15-2.93s4.02-6.58,2.93-10.61c-1.1-4.02,9.75-15.63,3.9-25.24c-5.85-9.61-7.34-20.61-8.78-23.9
				C935.26,1790.27,929.13,1809.78,929.13,1809.78z"/>
			<path class="st2" d="M685.9,961.73c2.02-0.35,4.05-0.44,6.09-0.2c11.62,1.38,31.87,3.72,36.48,16.86
				c0.54,1.53,0.58,3.17,0.59,4.79c0.16,17.13-1.93,34.31-6.34,50.87c-0.83,3.11-1.79,6.25-3.64,8.89
				c-10.4,14.89-38.44,4.77-50.17-2.66c-10.6-6.71-26.53-17.09-27.26-30.73c-0.65-12.12,6.6-25.12,16.35-32.04
				C666,971.84,675.73,963.49,685.9,961.73z"/>
			<path class="st2" d="M702.85,1056.35c-0.14,7.75-0.25,15.5-0.2,23.25c0.05,4.98,0.19,9.97,0.69,14.94
				c0.42,4.13,0.52,11.78,3.12,15.03c1.55,1.93,5.91-9.97,6.06-10.7c0.68-3.38,0.56-45.37,2.39-45.58
				C710.83,1053.77,706.72,1055,702.85,1056.35z"/>
			<path class="st2" d="M678.56,1055.72c-3.22,13.53-4.35,27.69-6.65,41.41c-0.75,4.49-1.51,8.98-2.21,13.48
				c-0.92,5.95-1.94,10.86-1.27,16.98c0.06,0.57,0.15,1.17,0.51,1.61c1.69,2.02,5.72-0.04,6.96-1.57c1.37-1.7,1.92-3.9,2.27-6.05
				c0.97-5.98,2.39-11.89,3.6-17.83c1.83-9.01,3.56-18.05,5.38-27.06c1.12-5.54,2.24-11.08,3.36-16.62c0.14-0.67,0.27-1.4-0.03-2.02
				C689.88,1056.77,678.59,1055.58,678.56,1055.72z"/>
			<path class="st2" d="M657.12,1049.72c-1.94,2.01-3.24,9.4-3.86,11.24c-1.68,5.04-3.47,10.04-5.31,15.02
				c-3.62,9.78-7.46,19.48-11.16,29.23c-2.47,6.5-5.71,12.78-5.62,19.91c0.05,3.81,4.76,1.93,6.76,0.99
				c6.39-3.02,7.2-8.04,9.6-13.96c1.86-4.58,3.76-9.14,5.67-13.69c5.94-14.12,11.96-28.18,18.73-41.92
				c0.25-0.51,0.51-1.04,0.57-1.61c0.52-5.06-11.37-5.59-14.36-5.71C657.78,1049.19,657.44,1049.38,657.12,1049.72z"/>
			<path class="st2" d="M640.25,1034.07c-3.44,2.89-10.72,19.33-11.99,21.68c-3.65,6.75-7.29,13.5-10.93,20.25
				c-2.94,5.45-8.7,12.6-9.38,18.88c-0.21,1.55-1.63,10.07,2.16,8.34c0.57-0.26,1-0.74,1.41-1.21c10-11.34,17.77-23.92,26.36-36.29
				c2.52-3.63,4.91-7.34,7.58-10.86c2.3-3.03,6.23-5.86,8.05-9.1c0.79-1.41,0.69-3.13,0.57-4.74c-0.04-0.58-0.09-1.18-0.4-1.67
				c-0.28-0.45-0.75-0.76-1.2-1.04c-3.47-2.12-7.27-3.7-11.22-4.66C640.99,1033.58,640.65,1033.74,640.25,1034.07z"/>
			<path class="st2" d="M637.47,983.43c-6.1,5.85-16.1,17.28-20.24,25.95c-4.15,8.68-21.95,12.09-22.19,17.46
				c-0.24,5.37-1.46,8.78,0.98,9.02c2.44,0.24,11.71,0.73,17.31-4.39c5.61-5.12,9.75-8.05,13.41-13.17
				c3.66-5.12,6.83-11.22,8.54-19.27c1.71-8.05,6.58-19.27,6.58-19.27L637.47,983.43z"/>
			<path class="st2" d="M1024.06,347.67c0.41,19.02,2.78,50.97,0.26,58.04c-2.52,7.07-8.54-18.05-16.75-35.36
				c-8.2-17.31-5.11-10.81-7.31-18.62c-2.19-7.8-15.04-7.07-6.26-7.8C1002.78,343.2,1024.06,347.67,1024.06,347.67z"/>
			<path class="st2" d="M921.93,911.66c15.01,11.22,61.83,70.72,77.09,145.35c0,0-7.99,26.72-18.7,24.39
				c-2.38-0.52-36.79-110.11-64.23-160.95c-7.86-14.58-8.41-22.31-8.41-22.31L921.93,911.66z"/>
			<path class="st2" d="M899.38,912.1c18.64,62.06,80.68,297.68,79.56,334.34c18.64-53.35,3.35-123.52-19.57-190.95
				C940.2,999.1,899.38,912.1,899.38,912.1z"/>
			<path class="st2" d="M889.63,925.39c11.71,54.59,51.72,142.56,56.79,218.75c4.89,73.42-3.75,147.8-17.41,153.65
				c-13.66,5.85-36.87-90.8-40.85-107.07c-10.09-41.27-32.29-116.65-29.85-155.59c2.11-33.61,7.77-51.23,12.29-66.82
				C876.68,947.36,889.63,925.39,889.63,925.39z"/>
			<path class="st2" d="M863.53,1113.9c2.44,21.95,17.19,93.77,35.85,140.22c8.69,21.64,11.22,44.87,4.39,52.19
				c-6.83,7.32-14.63-33.17-25.36-50.24s-19.69-72.17-20.28-94.38c-0.77-28.98-5.57-51.7-3.13-59.5
				C857.44,1094.39,863.53,1113.9,863.53,1113.9z"/>
			<path class="st2" d="M951.84,1160.97c7.53,84.01-13.38,124.86-2.23,142.42c11.15,17.56,19.91,9.94,18.53,0.24
				c-2.44-17.21,10.61-45.2,0-94.86C962.54,1182.5,951.84,1160.97,951.84,1160.97z"/>
			<path class="st2" d="M1003.02,1067.81c-9.02,13.41-21.22,25.89-20.97,30.14c0.24,4.25,12.68,68.63,11.95,75.94
				c7.56-7.32,14.63-95.11,14.14-103.16C1007.66,1062.69,1003.02,1067.81,1003.02,1067.81z"/>
			<path id="chest" class="muscle st2" d="M1174.22,509.7c2.35,31.47-5.9,69.53-31.23,84.64c-9.3,5.55-20.1,7.97-30.71,10.11
				c-33.33,6.72-73.63-9.88-76.89-40.34c-3.49-32.59-8.45-71.6,6.18-100.13c9.73-18.98,19.14-19.02,29.75-20.12
				c10.61-1.1,43.41-2.19,56.22,3.66c16.64,7.61,36.25,18.66,42.1,37.07C1171.95,491.92,1173.54,500.53,1174.22,509.7z"/>
			<path  class="muscle st2" d="M1163.99,582.51c-10.24,12.07-25.49,20.52-34.26,25.01c-4.43,2.27-4.88,10.84-1.22,11.93
				c3.66,1.1,33.65-9.6,37.31-16.32s4.76-16.6,4.02-20.62C1169.11,578.49,1163.99,582.51,1163.99,582.51z"/>
			<path class="st2" d="M1174.2,610.84c0.14,0.81,0.12,1.63-0.09,2.42c-3.4,12.63-15.42,33.77-20.24,36.18
				c-2.93,1.46-16.46-13.17-18.29-14.27c-1.83-1.1-5.85-6.58-5.85-6.58s29.07-10.51,34.6-15.55c1.96-1.79,8.29-11.64,8.29-11.64
				L1174.2,610.84z"/>
			<path class="st2" d="M1172.16,634.09c0,0,2.56,19.39-4.39,34.02c-6.95,14.63-9.88,16.46-9.88,16.46s-8.78-23.41-5.12-27.07
				C1156.43,653.84,1172.16,634.09,1172.16,634.09z"/>
			<path id="obliques-right" class="muscle st2" d="M1152.31,728.65c-4.63,7.07-35.33,30.18-38.5,34.08c-3.17,3.9,0.03,27.74-1.04,37.07
				c12.19-2.93,38.09-24.26,39.8-32.56C1154.28,758.95,1152.31,728.65,1152.31,728.65z"/>
			<path id="obliques-right" class="muscle st2" d="M1153.87,690.46c-1.71,1.83-28.72,24.51-40,29.82c-4.83,2.28-1.09,37.49-1.09,37.49s33.37-26.9,38.4-34.95
				c5.04-8.05,3.11-13.22,3.6-16.64C1155.27,702.77,1153.87,690.46,1153.87,690.46z"/>
			<path id="abs" class="muscle st2" d="M1097.17,622.38c6.53,4.43,6.58,17.19,7.68,22.31c1.1,5.12-2.56,28.17-2.56,28.17s-3.66,18.29-5.12,20.49
				c-1.83,2.74-49.91-28.36-54.53-31.23c-3.9-2.41-8.94-2.36-10.76-7.45c-3-8.37-1.43-18.59-1.06-27.39
				c0.32-7.74-0.14-24.23,7.26-29.08c6.63-4.35,15.58,3.13,21.5,5.74c10.21,4.51,20.44,9.06,30.33,14.26
				C1092.37,619.49,1094.85,620.81,1097.17,622.38z"/>
			<path id="abs" class="muscle st2" d="M1037.48,671.61c4.91,1.18,5.78,2.83,10.5,5.1c5.83,2.81,11.58,5.81,17.24,8.95
				c8.79,4.86,19.61,9.91,26.55,17.39c0.27,0.29,0.53,0.58,0.77,0.9c5.61,7.56,5.85,33.17,5.36,34.87
				c-0.49,1.71-63.79,6.71-66.94-2.32c-2.66-7.63-0.62-15.72-0.91-23.67c-0.42-11.48-1.05-25.16,0.18-35.41
				C1030.33,676.59,1035.16,671.06,1037.48,671.61z"/>
			<path id="abs" class="muscle st2" d="M1098.07,754.68c3.98,11.71,1.78,41.46-3.09,45.6c-4.88,4.15-56.09,3.96-61.45,3.71
				c-5.37-0.24-5.03-25.91-5.12-34.2s-0.65-22.39,2.52-23.61c3.17-1.22,26.25-1.02,33.33,1.66
				C1071.32,750.54,1098.07,754.68,1098.07,754.68z"/>
			<path id="abs" class="muscle st2" d="M1098.07,813.7c-1.14,18.05-12.42,165.73-56.66,176.14c-4.15,0.98-8.57,5.44-9.82,3
				c-3.29-7.8-3.29-164.5-3.29-171.33c0-6.83,10.46-7.53,15.83-8.99c5.36-1.46,48.72-2.71,51.33-0.76
				C1098.07,813.7,1098.07,813.7,1098.07,813.7z"/>
			<path id="obliques-right" class="muscle st2" d="M1152.75,778.54c-0.28-0.68-1.19-0.79-1.69-0.26c-20.6,21.53-35.02,28.05-39.02,31.28
				c-3.78,3.05-4.88,69.99-9.27,86.57c-1.98,7.46-5.77,14.89-2.46,16.5c4.39,2.13,15.96-3.21,19.26-6.8l39.29-42.86
				C1158.87,862.96,1157.99,791.39,1152.75,778.54z"/>
			<path class="st2" d="M1119.12,629.33c16.58,14.14,23.95,20.89,25.73,24.02c1.98,3.48-22.56,23.29-29.14,25.48
				c-6.58,2.19-2.93-18.05-2.93-23.66c0-5.61-0.49-27.56,0-29.02C1113.26,624.7,1119.12,629.33,1119.12,629.33z"/>
			<path id="obliques-right" class="muscle st2" d="M1147,666.67c-0.44-1.39-2.17-1.87-3.23-0.87c-7.58,7.16-28.49,17.87-29.68,21.69
				c-0.92,2.97-2.9,24.6-0.22,25.33c2.68,0.73,39.36-24.69,38.9-27C1152.16,682.76,1148.72,672.13,1147,666.67z"/>
			<path class="st2" d="M1071.2,335.6c-16.46,13.29-16.78,27.82-24.02,42.31c-20.85,41.7-13.26,66.86-8.42,61.68
				c14.1-15.1,28.78-63.39,30.98-67.41S1071.2,335.6,1071.2,335.6z"/>
			<path class="st2" d="M1073.73,396.07c1.95,15.12,0.75,20.12-2.42,28.17c-3.17,8.05-20.97,16.46-22.67,17.68
				c9.63-23.05,18.53-38.9,22.67-53.29C1074.73,389.37,1073.73,396.07,1073.73,396.07z"/>
			<path class="st2" d="M1085.95,393.27c8.29,10,39.75,30.67,48.53,33.41c1.46,5.67-44.63,10.85-50.48,6.22
				c-5.85-4.63-5.85-34.51-4.88-39.63C1080.1,388.15,1085.95,393.27,1085.95,393.27z"/>
			<path id="delts-right" class="muscle st2" d="M1142.39,447.16c4.4,2.87,10.44,4.19,15.21,6.39c14.07,6.48,27.13,13.52,26.99,30.78
				c-0.1,13.43-1.71,27.98,5.56,39.27c4.63,7.19,10.74,13.22,16.16,19.79c5.36,6.49,8.52,12.38,17.65,7.61
				c21.42-11.2,36.22-33.2,34.33-57.85c-1.05-13.63-7.23-26.79-16.93-36.4c-10.77-10.67-21.24-21.16-35.15-27.91
				c-19.07-9.25-40.29-5.85-57.48,6C1142.53,439.12,1142.39,447.16,1142.39,447.16z"/>
			<path id="biceps-right" class="muscle st2" d="M1206.06,592.49c8.96,33.34,43.46,107.59,44.03,109.34c1.37,4.27-1.32,9.91-4.82,12.46
				c-5.48,3.99-11.25-4.45-14.21-8.1c-20-24.67-37.66-71.08-40.48-82.46c-3.38-13.64-14.14-32.92-9.75-55.85
				c4.39-22.92,8.29-33.65,10.24-31.21c2.57,3.22,3.13,9.96,4.13,13.81c2.7,10.4,4.13,21.16,7.08,31.41
				C1203.3,585.48,1205.08,588.84,1206.06,592.49z"/>
			<path id="biceps-right" class="muscle st2" d="M1239.1,566.82c11.35,5.85,30.59,39.29,33.29,55.97c5,30.94,3.48,47.8,3.78,56.94
				c0.3,9.14-16.1,7.32-29.75-5.12c-8.51-7.75-31.39-59.75-26.83-85.44C1222.92,570.42,1228.86,562.43,1239.1,566.82z"/>
			<path id="forearm-right" class="muscle st2" d="M1281.29,693.43c-12.24-6.09-6.29,74.05,2.19,95.15c9.02,22.44,20.8,52.33,32.19,79.74
				c6.81,16.39,26.09,75.84,34.39,79.74c8.29,3.9,0.49-35.36-3.41-50.97c-3.9-15.61-15.12-80.51-18.53-92.69
				c-3.41-12.18-0.98-46.12-9.75-58.66C1309.58,733.22,1299.33,702.42,1281.29,693.43z"/>
			<path id="forearm-right" class="muscle st2" d="M1248,733.71c-6.34,23.9,3.6,46.64,8.47,60.78c4.88,14.14,14.45,27.98,23.23,41.64
				c8.78,13.66,32.96,70.49,38.65,85.6c13.65,36.21,20.24,25.85,14.88,12.19c-5.36-13.66-15.49-44.63-21.83-59.26
				c-6.34-14.63-8.17-23.3-15.73-39.87c-7.44-16.3-15.97-33.78-21.34-48.41c-5.36-14.63-7.8-50.24-16.58-52.68
				C1248.97,731.27,1248,733.71,1248,733.71z"/>
			<path class="st2" d="M1270.19,834.37c10.77,13.66,19.1,31.59,24.51,44.2c4.99,11.65,9.79,23.4,14.43,35.19
				c4.3,10.93,8.69,21.93,12.06,33.2c0.56,1.88,2.23,4.64,1.44,6.61c-2.02-1.64-3.01-4.16-4.28-6.34c-1.34-2.3-2.61-4.64-3.83-7
				c-2.9-5.58-5.58-11.27-8.19-16.99c-5.92-12.98-11.45-26.13-17.14-39.22c-4.89-11.24-9.73-22.6-15.64-33.36
				c-0.29-0.53-0.59-1.07-0.89-1.6c-14.14-24.87-18.53-31.7-24.39-46.33c-5.85-14.63-18.53-38.53-16.58-42.92
				c1.36-3.06,6.26-7.95,8.4-9.51c0.75-0.54,1.39,4.2,1.46,5.12C1243.85,785.89,1260.44,822,1270.19,834.37z"/>
			<path class="muscle st2" d="M1138.14,1320.33c-7.68,0-33.3,1.83-36.22,4.76s-8.41,43.53,7.69,65.48c16.1,21.95,30,10.61,34.39-2.19
				c4.39-12.8,17.92-48.65,12.8-59.63S1138.14,1320.33,1138.14,1320.33z"/>
			<path class="st2" d="M1089.49,1345.21c5.49,25.24,9.12,36.21,26.34,70.23c14.11,27.89,19.04,53.77,12.45,53.04
				c-6.59-0.73-30.37-55.65-34.03-65.85c-3.66-10.21-14.67-41.47-15.55-47.91c-1.24-9.09,1.65-15,3.84-17.56
				C1084.73,1334.6,1089.49,1345.21,1089.49,1345.21z"/>
			<path class="st2" d="M1091.56,1419.95c6.34,19.51,28.78,49.75,30.24,68.77c1.46,19.02-13.32,140.71-11.71,155.83
				c-5.94-10.32-13.4-58.05-23.9-83.16c-6.47-15.46-11.4-36.05,0-105.35C1089.52,1435.83,1091.56,1419.95,1091.56,1419.95z"/>
			<path class="st2" d="M1157.93,1364.59c-8.09,54.87-35.16,185.83-38.09,244.36c-2.93,58.53-0.73,50.85,1.83,55.6
				c2.56,4.76,25.97-60.24,33.29-96.82c7.32-36.58,16.1-125.84,12.68-159.98c-3.41-34.14-1.95-60.48-5.36-59.02
				C1158.87,1350.21,1157.93,1364.59,1157.93,1364.59z"/>
			<path class="st2" d="M1178.86,1428.24c3.41,39.99,1.95,114.62-3.41,145.83c-5.36,31.22-21.95,94.13-23.41,104.86
				c-1.46,10.73,3.41,22.92,0,26.83c-3.41,3.9-15.12-20.48-13.17-40.97c1.95-20.49,16.74-72.68,20.81-93.16
				c4.07-20.48,14.31-72.18,13.82-90.23c-0.49-18.05-0.49-40.97-1.46-59.02c-0.98-18.05-3.41-25.36,0-25.36
				C1175.45,1397.03,1178.86,1428.24,1178.86,1428.24z"/>
			<path class="st2" d="M1153.6,1751.61c-9.11,16.7-40.97,23.9-45.36,39.99c-6.83-6.34-12.19-32.19-8.78-46.82
				c3.41-14.63,6.34-25.36,9.75-30.24c3.41-4.88,4.41-7.32,7.8-12.19c3.04-4.36,13.41-15.3,21.22-6.52
				c7.8,8.78,6.44,12.86,8.22,24.57C1148.23,1732.1,1156.52,1746.25,1153.6,1751.61z"/>
			<path class="st2" d="M1126.07,1677.36c-17.92,16.22-22.68,39.51-22.68,33.65s-1.1-22.31,5.49-29.63
				c6.58-7.32,10.17-8.41,14.41-8.41C1127.53,1672.97,1126.07,1677.36,1126.07,1677.36z"/>
			<path id="calves-right" d="M1148.01,1777.95c5.49,14.27,36.21,48.9,39.87,55.85c3.66,6.95-20.97,14.14-26.09,14.14
				s-20.97,3.05-24.63,4.88c-3.66,1.83-4.51-11.58-4.88-15.97c-0.37-4.39-13.97-26.34-9-36.95s-7.34-7.32,3.02-13.9
				C1136.67,1779.41,1148.01,1777.95,1148.01,1777.95z"/>
			<path class="st2" d="M1119.36,1809.78c0,8.41,0.29,18.66,5.27,31.09c4.97,12.44-1.1,16.1-2.63,15.36
				c-1.54-0.73-12.14-2.93-12.14-2.93s-4.02-6.58-2.93-10.61c1.1-4.02-9.75-15.63-3.9-25.24c5.85-9.61,7.34-20.61,8.78-23.9
				C1113.24,1790.27,1119.36,1809.78,1119.36,1809.78z"/>
			<path class="st2" d="M1362.6,961.73c-2.02-0.35-4.05-0.44-6.09-0.2c-11.62,1.38-31.87,3.72-36.48,16.86
				c-0.54,1.53-0.58,3.17-0.59,4.79c-0.16,17.13,1.93,34.31,6.34,50.87c0.83,3.11,1.8,6.25,3.64,8.89
				c10.4,14.89,38.44,4.77,50.17-2.66c10.6-6.71,26.53-17.09,27.26-30.73c0.65-12.12-6.6-25.12-16.35-32.04
				C1382.5,971.84,1372.76,963.49,1362.6,961.73z"/>
			<path class="st2" d="M1345.64,1056.35c0.14,7.75,0.25,15.5,0.2,23.25c-0.05,4.98-0.19,9.97-0.69,14.94
				c-0.42,4.13-0.52,11.78-3.12,15.03c-1.55,1.93-5.92-9.97-6.06-10.7c-0.68-3.38-0.56-45.37-2.39-45.58
				C1337.66,1053.77,1341.78,1055,1345.64,1056.35z"/>
			<path class="st2" d="M1369.93,1055.72c3.22,13.53,4.35,27.69,6.65,41.41c0.75,4.49,1.51,8.98,2.21,13.48
				c0.92,5.95,1.94,10.86,1.27,16.98c-0.06,0.57-0.15,1.17-0.51,1.61c-1.69,2.02-5.72-0.04-6.96-1.57c-1.37-1.7-1.92-3.9-2.27-6.05
				c-0.97-5.98-2.39-11.89-3.6-17.83c-1.83-9.01-3.56-18.05-5.38-27.06c-1.12-5.54-2.24-11.08-3.36-16.62
				c-0.14-0.67-0.27-1.4,0.03-2.02C1358.62,1056.77,1369.9,1055.58,1369.93,1055.72z"/>
			<path class="st2" d="M1391.37,1049.72c1.94,2.01,3.24,9.4,3.86,11.24c1.68,5.04,3.47,10.04,5.31,15.02
				c3.62,9.78,7.46,19.48,11.16,29.23c2.47,6.5,5.71,12.78,5.62,19.91c-0.05,3.81-4.76,1.93-6.76,0.99
				c-6.39-3.02-7.2-8.04-9.6-13.96c-1.86-4.58-3.76-9.14-5.67-13.69c-5.94-14.12-11.96-28.18-18.73-41.92
				c-0.25-0.51-0.51-1.04-0.57-1.61c-0.52-5.06,11.37-5.59,14.35-5.71C1390.71,1049.19,1391.05,1049.38,1391.37,1049.72z"/>
			<path class="st2" d="M1408.24,1034.07c3.44,2.89,10.72,19.33,11.99,21.68c3.65,6.75,7.29,13.5,10.93,20.25
				c2.94,5.45,8.7,12.6,9.38,18.88c0.21,1.55,1.63,10.07-2.16,8.34c-0.57-0.26-1-0.74-1.41-1.21c-10-11.34-17.77-23.92-26.36-36.29
				c-2.52-3.63-4.91-7.34-7.58-10.86c-2.3-3.03-6.23-5.86-8.05-9.1c-0.79-1.41-0.69-3.13-0.57-4.74c0.04-0.58,0.09-1.18,0.4-1.67
				c0.28-0.45,0.75-0.76,1.2-1.04c3.47-2.12,7.27-3.7,11.22-4.66C1407.5,1033.58,1407.84,1033.74,1408.24,1034.07z"/>
			<path class="st2" d="M1411.03,983.43c6.1,5.85,16.1,17.28,20.24,25.95c4.15,8.68,21.95,12.09,22.19,17.46
				c0.24,5.37,1.46,8.78-0.98,9.02c-2.44,0.24-11.71,0.73-17.31-4.39c-5.61-5.12-9.75-8.05-13.41-13.17
				c-3.66-5.12-6.83-11.22-8.54-19.27c-1.71-8.05-6.58-19.27-6.58-19.27L1411.03,983.43z"/>
			<path class="st2" d="M1024.06,347.67c-0.41,19.02-2.4,50.97,0.11,58.04c2.52,7.07,8.54-18.05,16.75-35.36
				c8.2-17.31,5.11-10.81,7.31-18.62c2.19-7.8,15.04-7.07,6.26-7.8C1045.71,343.2,1024.06,347.67,1024.06,347.67z"/>
			<path class="st2" d="M1126.56,911.66c-15.01,11.22-61.83,70.72-77.09,145.35c0,0,7.99,26.72,18.7,24.39
				c2.38-0.52,36.79-110.11,64.23-160.95c7.86-14.58,8.41-22.31,8.41-22.31L1126.56,911.66z"/>
			<path class="st2" d="M1149.11,912.1c-18.64,62.06-80.68,297.68-79.56,334.34c-18.64-53.35-3.35-123.52,19.57-190.95
				C1108.29,999.1,1149.11,912.1,1149.11,912.1z"/>
			<path class="st2" d="M1158.87,925.39c-11.71,54.59-51.72,142.56-56.79,218.75c-4.89,73.42,3.75,147.8,17.41,153.65
				c13.66,5.85,36.87-90.8,40.85-107.07c10.09-41.27,32.29-116.65,29.85-155.59c-2.1-33.61-7.77-51.23-12.29-66.82
				C1171.81,947.36,1158.87,925.39,1158.87,925.39z"/>
			<path class="st2" d="M1184.96,1113.9c-2.44,21.95-17.19,93.77-35.85,140.22c-8.69,21.64-11.22,44.87-4.39,52.19
				c6.83,7.32,14.63-33.17,25.36-50.24c10.73-17.07,19.69-72.17,20.28-94.38c0.77-28.98,5.57-51.7,3.13-59.5
				C1191.06,1094.39,1184.96,1113.9,1184.96,1113.9z"/>
			<path class="st2" d="M1096.65,1160.97c-7.53,84.01,13.38,124.86,2.23,142.42c-11.15,17.56-19.91,9.94-18.53,0.24
				c2.44-17.21-10.61-45.2,0-94.86C1085.95,1182.5,1096.65,1160.97,1096.65,1160.97z"/>
			<path class="st2" d="M1045.47,1067.81c9.02,13.41,21.22,25.89,20.97,30.14c-0.24,4.25-12.68,68.63-11.95,75.94
				c-7.56-7.32-14.63-95.11-14.14-103.16C1040.83,1062.69,1045.47,1067.81,1045.47,1067.81z"/>
		</g>
	</g>
</g>
</svg>
