<?xml version="1.0" encoding="utf-8"?>
<!-- Generator: Adobe Illustrator 28.0.0, SVG Export Plug-In . SVG Version: 6.00 Build 0)  -->
<svg version="1.1" id="Слой_1" xmlns="http://www.w3.org/2000/svg" xmlns:xlink="http://www.w3.org/1999/xlink" x="0px" y="0px"
	 viewBox="0 0 915.2 1759.1" style="enable-background:new 0 0 915.2 1759.1;" xml:space="preserve">
<style type="text/css">
	.st0{fill:#BE9B8B;}
	.st1{fill:#6F6F6F;}
	.st2 { transition: fill .3s, stroke .3s; }
	.muscle.active { fill:rgba(139,92,246,0.55) !important; stroke:#8b5cf6; stroke-width:3; }
</style>
<g id="Background">
</g>
<g id="Art">
	<g id="Anterior_Body">
		<path class="st0" d="M887.7,914.4c-2.4-2.6-15.5-11-18.7-14.3c-3.2-3.3-3.2-5.8-11.9-21c-8.8-15.1-41.5-28.5-45.2-29.3
			s-10.8-9.7-12.6-14.6c-7.5-20.4-25.2-90-32.9-152.2c-7.7-62.2-36.6-97.3-52.3-118.9c0.7-59.6-12.9-72-20.5-91.1
			c0.7-15,5.9-47.6,2.4-90.4c-2.8-33.9-45.2-74.4-71.6-78.1c-17.1-2.4-26.5,1.7-48.5,0c-22.1-1.7-63.4-38.8-65.6-43.2
			c-2.2-4.4-6.8-41-3.4-45.6c3.4-4.6,3.9-0.2,7.3-9.8c3.4-9.5,1.6-26.6,1.6-26.6s0.9-3.6,1.5-1.1c0.4,1.5,1.1,3,2.7,3.8
			c2.6,1.3,5.7-4.8,9.1-10.7c8.9-15.5,17.3-45.1,4.9-48.8c-2.2-0.7-5.5,5.1-5.5,5.1c0-2.9,2.9-30-1.5-46.8
			c-3.5-13.5-16.7-26.9-27.1-35.1c-12.7-10-38.6-10.7-45-10.7l0,0c-0.1,0-0.4,0-0.6,0s-0.4,0-0.6,0l0,0c-6.5,0.1-32.3,0.8-45,10.7
			c-10.4,8.2-23.5,21.6-27.1,35.1c-4.4,16.8-1.5,43.9-1.5,46.8c0,0-3.2-5.8-5.5-5.1c-12.3,3.7-4,33.3,4.9,48.8
			c3.3,5.8,6.5,12,9.1,10.7c1.7-0.9,2.4-2.4,2.7-3.8c0.6-2.5,1.5,1.1,1.5,1.1s-1.8,17.1,1.6,26.6c3.4,9.5,3.9,5.1,7.3,9.8
			c3.4,4.6-1.2,41.2-3.4,45.6s-43.5,41.5-65.6,43.2c-22.1,1.7-31.5-2.4-48.5,0c-26.3,3.7-68.8,44.1-71.6,78.1
			c-3.5,42.8,1.7,75.4,2.4,90.4c-7.5,19-21.2,31.5-20.5,91.1c-15.7,21.6-44.6,56.7-52.3,118.9s-25.4,131.8-32.9,152.2
			c-1.8,4.9-9,13.9-12.6,14.6s-36.4,14.1-45.2,29.3c-8.8,15.1-8.8,17.7-12,21s-16.2,11.7-18.7,14.3s-4.2,12.2,2.7,13.8
			c6.8,1.6,25.1-2.4,31-15.7c7.1-4.7,8.9-4.8,8.9-4.8s2.4,7.3,2,13.2c-0.4,5.8-12.4,23.8-17.1,34.4c-4.8,10.6-19,30.2-15.2,35.7
			s9.3,4.6,11.7,2.7s15.9-24.8,18.6-28.8c3-3.9,14.4-18.6,16.4-20.8c-3.2,13.3-8.5,29.1-10.5,35.3c-2.1,6.2-11.7,24.9-11.8,31.3
			c-0.1,8.9,6,10.9,10.1,8.2c11.5-7.6,17.9-26.9,20.7-32.6c4.8-9.5,10-26.5,14.9-34.3c-1.2,9.5-4.2,22.6-5.8,33.7
			c-0.8,5.6-5.7,34.5,0.5,36.4c9.7,2.9,11-8.2,14.8-21.4s8.6-45.7,11.5-50.7c4.4,0.9,3.7,4,4.6,12.8c1.1,11.5,0.2,40.2,8.6,40.2
			c8.4,0,9-28.9,10.1-46.5c1.1-17.6,6.8-26.8,9.8-41.2c2.9-14.4,9.7-34.4,9.3-51.2c-0.2-7.8-3.5-14.8,3.2-39.8
			c4.1-15.3,55.8-116.6,61.7-126.1c6.3-10.3,18.1-41,21-64.4c2.9-23.4,2.4-24.4,3.9-35.6c1.5-11.2,6-16.2,11.7-22.9
			c6.6-7.8,16.1-31,23.4-62.5c3.4-0.1,4.5-2.9,6.1-1.8c0,0,4.4,50,13.4,63.9c9,13.9,6.3,19,8.3,24.1c2,5.1,1,38.5-0.5,57.1
			c-1.5,18.5-5.7,83.2-9.8,98.5s-9,22-12.9,41.5c-3.9,19.5-10.1,45-11.5,69c0,0-8.2,56.9-7.4,78.3c0.8,22.9-5.1,178.9,27.8,216.9
			c-1.6,7.4-0.1,20.4,0.1,24.3s-9.3,44.4-5.6,71.4c3.7,27.1,2.2,17.7,1.5,24.4c-0.7,6.8-30,97.5,13.9,264.5
			c2.6,10,3.7,30.1,3.7,40.7s-3.7,31.5-3.7,41.3s-0.4,14.6,1.8,20.8c2.2,6.2,1.8,16.5,0.4,24.1s-31.1,28.5-33.7,39.9
			s-5.8,17.9-1.1,21.2c4.8,3.3,7,0,7,0s-1.8,5.5,1.1,8.4c2.9,2.9,11.7,2.6,11.7,2.6s2.9,0.7,4.8,3.7s9.5,4.4,11.3,2.6
			s2.9-1.7,4.4,0.8c0.8,1.3,4,2.9,6.9,4.1c2.7,1.1,5.8,0.9,8.3-0.7l5.7-3.5c0,0,4.8,5.5,5.8,5.8c1.1,0.4,12.4,4.4,15.4,0
			c2.9-4.4,16.8-15,16.1-27.4c-0.7-12.4-1.8-19.4-1.5-23.8s1.5-11,3.3-17.6c1.8-6.6,4-9.5,2.6-21.9s-0.4-13.2-0.4-15.4
			s1.8-8.1,2.2-14.6c0.4-6.6-4.8-20.1-4.8-20.1s-2.2-13.2-3.3-31.1c-1.1-17.9,2.6-88.5,9.9-111.9c7.3-23.4,11.6-30.7,12.4-36.6
			c8.8-61.8-5.5-128.4-8-151.9c-1.5-13.4,4.4-14.9,8-28.4s6.6-47.2,2.6-62.2c-3-11,10.2-51.2,12.1-63.7
			c1.8-12.4,27-108.6,28.3-125.8c1.3-17.2,3-70.5-1.5-78.6c2.2,0,8.3,4.3,10.9,5c0.1,0.1,0.3,0.1,0.5,0.1c0.2,0,0.4,0,0.5-0.1
			c2.6-0.7,8.8-5,10.9-5c-4.5,8.1-2.8,61.4-1.5,78.6c1.3,17.2,26.5,113.4,28.3,125.8c1.8,12.4,15,52.7,12.1,63.7
			c-4,15-1.1,48.7,2.6,62.2c3.7,13.5,9.5,15,8.1,28.4c-2.6,23.6-16.8,90.1-8.1,151.9c0.8,5.8,5.1,13.2,12.4,36.6
			c7.3,23.4,11,94,9.9,111.9c-1.1,17.9-3.3,31.1-3.3,31.1s-5.1,13.5-4.8,20.1c0.4,6.6,2.2,12.4,2.2,14.6c0,2.2,1.1,2.9-0.4,15.4
			c-1.5,12.4,0.7,15.4,2.6,21.9c1.8,6.6,2.9,13.2,3.3,17.6c0.4,4.4-0.7,11.3-1.5,23.8c-0.7,12.4,13.2,23.1,16.1,27.4
			c2.9,4.4,14.3,0.4,15.4,0c1.1-0.4,5.8-5.8,5.8-5.8l5.7,3.5c2.5,1.5,5.6,1.8,8.3,0.7c2.8-1.2,6.1-2.8,6.9-4.1
			c1.5-2.5,2.6-2.6,4.4-0.8s9.5,0.4,11.3-2.6s4.8-3.7,4.8-3.7s8.8,0.4,11.7-2.6c2.9-2.9,1.1-8.4,1.1-8.4s2.2,3.3,6.9,0
			s1.5-9.9-1.1-21.2c-2.6-11.3-32.2-32.2-33.7-39.9c-1.5-7.7-1.8-17.9,0.4-24.1c2.2-6.2,1.8-11,1.8-20.8s-3.7-30.7-3.7-41.3
			s1-30.7,3.7-40.7c43.9-167.1,14.6-257.8,13.9-264.5s-2.2,2.6,1.5-24.4c3.7-27.1-5.8-67.6-5.6-71.4c0.2-3.9,1.7-16.8,0.1-24.3
			c32.9-38,27-194,27.8-216.9c0.8-21.4-7.4-78.3-7.4-78.3c-1.3-24-7.6-49.5-11.5-69c-3.9-19.5-8.9-26.1-12.9-41.5
			c-4-15.4-8.3-80-9.8-98.5s-2.4-51.9-0.5-57.1s-0.7-10.2,8.3-24.1s13.4-63.9,13.4-63.9c1.6-1.1,2.7,1.7,6.1,1.8
			c7.3,31.6,16.8,54.8,23.4,62.5c5.7,6.8,10.2,11.7,11.7,22.9c1.5,11.2,1,12.2,3.9,35.6c2.9,23.4,14.7,54.1,21,64.4
			c5.8,9.5,57.6,110.7,61.7,126.1c6.7,25,3.4,31.9,3.2,39.8c-0.5,16.8,6.3,36.8,9.3,51.2c2.9,14.4,8.7,23.7,9.8,41.2
			c1.1,17.6,1.7,46.5,10.1,46.5s7.5-28.7,8.6-40.2c0.8-8.8,0.2-11.9,4.6-12.8c2.9,4.9,7.7,37.5,11.5,50.7s5.1,24.3,14.8,21.4
			c6.3-1.9,1.4-30.8,0.6-36.4c-1.6-11.1-4.6-24.2-5.8-33.7c4.9,7.8,10.1,24.7,14.9,34.3c2.8,5.6,9.3,25,20.7,32.6
			c4.1,2.7,10.2,0.7,10.1-8.2c-0.1-6.4-9.8-25.1-11.8-31.3c-2.1-6.2-7.3-21.9-10.6-35.3c2,2.2,13.3,16.8,16.4,20.8
			c2.7,4,16.2,27,18.6,28.8c2.4,1.8,7.9,2.7,11.7-2.7c3.8-5.5-10.4-25.1-15.2-35.7c-4.8-10.6-16.8-28.5-17.1-34.4
			c-0.4-5.8,2-13.2,2-13.2s1.7,0.1,8.9,4.8c5.9,13.3,24.2,17.3,31,15.7C891.8,926.6,890.1,917,887.7,914.4z"/>
		<path class="st1" d="M502.9,35.1c-15.6-5.6-30.2-10.6-48.5-9.1c-18.3-1.6-33,3.5-48.5,9.1c-24.2,8.7-31.4,41.2-30.9,64.6
			c0,9.7,2.5,19.3,4.7,28.7c2.2,9.6,3.4,19,4.5,28.8c0.1,0.7,0.2,1.5,0.8,2c1.4,1,3-1.1,3.3-2.8c1.4-7.8,1.7-15.5,1.7-23.5
			c0-35.2,10.9-17.2,12.8-50.3c0.5-8.5,4.5-14.3,13.8-13.9c13,0.6,25.3-0.7,38-3.1c12.7,2.3,25,3.7,38,3.1
			c9.4-0.4,13.4,5.4,13.8,13.9c1.8,33.1,12.8,15.1,12.8,50.3c0,8.1,0.3,15.7,1.7,23.5c0.3,1.7,1.9,3.9,3.3,2.8
			c0.6-0.4,0.7-1.2,0.8-2c1.1-9.8,2.3-19.2,4.5-28.8c2.1-9.4,4.7-19,4.7-28.7C534.4,76.3,527.1,43.8,502.9,35.1z"/>
		<g>
			<path id="chest-left" class="muscle" d="M304.4,397.5c-2.3,31.5,5.9,69.5,31.2,84.6c9.3,5.5,20.1,8,30.7,10.1c33.3,6.7,73.6-9.9,76.9-40.3
				c3.5-32.6,8.5-71.6-6.2-100.1c-9.7-19-19.1-19-29.8-20.1s-43.4-2.2-56.2,3.7c-16.6,7.6-36.2,18.7-42.1,37.1
				C306.7,379.7,305.1,388.3,304.4,397.5z"/>
			<path d="M314.7,470.3c10.2,12.1,25.5,20.5,34.3,25c4.4,2.3,4.9,10.8,1.2,11.9c-3.7,1.1-33.7-9.6-37.3-16.3s-4.8-16.6-4-20.6
				C309.5,466.2,314.7,470.3,314.7,470.3z"/>
			<path d="M304.4,498.6c-0.1,0.8-0.1,1.6,0.1,2.4c3.4,12.6,15.4,33.8,20.2,36.2c2.9,1.5,16.5-13.2,18.3-14.3
				c1.8-1.1,5.8-6.6,5.8-6.6s-29.1-10.5-34.6-15.5c-2-1.8-8.3-11.6-8.3-11.6L304.4,498.6z"/>
			<path d="M306.5,521.8c0,0-2.6,19.4,4.4,34s9.9,16.5,9.9,16.5s8.8-23.4,5.1-27.1S306.5,521.8,306.5,521.8z"/>
			<path d="M326.3,616.4c4.6,7.1,35.3,30.2,38.5,34.1s0,27.7,1,37.1c-12.2-2.9-38.1-24.3-39.8-32.6
				C324.4,646.7,326.3,616.4,326.3,616.4z"/>
			<path d="M324.8,578.2c1.7,1.8,28.7,24.5,40,29.8c4.8,2.3,1.1,37.5,1.1,37.5s-33.4-26.9-38.4-35
				c-5-8-3.1-13.2-3.6-16.6C323.4,590.5,324.8,578.2,324.8,578.2z"/>
			<path id="abs-1" class="muscle" d="M381.5,510.1c-6.5,4.4-6.6,17.2-7.7,22.3s2.6,28.2,2.6,28.2s3.7,18.3,5.1,20.5c1.8,2.7,49.9-28.4,54.5-31.2
				c3.9-2.4,8.9-2.4,10.8-7.5c3-8.4,1.4-18.6,1.1-27.4c-0.3-7.7,0.1-24.2-7.3-29.1c-6.6-4.3-15.6,3.1-21.5,5.7
				c-10.2,4.5-20.4,9.1-30.3,14.3C386.3,507.2,383.8,508.6,381.5,510.1z"/>
			<path id="abs-2" class="muscle" d="M441.2,559.4c-4.9,1.2-5.8,2.8-10.5,5.1c-5.8,2.8-11.6,5.8-17.2,9c-8.8,4.9-19.6,9.9-26.5,17.4
				c-0.3,0.3-0.5,0.6-0.8,0.9c-5.6,7.6-5.8,33.2-5.4,34.9c0.5,1.7,63.8,6.7,66.9-2.3c2.7-7.6,0.6-15.7,0.9-23.7
				c0.4-11.5,1-25.2-0.2-35.4C448.3,564.3,443.5,558.8,441.2,559.4z"/>
			<path id="abs-3" class="muscle" d="M380.6,642.4c-4,11.7-1.8,41.5,3.1,45.6c4.9,4.2,56.1,4,61.5,3.7c5.4-0.2,5-25.9,5.1-34.2s0.7-22.4-2.5-23.6
				c-3.2-1.2-26.2-1-33.3,1.7C407.3,638.3,380.6,642.4,380.6,642.4z"/>
			<path id="abs-4" class="muscle" d="M380.6,701.5c1.1,18,12.4,165.7,56.7,176.1c4.2,1,8.6,5.4,9.8,3c3.3-7.8,3.3-164.5,3.3-171.3
				s-10.5-7.5-15.8-9c-5.4-1.5-48.7-2.7-51.3-0.8C380.6,701.5,380.6,701.5,380.6,701.5z"/>
			<path d="M325.9,666.3c0.3-0.7,1.2-0.8,1.7-0.3c20.6,21.5,35,28,39,31.3c3.8,3,4.9,70,9.3,86.6
				c2,7.5,5.8,14.9,2.5,16.5c-4.4,2.1-16-3.2-19.3-6.8l-39.3-42.9C319.8,750.7,320.7,679.1,325.9,666.3z"/>
			<path d="M359.5,517.1c-16.6,14.1-24,20.9-25.7,24c-2,3.5,22.6,23.3,29.1,25.5s2.9-18,2.9-23.7
				s0.5-27.6,0-29C365.4,512.5,359.5,517.1,359.5,517.1z"/>
			<path d="M331.6,554.4c0.4-1.4,2.2-1.9,3.2-0.9c7.6,7.2,28.5,17.9,29.7,21.7c0.9,3,2.9,24.6,0.2,25.3
				c-2.7,0.7-39.4-24.7-38.9-27C326.5,570.5,329.9,559.9,331.6,554.4z"/>
			<path d="M407.5,223.4c16.5,13.3,16.8,27.8,24,42.3c20.8,41.7,13.3,66.9,8.4,61.7c-14.1-15.1-28.8-63.4-31-67.4
				C406.7,255.9,407.5,223.4,407.5,223.4z"/>
			<path d="M404.9,283.8c-2,15.1-0.8,20.1,2.4,28.2c3.2,8,21,16.5,22.7,17.7c-9.6-23-18.5-38.9-22.7-53.3
				C403.9,277.1,404.9,283.8,404.9,283.8z"/>
			<path id="traps-left" class="muscle" d="M392.7,281c-8.3,10-39.8,30.7-48.5,33.4c-1.5,5.7,44.6,10.9,50.5,6.2s5.8-34.5,4.9-39.6S392.7,281,392.7,281z"/>
			<path id="delts-left" class="muscle" d="M336.3,334.9c-4.4,2.9-10.4,4.2-15.2,6.4c-14.1,6.5-27.1,13.5-27,30.8c0.1,13.4,1.7,28-5.6,39.3
				c-4.6,7.2-10.7,13.2-16.2,19.8c-5.4,6.5-8.5,12.4-17.7,7.6c-21.4-11.2-36.2-33.2-34.3-57.9c1-13.6,7.2-26.8,16.9-36.4
				c10.8-10.7,21.2-21.2,35.2-27.9c19.1-9.2,40.3-5.9,57.5,6C336.1,326.9,336.3,334.9,336.3,334.9z"/>
			<path d="M272.6,480.2c-9,33.3-43.5,107.6-44,109.3c-1.4,4.3,1.3,9.9,4.8,12.5c5.5,4,11.2-4.5,14.2-8.1
				c20-24.7,37.7-71.1,40.5-82.5c3.4-13.6,14.1-32.9,9.8-55.8c-4.4-22.9-8.3-33.7-10.2-31.2c-2.6,3.2-3.1,10-4.1,13.8
				c-2.7,10.4-4.1,21.2-7.1,31.4C275.3,473.2,273.6,476.6,272.6,480.2z"/>
			<path id="biceps-left" class="muscle"  d="M239.5,454.6c-11.3,5.8-30.6,39.3-33.3,56c-5,30.9-3.5,47.8-3.8,56.9c-0.3,9.1,16.1,7.3,29.8-5.1
				c8.5-7.8,31.4-59.7,26.8-85.4C255.7,458.2,249.8,450.2,239.5,454.6z"/>
			<path id="forearm-left-1" class="muscle" d="M197.4,581.2c12.2-6.1,6.3,74-2.2,95.2c-9,22.4-20.8,52.3-32.2,79.7c-6.8,16.4-26.1,75.8-34.4,79.7
				c-8.3,3.9-0.5-35.4,3.4-51c3.9-15.6,15.1-80.5,18.5-92.7c3.4-12.2,1-46.1,9.8-58.7C169.1,621,179.3,590.2,197.4,581.2z"/>
			<path id="forearm-left-2" class="muscle" d="M230.6,621.5c6.3,23.9-3.6,46.6-8.5,60.8c-4.9,14.1-14.5,28-23.2,41.6c-8.8,13.7-33,70.5-38.7,85.6
				c-13.7,36.2-20.2,25.8-14.9,12.2c5.4-13.7,15.5-44.6,21.8-59.3s8.2-23.3,15.7-39.9c7.4-16.3,16-33.8,21.3-48.4
				c5.4-14.6,7.8-50.2,16.6-52.7C229.7,619,230.6,621.5,230.6,621.5z"/>
			<path id="forearm-left-3" class="muscle" d="M208.5,722.1c-10.8,13.7-19.1,31.6-24.5,44.2c-5,11.7-9.8,23.4-14.4,35.2
				c-4.3,10.9-8.7,21.9-12.1,33.2c-0.6,1.9-2.2,4.6-1.4,6.6c2-1.6,3-4.2,4.3-6.3c1.3-2.3,2.6-4.6,3.8-7c2.9-5.6,5.6-11.3,8.2-17
				c5.9-13,11.5-26.1,17.1-39.2c4.9-11.2,9.7-22.6,15.6-33.4c0.3-0.5,0.6-1.1,0.9-1.6c14.1-24.9,18.5-31.7,24.4-46.3
				c5.8-14.6,18.5-38.5,16.6-42.9c-1.4-3.1-6.3-8-8.4-9.5c-0.8-0.5-1.4,4.2-1.5,5.1C234.8,673.6,218.2,709.8,208.5,722.1z"/>
			<path d="M340.5,1208.1c7.7,0,33.3,1.8,36.2,4.8s8.4,43.5-7.7,65.5s-30,10.6-34.4-2.2s-17.9-48.7-12.8-59.6
				C327,1205.5,340.5,1208.1,340.5,1208.1z"/>
			<path d="M389.2,1233c-5.5,25.2-9.1,36.2-26.3,70.2c-14.1,27.9-19,53.8-12.5,53c6.6-0.7,30.4-55.7,34-65.8
				c3.7-10.2,14.7-41.5,15.5-47.9c1.2-9.1-1.7-15-3.8-17.6C393.9,1222.4,389.2,1233,389.2,1233z"/>
			<path id="tibialis-right-1" class="muscle" d="M387.1,1307.7c-6.3,19.5-28.8,49.8-30.2,68.8c-1.5,19,13.3,140.7,11.7,155.8c5.9-10.3,13.4-58.1,23.9-83.2
				c6.5-15.5,11.4-36.1,0-105.3C389.1,1323.6,387.1,1307.7,387.1,1307.7z"/>
			<path id="tibialis-right-1" class="muscle" d="M320.7,1252.3c8.1,54.9,35.2,185.8,38.1,244.4c2.9,58.5,0.7,50.8-1.8,55.6c-2.6,4.8-26-60.2-33.3-96.8
				s-16.1-125.8-12.7-160c3.4-34.1,2-60.5,5.4-59C319.8,1238,320.7,1252.3,320.7,1252.3z"/>
			<path id="tibialis-right-1" class="muscle" d="M299.8,1316c-3.4,40-2,114.6,3.4,145.8s22,94.1,23.4,104.9s-3.4,22.9,0,26.8c3.4,3.9,15.1-20.5,13.2-41
				s-16.7-72.7-20.8-93.2s-14.3-72.2-13.8-90.2c0.5-18.1,0.5-41,1.5-59c1-18.1,3.4-25.4,0-25.4C303.2,1284.8,299.8,1316,299.8,1316z
				"/>
			<path d="M325,1639.4c9.1,16.7,41,23.9,45.4,40c6.8-6.3,12.2-32.2,8.8-46.8s-6.3-25.4-9.8-30.2s-4.4-7.3-7.8-12.2
				c-3-4.4-13.4-15.3-21.2-6.5c-7.8,8.8-6.4,12.9-8.2,24.6C330.4,1619.9,322.1,1634,325,1639.4z"/>
			<path d="M352.6,1565.1c17.9,16.2,22.7,39.5,22.7,33.7s1.1-22.3-5.5-29.6c-6.6-7.3-10.2-8.4-14.4-8.4
				C351.1,1560.7,352.6,1565.1,352.6,1565.1z"/>
			<path d="M330.6,1665.7c-5.5,14.3-36.2,48.9-39.9,55.8s21,14.1,26.1,14.1c5.1,0,21,3.1,24.6,4.9
				c3.7,1.8,4.5-11.6,4.9-16s14-26.3,9-36.9s7.3-7.3-3-13.9C342,1667.2,330.6,1665.7,330.6,1665.7z"/>
			<path d="M359.3,1697.5c0,8.4-0.3,18.7-5.3,31.1c-5,12.4,1.1,16.1,2.6,15.4c1.5-0.7,12.2-2.9,12.2-2.9s4-6.6,2.9-10.6
				c-1.1-4,9.8-15.6,3.9-25.2s-7.3-20.6-8.8-23.9C365.4,1678,359.3,1697.5,359.3,1697.5z"/>
			<path d="M116.1,849.5c2-0.3,4-0.4,6.1-0.2c11.6,1.4,31.9,3.7,36.5,16.9c0.5,1.5,0.6,3.2,0.6,4.8c0.2,17.1-1.9,34.3-6.3,50.9
				c-0.8,3.1-1.8,6.2-3.6,8.9c-10.4,14.9-38.4,4.8-50.2-2.7c-10.6-6.7-26.5-17.1-27.3-30.7c-0.7-12.1,6.6-25.1,16.3-32
				C96.2,859.6,105.9,851.2,116.1,849.5z"/>
			<path d="M133,944.1c-0.1,7.8-0.2,15.5-0.2,23.2c0,5,0.2,10,0.7,14.9c0.4,4.1,0.5,11.8,3.1,15c1.5,1.9,5.9-10,6.1-10.7
				c0.7-3.4,0.6-45.4,2.4-45.6C141,941.5,136.9,942.8,133,944.1z"/>
			<path d="M108.7,943.5c-3.2,13.5-4.3,27.7-6.7,41.4c-0.8,4.5-1.5,9-2.2,13.5c-0.9,5.9-1.9,10.9-1.3,17c0.1,0.6,0.2,1.2,0.5,1.6
				c1.7,2,5.7,0,7-1.6c1.4-1.7,1.9-3.9,2.3-6.1c1-6,2.4-11.9,3.6-17.8c1.8-9,3.6-18.1,5.4-27.1c1.1-5.5,2.2-11.1,3.4-16.6
				c0.1-0.7,0.3-1.4,0-2C120,944.5,108.7,943.3,108.7,943.5z"/>
			<path d="M87.3,937.5c-1.9,2-3.2,9.4-3.9,11.2c-1.7,5-3.5,10-5.3,15c-3.6,9.8-7.5,19.5-11.2,29.2c-2.5,6.5-5.7,12.8-5.6,19.9
				c0,3.8,4.8,1.9,6.8,1c6.4-3,7.2-8,9.6-14c1.9-4.6,3.8-9.1,5.7-13.7c5.9-14.1,12-28.2,18.7-41.9c0.2-0.5,0.5-1,0.6-1.6
				c0.5-5.1-11.4-5.6-14.4-5.7C87.9,936.9,87.6,937.1,87.3,937.5z"/>
			<path d="M70.4,921.8c-3.4,2.9-10.7,19.3-12,21.7c-3.7,6.8-7.3,13.5-10.9,20.2c-2.9,5.4-8.7,12.6-9.4,18.9
				c-0.2,1.6-1.6,10.1,2.2,8.3c0.6-0.3,1-0.7,1.4-1.2c10-11.3,17.8-23.9,26.4-36.3c2.5-3.6,4.9-7.3,7.6-10.9c2.3-3,6.2-5.9,8-9.1
				c0.8-1.4,0.7-3.1,0.6-4.7c0-0.6-0.1-1.2-0.4-1.7c-0.3-0.4-0.8-0.8-1.2-1c-3.5-2.1-7.3-3.7-11.2-4.7
				C71.1,921.3,70.8,921.5,70.4,921.8z"/>
			<path d="M67.6,871.2c-6.1,5.8-16.1,17.3-20.2,26c-4.2,8.7-22,12.1-22.2,17.5c-0.2,5.4-1.5,8.8,1,9s11.7,0.7,17.3-4.4
				c5.6-5.1,9.8-8,13.4-13.2s6.8-11.2,8.5-19.3c1.7-8,6.6-19.3,6.6-19.3L67.6,871.2z"/>
			<path d="M454.2,235.4c0.4,19,2.8,51,0.3,58s-8.5-18-16.8-35.4c-8.2-17.3-5.1-10.8-7.3-18.6c-2.2-7.8-15-7.1-6.3-7.8
				C432.9,231,454.2,235.4,454.2,235.4z"/>
			<path d="M352.1,799.4c15,11.2,61.8,70.7,77.1,145.4c0,0-8,26.7-18.7,24.4c-2.4-0.5-36.8-110.1-64.2-161
				c-7.9-14.6-8.4-22.3-8.4-22.3L352.1,799.4z"/>
			<path id="adductors-right-2" class="muscle" d="M329.5,799.9c18.6,62.1,80.7,297.7,79.6,334.3c18.6-53.3,3.3-123.5-19.6-191C370.4,886.9,329.5,799.9,329.5,799.9z"/>
			<path id="quads-left-1" class="muscle" d="M319.8,813.1c11.7,54.6,51.7,142.6,56.8,218.8c4.9,73.4-3.8,147.8-17.4,153.7s-36.9-90.8-40.8-107.1
				c-10.1-41.3-32.3-116.7-29.8-155.6c2.1-33.6,7.8-51.2,12.3-66.8C306.8,835.1,319.8,813.1,319.8,813.1z"/>
			<path id="quads-left-2" class="muscle" d="M293.7,1001.7c2.4,21.9,17.2,93.8,35.8,140.2c8.7,21.6,11.2,44.9,4.4,52.2c-6.8,7.3-14.6-33.2-25.4-50.2
				s-19.7-72.2-20.3-94.4c-0.8-29-5.6-51.7-3.1-59.5C287.6,982.1,293.7,1001.7,293.7,1001.7z"/>
			<path id="adductors-right-1" class="muscle" d="M382,1048.7c7.5,84-13.4,124.9-2.2,142.4s19.9,9.9,18.5,0.2c-2.4-17.2,10.6-45.2,0-94.9
				C392.7,1070.3,382,1048.7,382,1048.7z"/>
			<path d="M433.2,955.6c-9,13.4-21.2,25.9-21,30.1c0.2,4.2,12.7,68.6,12,75.9c7.6-7.3,14.6-95.1,14.1-103.2
				C437.8,950.4,433.2,955.6,433.2,955.6z"/>
			<path id="chest-right" class="muscle" d="M604.4,397.5c2.3,31.5-5.9,69.5-31.2,84.6c-9.3,5.5-20.1,8-30.7,10.1c-33.3,6.7-73.6-9.9-76.9-40.3
				c-3.5-32.6-8.4-71.6,6.2-100.1c9.7-19,19.1-19,29.8-20.1c10.6-1.1,43.4-2.2,56.2,3.7c16.6,7.6,36.2,18.7,42.1,37.1
				C602.1,379.7,603.7,388.3,604.4,397.5z"/>
			<path d="M594.1,470.3c-10.2,12.1-25.5,20.5-34.3,25c-4.4,2.3-4.9,10.8-1.2,11.9c3.7,1.1,33.7-9.6,37.3-16.3s4.8-16.6,4-20.6
				C599.3,466.2,594.1,470.3,594.1,470.3z"/>
			<path d="M604.4,498.6c0.1,0.8,0.1,1.6-0.1,2.4c-3.4,12.6-15.4,33.8-20.2,36.2c-2.9,1.5-16.5-13.2-18.3-14.3
				c-1.8-1.1-5.8-6.6-5.8-6.6s29.1-10.5,34.6-15.5c2-1.8,8.3-11.6,8.3-11.6L604.4,498.6z"/>
			<path d="M602.3,521.8c0,0,2.6,19.4-4.4,34c-6.9,14.6-9.9,16.5-9.9,16.5s-8.8-23.4-5.1-27.1S602.3,521.8,602.3,521.8z"/>
			<path d="M582.5,616.4c-4.6,7.1-35.3,30.2-38.5,34.1s0,27.7-1,37.1c12.2-2.9,38.1-24.3,39.8-32.6
				C584.4,646.7,582.5,616.4,582.5,616.4z"/>
			<path d="M584,578.2c-1.7,1.8-28.7,24.5-40,29.8c-4.8,2.3-1.1,37.5-1.1,37.5s33.4-26.9,38.4-35
				c5-8,3.1-13.2,3.6-16.6C585.4,590.5,584,578.2,584,578.2z"/>
			<path id="abs-5" class="muscle" d="M527.3,510.1c6.5,4.4,6.6,17.2,7.7,22.3c1.1,5.1-2.6,28.2-2.6,28.2s-3.7,18.3-5.1,20.5
				c-1.8,2.7-49.9-28.4-54.5-31.2c-3.9-2.4-8.9-2.4-10.8-7.5c-3-8.4-1.4-18.6-1.1-27.4c0.3-7.7-0.1-24.2,7.3-29.1
				c6.6-4.3,15.6,3.1,21.5,5.7c10.2,4.5,20.4,9.1,30.3,14.3C522.5,507.2,525,508.6,527.3,510.1z"/>
			<path id="abs-6" class="muscle" d="M467.6,559.4c4.9,1.2,5.8,2.8,10.5,5.1c5.8,2.8,11.6,5.8,17.2,9c8.8,4.9,19.6,9.9,26.6,17.4
				c0.3,0.3,0.5,0.6,0.8,0.9c5.6,7.6,5.8,33.2,5.4,34.9c-0.5,1.7-63.8,6.7-66.9-2.3c-2.7-7.6-0.6-15.7-0.9-23.7
				c-0.4-11.5-1.1-25.2,0.2-35.4C460.5,564.3,465.3,558.8,467.6,559.4z"/>
			<path id="abs-7" class="muscle" d="M528.2,642.4c4,11.7,1.8,41.5-3.1,45.6c-4.9,4.2-56.1,4-61.4,3.7c-5.4-0.2-5-25.9-5.1-34.2
				s-0.7-22.4,2.5-23.6s26.2-1,33.3,1.7C501.5,638.3,528.2,642.4,528.2,642.4z"/>
			<path id="abs-8" class="muscle" d="M528.2,701.5c-1.1,18-12.4,165.7-56.7,176.1c-4.2,1-8.6,5.4-9.8,3c-3.3-7.8-3.3-164.5-3.3-171.3
				s10.5-7.5,15.8-9c5.4-1.5,48.7-2.7,51.3-0.8C528.2,701.5,528.2,701.5,528.2,701.5z"/>
			<path d="M582.9,666.3c-0.3-0.7-1.2-0.8-1.7-0.3c-20.6,21.5-35,28-39,31.3c-3.8,3-4.9,70-9.3,86.6
				c-2,7.5-5.8,14.9-2.5,16.5c4.4,2.1,16-3.2,19.3-6.8l39.3-42.9C589,750.7,588.1,679.1,582.9,666.3z"/>
			<path d="M549.3,517.1c16.6,14.1,23.9,20.9,25.7,24c2,3.5-22.6,23.3-29.1,25.5s-2.9-18-2.9-23.7
				s-0.5-27.6,0-29C543.4,512.5,549.3,517.1,549.3,517.1z"/>
			<path d="M577.2,554.4c-0.4-1.4-2.2-1.9-3.2-0.9c-7.6,7.2-28.5,17.9-29.7,21.7c-0.9,3-2.9,24.6-0.2,25.3
				c2.7,0.7,39.4-24.7,38.9-27C582.3,570.5,578.9,559.9,577.2,554.4z"/>
			<path d="M501.4,223.4c-16.5,13.3-16.8,27.8-24,42.3c-20.8,41.7-13.3,66.9-8.4,61.7c14.1-15.1,28.8-63.4,31-67.4
				S501.4,223.4,501.4,223.4z"/>
			<path d="M503.9,283.8c1.9,15.1,0.8,20.1-2.4,28.2c-3.2,8-21,16.5-22.7,17.7c9.6-23,18.5-38.9,22.7-53.3
				C504.9,277.1,503.9,283.8,503.9,283.8z"/>
			<path id="traps-right" class="muscle" d="M516.1,281c8.3,10,39.8,30.7,48.5,33.4c1.5,5.7-44.6,10.9-50.5,6.2c-5.8-4.6-5.8-34.5-4.9-39.6
				C510.3,275.9,516.1,281,516.1,281z"/>
			<path id="delts-right" class="muscle" d="M572.5,334.9c4.4,2.9,10.4,4.2,15.2,6.4c14.1,6.5,27.1,13.5,27,30.8c-0.1,13.4-1.7,28,5.6,39.3
				c4.6,7.2,10.7,13.2,16.2,19.8c5.4,6.5,8.5,12.4,17.7,7.6c21.4-11.2,36.2-33.2,34.3-57.9c-1.1-13.6-7.2-26.8-16.9-36.4
				c-10.8-10.7-21.2-21.2-35.2-27.9c-19.1-9.2-40.3-5.9-57.5,6C572.7,326.9,572.5,334.9,572.5,334.9z"/>
			<path d="M636.2,480.2c9,33.3,43.5,107.6,44,109.3c1.4,4.3-1.3,9.9-4.8,12.5c-5.5,4-11.2-4.5-14.2-8.1
				c-20-24.7-37.7-71.1-40.5-82.5c-3.4-13.6-14.1-32.9-9.8-55.8c4.4-22.9,8.3-33.7,10.2-31.2c2.6,3.2,3.1,10,4.1,13.8
				c2.7,10.4,4.1,21.2,7.1,31.4C633.5,473.2,635.2,476.6,636.2,480.2z"/>
			<path id="biceps-right" class="muscle"  d="M669.3,454.6c11.3,5.8,30.6,39.3,33.3,56c5,30.9,3.5,47.8,3.8,56.9s-16.1,7.3-29.8-5.1
				c-8.5-7.8-31.4-59.7-26.8-85.4C653.1,458.2,659,450.2,669.3,454.6z"/>
			<path id="forearm-right-1" class="muscle" d="M711.4,581.2c-12.2-6.1-6.3,74,2.2,95.2c9,22.4,20.8,52.3,32.2,79.7c6.8,16.4,26.1,75.8,34.4,79.7
				c8.3,3.9,0.5-35.4-3.4-51c-3.9-15.6-15.1-80.5-18.5-92.7s-1-46.1-9.8-58.7C739.7,621,729.5,590.2,711.4,581.2z"/>
			<path id="forearm-right-2" class="muscle" d="M678.2,621.5c-6.3,23.9,3.6,46.6,8.5,60.8c4.9,14.1,14.4,28,23.2,41.6c8.8,13.7,33,70.5,38.7,85.6
				c13.7,36.2,20.2,25.8,14.9,12.2s-15.5-44.6-21.8-59.3s-8.2-23.3-15.7-39.9c-7.4-16.3-16-33.8-21.3-48.4
				c-5.4-14.6-7.8-50.2-16.6-52.7C679.1,619,678.2,621.5,678.2,621.5z"/>
			<path id="forearm-right-3" class="muscle" d="M700.3,722.1c10.8,13.7,19.1,31.6,24.5,44.2c5,11.7,9.8,23.4,14.4,35.2
				c4.3,10.9,8.7,21.9,12.1,33.2c0.6,1.9,2.2,4.6,1.4,6.6c-2-1.6-3-4.2-4.3-6.3c-1.3-2.3-2.6-4.6-3.8-7c-2.9-5.6-5.6-11.3-8.2-17
				c-5.9-13-11.4-26.1-17.1-39.2c-4.9-11.2-9.7-22.6-15.6-33.4c-0.3-0.5-0.6-1.1-0.9-1.6c-14.1-24.9-18.5-31.7-24.4-46.3
				c-5.8-14.6-18.5-38.5-16.6-42.9c1.4-3.1,6.3-8,8.4-9.5c0.8-0.5,1.4,4.2,1.5,5.1C674,673.6,690.6,709.8,700.3,722.1z"/>
			<path d="M568.3,1208.1c-7.7,0-33.3,1.8-36.2,4.8s-8.4,43.5,7.7,65.5s30,10.6,34.4-2.2c4.4-12.8,17.9-48.7,12.8-59.6
				S568.3,1208.1,568.3,1208.1z"/>
			<path d="M519.6,1233c5.5,25.2,9.1,36.2,26.3,70.2c14.1,27.9,19,53.8,12.4,53c-6.6-0.7-30.4-55.7-34-65.8
				c-3.7-10.2-14.7-41.5-15.6-47.9c-1.2-9.1,1.7-15,3.8-17.6C514.9,1222.4,519.6,1233,519.6,1233z"/>
			<path id="tibialis-left-1" class="muscle" d="M521.7,1307.7c6.3,19.5,28.8,49.8,30.2,68.8s-13.3,140.7-11.7,155.8c-5.9-10.3-13.4-58.1-23.9-83.2
				c-6.5-15.5-11.4-36.1,0-105.3C519.7,1323.6,521.7,1307.7,521.7,1307.7z"/>
			<path id="tibialis-left-2" class="muscle" d="M588.1,1252.3c-8.1,54.9-35.2,185.8-38.1,244.4c-2.9,58.5-0.7,50.8,1.8,55.6c2.6,4.8,26-60.2,33.3-96.8
				c7.3-36.6,16.1-125.8,12.7-160c-3.4-34.1-1.9-60.5-5.4-59C589,1238,588.1,1252.3,588.1,1252.3z"/>
			<path id="tibialis-left-3" class="muscle" d="M609,1316c3.4,40,1.9,114.6-3.4,145.8c-5.4,31.2-21.9,94.1-23.4,104.9c-1.5,10.7,3.4,22.9,0,26.8
				c-3.4,3.9-15.1-20.5-13.2-41s16.7-72.7,20.8-93.2c4.1-20.5,14.3-72.2,13.8-90.2c-0.5-18.1-0.5-41-1.5-59c-1-18.1-3.4-25.4,0-25.4
				C605.6,1284.8,609,1316,609,1316z"/>
			<path d="M583.8,1639.4c-9.1,16.7-41,23.9-45.4,40c-6.8-6.3-12.2-32.2-8.8-46.8c3.4-14.6,6.3-25.4,9.8-30.2s4.4-7.3,7.8-12.2
				c3-4.4,13.4-15.3,21.2-6.5c7.8,8.8,6.4,12.9,8.2,24.6C578.4,1619.9,586.7,1634,583.8,1639.4z"/>
			<path d="M556.2,1565.1c-17.9,16.2-22.7,39.5-22.7,33.7s-1.1-22.3,5.5-29.6c6.6-7.3,10.2-8.4,14.4-8.4
				C557.7,1560.7,556.2,1565.1,556.2,1565.1z"/>
			<path d="M578.2,1665.7c5.5,14.3,36.2,48.9,39.9,55.8s-21,14.1-26.1,14.1s-21,3.1-24.6,4.9s-4.5-11.6-4.9-16
				s-14-26.3-9-36.9s-7.3-7.3,3-13.9C566.8,1667.2,578.2,1665.7,578.2,1665.7z"/>
			<path d="M549.5,1697.5c0,8.4,0.3,18.7,5.3,31.1c5,12.4-1.1,16.1-2.6,15.4c-1.5-0.7-12.1-2.9-12.1-2.9s-4-6.6-2.9-10.6
				c1.1-4-9.8-15.6-3.9-25.2s7.3-20.6,8.8-23.9C543.4,1678,549.5,1697.5,549.5,1697.5z"/>
			<path d="M792.8,849.5c-2-0.3-4.1-0.4-6.1-0.2c-11.6,1.4-31.9,3.7-36.5,16.9c-0.5,1.5-0.6,3.2-0.6,4.8
				c-0.2,17.1,1.9,34.3,6.3,50.9c0.8,3.1,1.8,6.2,3.6,8.9c10.4,14.9,38.4,4.8,50.2-2.7c10.6-6.7,26.5-17.1,27.3-30.7
				c0.7-12.1-6.6-25.1-16.3-32C812.7,859.6,802.9,851.2,792.8,849.5z"/>
			<path d="M775.8,944.1c0.1,7.8,0.2,15.5,0.2,23.2c-0.1,5-0.2,10-0.7,14.9c-0.4,4.1-0.5,11.8-3.1,15c-1.6,1.9-5.9-10-6.1-10.7
				c-0.7-3.4-0.6-45.4-2.4-45.6C767.8,941.5,771.9,942.8,775.8,944.1z"/>
			<path d="M800.1,943.5c3.2,13.5,4.3,27.7,6.7,41.4c0.8,4.5,1.5,9,2.2,13.5c0.9,5.9,1.9,10.9,1.3,17c-0.1,0.6-0.2,1.2-0.5,1.6
				c-1.7,2-5.7,0-7-1.6c-1.4-1.7-1.9-3.9-2.3-6.1c-1-6-2.4-11.9-3.6-17.8c-1.8-9-3.6-18.1-5.4-27.1c-1.1-5.5-2.2-11.1-3.4-16.6
				c-0.1-0.7-0.3-1.4,0-2C788.8,944.5,800.1,943.3,800.1,943.5z"/>
			<path d="M821.5,937.5c1.9,2,3.2,9.4,3.9,11.2c1.7,5,3.5,10,5.3,15c3.6,9.8,7.5,19.5,11.2,29.2c2.5,6.5,5.7,12.8,5.6,19.9
				c-0.1,3.8-4.8,1.9-6.8,1c-6.4-3-7.2-8-9.6-14c-1.9-4.6-3.8-9.1-5.7-13.7c-5.9-14.1-12-28.2-18.7-41.9c-0.2-0.5-0.5-1-0.6-1.6
				c-0.5-5.1,11.4-5.6,14.3-5.7C820.9,936.9,821.2,937.1,821.5,937.5z"/>
			<path d="M838.4,921.8c3.4,2.9,10.7,19.3,12,21.7c3.7,6.8,7.3,13.5,10.9,20.2c2.9,5.4,8.7,12.6,9.4,18.9c0.2,1.6,1.6,10.1-2.2,8.3
				c-0.6-0.3-1-0.7-1.4-1.2c-10-11.3-17.8-23.9-26.4-36.3c-2.5-3.6-4.9-7.3-7.6-10.9c-2.3-3-6.2-5.9-8.1-9.1
				c-0.8-1.4-0.7-3.1-0.6-4.7c0-0.6,0.1-1.2,0.4-1.7c0.3-0.4,0.8-0.8,1.2-1c3.5-2.1,7.3-3.7,11.2-4.7
				C837.7,921.3,838,921.5,838.4,921.8z"/>
			<path d="M841.2,871.2c6.1,5.8,16.1,17.3,20.2,26c4.2,8.7,21.9,12.1,22.2,17.5c0.2,5.4,1.5,8.8-1,9s-11.7,0.7-17.3-4.4
				c-5.6-5.1-9.8-8-13.4-13.2s-6.8-11.2-8.5-19.3c-1.7-8-6.6-19.3-6.6-19.3L841.2,871.2z"/>
			<path d="M454.2,235.4c-0.4,19-2.4,51,0.1,58c2.5,7.1,8.5-18,16.8-35.4c8.2-17.3,5.1-10.8,7.3-18.6c2.2-7.8,15-7.1,6.3-7.8
				C475.9,231,454.2,235.4,454.2,235.4z"/>
			<path d="M556.7,799.4c-15,11.2-61.8,70.7-77.1,145.4c0,0,8,26.7,18.7,24.4c2.4-0.5,36.8-110.1,64.2-161
				c7.9-14.6,8.4-22.3,8.4-22.3L556.7,799.4z"/>
			<path id="adductors-left-1" class="muscle" d="M579.3,799.9c-18.6,62.1-80.7,297.7-79.6,334.3c-18.6-53.3-3.3-123.5,19.6-191C538.4,886.9,579.3,799.9,579.3,799.9z"/>
			<path id="quads-right-1" class="muscle" d="M589,813.1c-11.7,54.6-51.7,142.6-56.8,218.8c-4.9,73.4,3.8,147.8,17.4,153.7s36.9-90.8,40.8-107.1
				c10.1-41.3,32.3-116.7,29.8-155.6c-2.1-33.6-7.8-51.2-12.3-66.8C602,835.1,589,813.1,589,813.1z"/>
			<path id="quads-right-2" class="muscle" d="M615.1,1001.7c-2.4,21.9-17.2,93.8-35.8,140.2c-8.7,21.6-11.2,44.9-4.4,52.2s14.6-33.2,25.4-50.2s19.7-72.2,20.3-94.4
				c0.8-29,5.6-51.7,3.1-59.5C621.2,982.1,615.1,1001.7,615.1,1001.7z"/>
			<path id="adductors-left-2" class="muscle" d="M526.8,1048.7c-7.5,84,13.4,124.9,2.2,142.4s-19.9,9.9-18.5,0.2c2.4-17.2-10.6-45.2,0-94.9
				C516.1,1070.3,526.8,1048.7,526.8,1048.7z"/>
			<path d="M475.6,955.6c9,13.4,21.2,25.9,21,30.1c-0.2,4.2-12.7,68.6-11.9,75.9c-7.6-7.3-14.6-95.1-14.1-103.2
				C471,950.4,475.6,955.6,475.6,955.6z"/>
		</g>
	</g>
</g>
</svg>
